NotoSerifBengali-Bold.ufo
<glyph name="exclam" format="2">
  <advance width="379"/>
  <unicode hex="0021"/>
  <outline>
    <contour>
      <point x="174" y="216" type="line"/>
      <point x="225" y="216" type="line"/>
      <point x="273" y="714" type="line"/>
      <point x="126" y="714" type="line"/>
    </contour>
    <contour>
      <point x="200" y="-8" type="curve" smooth="yes"/>
      <point x="239" y="-8"/>
      <point x="273" y="11"/>
      <point x="273" y="67" type="curve" smooth="yes"/>
      <point x="273" y="123"/>
      <point x="239" y="141"/>
      <point x="200" y="141" type="curve" smooth="yes"/>
      <point x="159" y="141"/>
      <point x="126" y="123"/>
      <point x="126" y="67" type="curve" smooth="yes"/>
      <point x="126" y="11"/>
      <point x="159" y="-8"/>
    </contour>
  </outline>
</glyph>
<glyph name="quotedbl" format="2">
  <advance width="463"/>
  <unicode hex="0022"/>
  <outline>
    <contour>
      <point x="311" y="457" type="line"/>
      <point x="368" y="457" type="line"/>
      <point x="400" y="714" type="line"/>
      <point x="267" y="714" type="line"/>
    </contour>
    <contour>
      <point x="100" y="457" type="line"/>
      <point x="158" y="457" type="line"/>
      <point x="196" y="714" type="line"/>
      <point x="62" y="714" type="line"/>
    </contour>
  </outline>
</glyph>
<glyph name="numbersign" format="2">
  <advance width="559"/>
  <unicode hex="0023"/>
  <outline>
    <contour>
      <point x="82" y="0" type="line"/>
      <point x="148" y="0" type="line"/>
      <point x="186" y="202" type="line"/>
      <point x="309" y="202" type="line"/>
      <point x="271" y="0" type="line"/>
      <point x="337" y="0" type="line"/>
      <point x="374" y="202" type="line"/>
      <point x="500" y="202" type="line"/>
      <point x="500" y="265" type="line"/>
      <point x="387" y="265" type="line"/>
      <point x="422" y="454" type="line"/>
      <point x="532" y="454" type="line"/>
      <point x="532" y="518" type="line"/>
      <point x="435" y="518" type="line"/>
      <point x="472" y="714" type="line"/>
      <point x="406" y="714" type="line"/>
      <point x="369" y="518" type="line"/>
      <point x="246" y="518" type="line"/>
      <point x="283" y="714" type="line"/>
      <point x="216" y="714" type="line"/>
      <point x="181" y="518" type="line"/>
      <point x="59" y="518" type="line"/>
      <point x="59" y="454" type="line"/>
      <point x="169" y="454" type="line"/>
      <point x="132" y="265" type="line"/>
      <point x="26" y="265" type="line"/>
      <point x="26" y="202" type="line"/>
      <point x="121" y="202" type="line"/>
    </contour>
    <contour>
      <point x="199" y="265" type="line"/>
      <point x="234" y="454" type="line"/>
      <point x="358" y="454" type="line"/>
      <point x="322" y="265" type="line"/>
    </contour>
  </outline>
</glyph>
<glyph name="percent" format="2">
  <advance width="901"/>
  <unicode hex="0025"/>
  <outline>
    <contour>
      <point x="237" y="0" type="line"/>
      <point x="309" y="0" type="line"/>
      <point x="660" y="714" type="line"/>
      <point x="589" y="714" type="line"/>
    </contour>
    <contour>
      <point x="211" y="280" type="curve" smooth="yes"/>
      <point x="328" y="280"/>
      <point x="385" y="369"/>
      <point x="385" y="503" type="curve"/>
      <point x="385" y="637"/>
      <point x="328" y="724"/>
      <point x="212" y="724" type="curve" smooth="yes"/>
      <point x="90" y="724"/>
      <point x="39" y="637"/>
      <point x="39" y="503" type="curve" smooth="yes"/>
      <point x="39" y="369"/>
      <point x="90" y="280"/>
    </contour>
    <contour>
      <point x="211" y="326" type="curve" smooth="yes"/>
      <point x="160" y="326"/>
      <point x="139" y="391"/>
      <point x="139" y="503" type="curve"/>
      <point x="139" y="613"/>
      <point x="159" y="677"/>
      <point x="212" y="677" type="curve" smooth="yes"/>
      <point x="265" y="677"/>
      <point x="283" y="613"/>
      <point x="283" y="503" type="curve" smooth="yes"/>
      <point x="283" y="391"/>
      <point x="265" y="326"/>
    </contour>
    <contour>
      <point x="689" y="-10" type="curve" smooth="yes"/>
      <point x="806" y="-10"/>
      <point x="863" y="79"/>
      <point x="863" y="213" type="curve" smooth="yes"/>
      <point x="863" y="347"/>
      <point x="806" y="434"/>
      <point x="690" y="434" type="curve" smooth="yes"/>
      <point x="568" y="434"/>
      <point x="517" y="347"/>
      <point x="517" y="213" type="curve" smooth="yes"/>
      <point x="517" y="79"/>
      <point x="568" y="-10"/>
    </contour>
    <contour>
      <point x="689" y="36" type="curve" smooth="yes"/>
      <point x="638" y="36"/>
      <point x="617" y="101"/>
      <point x="617" y="213" type="curve" smooth="yes"/>
      <point x="617" y="323"/>
      <point x="637" y="387"/>
      <point x="690" y="387" type="curve" smooth="yes"/>
      <point x="743" y="387"/>
      <point x="760" y="323"/>
      <point x="760" y="213" type="curve" smooth="yes"/>
      <point x="760" y="101"/>
      <point x="743" y="36"/>
    </contour>
  </outline>
</glyph>
<glyph name="parenleft" format="2">
  <advance width="420"/>
  <unicode hex="0028"/>
  <outline>
    <contour>
      <point x="326" y="-134" type="curve"/>
      <point x="326" y="-78" type="line"/>
      <point x="196" y="4"/>
      <point x="175" y="159"/>
      <point x="175" y="318" type="curve" smooth="yes"/>
      <point x="175" y="476"/>
      <point x="196" y="630"/>
      <point x="326" y="712" type="curve"/>
      <point x="326" y="766" type="line"/>
      <point x="121" y="685"/>
      <point x="40" y="544"/>
      <point x="40" y="318" type="curve" smooth="yes"/>
      <point x="40" y="90"/>
      <point x="121" y="-53"/>
    </contour>
  </outline>
</glyph>
<glyph name="parenright" format="2">
  <advance width="449"/>
  <unicode hex="0029"/>
  <outline>
    <contour>
      <point x="123" y="-134" type="line"/>
      <point x="328" y="-53"/>
      <point x="409" y="90"/>
      <point x="409" y="318" type="curve" smooth="yes"/>
      <point x="409" y="544"/>
      <point x="328" y="685"/>
      <point x="123" y="766" type="curve"/>
      <point x="123" y="712" type="line"/>
      <point x="252" y="630"/>
      <point x="274" y="476"/>
      <point x="274" y="318" type="curve" smooth="yes"/>
      <point x="274" y="159"/>
      <point x="252" y="4"/>
      <point x="123" y="-78" type="curve"/>
    </contour>
  </outline>
</glyph>
<glyph name="asterisk" format="2">
  <advance width="498"/>
  <unicode hex="002A"/>
  <outline>
    <contour>
      <point x="199" y="372" type="line"/>
      <point x="298" y="372" type="line"/>
      <point x="266" y="533" type="line"/>
      <point x="417" y="433" type="line"/>
      <point x="458" y="522" type="line"/>
      <point x="298" y="566" type="line"/>
      <point x="458" y="610" type="line"/>
      <point x="417" y="699" type="line"/>
      <point x="266" y="599" type="line"/>
      <point x="299" y="760" type="line"/>
      <point x="199" y="760" type="line"/>
      <point x="228" y="598" type="line"/>
      <point x="78" y="701" type="line"/>
      <point x="38" y="611" type="line"/>
      <point x="198" y="566" type="line"/>
      <point x="38" y="521" type="line"/>
      <point x="78" y="431" type="line"/>
      <point x="228" y="533" type="line"/>
    </contour>
  </outline>
</glyph>
<glyph name="plus" format="2">
  <advance width="559"/>
  <unicode hex="002B"/>
  <outline>
    <contour>
      <point x="246" y="143" type="line"/>
      <point x="312" y="143" type="line"/>
      <point x="312" y="325" type="line"/>
      <point x="494" y="325" type="line"/>
      <point x="494" y="390" type="line"/>
      <point x="312" y="390" type="line"/>
      <point x="312" y="572" type="line"/>
      <point x="246" y="572" type="line"/>
      <point x="246" y="390" type="line"/>
      <point x="65" y="390" type="line"/>
      <point x="65" y="325" type="line"/>
      <point x="246" y="325" type="line"/>
    </contour>
  </outline>
</glyph>
<glyph name="comma" format="2">
  <advance width="338"/>
  <unicode hex="002C"/>
  <outline>
    <contour>
      <point x="99" y="-154" type="line"/>
      <point x="223" y="-119"/>
      <point x="270" y="-44"/>
      <point x="270" y="40" type="curve" smooth="yes"/>
      <point x="270" y="104"/>
      <point x="237" y="141"/>
      <point x="188" y="141" type="curve" smooth="yes"/>
      <point x="149" y="141"/>
      <point x="117" y="118"/>
      <point x="117" y="76" type="curve" smooth="yes"/>
      <point x="117" y="6"/>
      <point x="190" y="15"/>
      <point x="190" y="-24" type="curve" smooth="yes"/>
      <point x="190" y="-61"/>
      <point x="161" y="-86"/>
      <point x="99" y="-107" type="curve"/>
    </contour>
  </outline>
</glyph>
<glyph name="period" format="2">
  <advance width="332"/>
  <unicode hex="002E"/>
  <outline>
    <contour>
      <point x="196" y="-8" type="curve" smooth="yes"/>
      <point x="235" y="-8"/>
      <point x="268" y="11"/>
      <point x="268" y="67" type="curve" smooth="yes"/>
      <point x="268" y="123"/>
      <point x="235" y="141"/>
      <point x="196" y="141" type="curve" smooth="yes"/>
      <point x="155" y="141"/>
      <point x="123" y="123"/>
      <point x="123" y="67" type="curve" smooth="yes"/>
      <point x="123" y="11"/>
      <point x="155" y="-8"/>
    </contour>
  </outline>
</glyph>
<glyph name="slash" format="2">
  <advance width="288"/>
  <unicode hex="002F"/>
  <outline>
    <contour>
      <point x="0" y="-121" type="line"/>
      <point x="66" y="-121" type="line"/>
      <point x="288" y="760" type="line"/>
      <point x="224" y="760" type="line"/>
    </contour>
  </outline>
</glyph>
<glyph name="zero" format="2">
  <advance width="559"/>
  <unicode hex="0030"/>
  <outline>
    <contour>
      <point x="280" y="-10" type="curve" smooth="yes"/>
      <point x="447" y="-10"/>
      <point x="520" y="137"/>
      <point x="520" y="358" type="curve" smooth="yes"/>
      <point x="520" y="580"/>
      <point x="447" y="724"/>
      <point x="281" y="724" type="curve" smooth="yes"/>
      <point x="105" y="724"/>
      <point x="39" y="580"/>
      <point x="39" y="359" type="curve" smooth="yes"/>
      <point x="39" y="137"/>
      <point x="105" y="-10"/>
    </contour>
    <contour>
      <point x="280" y="50" type="curve" smooth="yes"/>
      <point x="196" y="50"/>
      <point x="172" y="164"/>
      <point x="172" y="358" type="curve" smooth="yes"/>
      <point x="172" y="552"/>
      <point x="196" y="664"/>
      <point x="281" y="664" type="curve" smooth="yes"/>
      <point x="364" y="664"/>
      <point x="387" y="552"/>
      <point x="387" y="358" type="curve" smooth="yes"/>
      <point x="387" y="164"/>
      <point x="364" y="50"/>
    </contour>
  </outline>
</glyph>
<glyph name="one" format="2">
  <advance width="559"/>
  <unicode hex="0031"/>
  <outline>
    <contour>
      <point x="97" y="0" type="line"/>
      <point x="496" y="0" type="line"/>
      <point x="496" y="48" type="line"/>
      <point x="429" y="48" type="line" smooth="yes"/>
      <point x="385" y="48"/>
      <point x="365" y="66"/>
      <point x="365" y="116" type="curve" smooth="yes"/>
      <point x="365" y="718" type="line"/>
      <point x="273" y="718" type="line"/>
      <point x="203" y="666" type="line" smooth="yes"/>
      <point x="137" y="617"/>
      <point x="92" y="599"/>
      <point x="52" y="589" type="curve"/>
      <point x="52" y="549"/>
      <point x="76" y="523"/>
      <point x="107" y="523" type="curve" smooth="yes"/>
      <point x="147" y="523"/>
      <point x="185" y="565"/>
      <point x="236" y="627" type="curve"/>
      <point x="236" y="116" type="line" smooth="yes"/>
      <point x="236" y="61"/>
      <point x="211" y="48"/>
      <point x="172" y="48" type="curve" smooth="yes"/>
      <point x="97" y="48" type="line"/>
    </contour>
  </outline>
</glyph>
<glyph name="two" format="2">
  <advance width="559"/>
  <unicode hex="0032"/>
  <outline>
    <contour>
      <point x="46" y="0" type="line"/>
      <point x="501" y="0" type="line"/>
      <point x="506" y="194" type="line"/>
      <point x="454" y="194" type="line"/>
      <point x="448" y="169" type="line" smooth="yes"/>
      <point x="437" y="127"/>
      <point x="413" y="97"/>
      <point x="364" y="97" type="curve" smooth="yes"/>
      <point x="132" y="97" type="line"/>
      <point x="261" y="231" type="line" smooth="yes"/>
      <point x="421" y="390"/>
      <point x="481" y="465"/>
      <point x="481" y="558" type="curve" smooth="yes"/>
      <point x="481" y="660"/>
      <point x="402" y="724"/>
      <point x="263" y="724" type="curve" smooth="yes"/>
      <point x="124" y="724"/>
      <point x="53" y="664"/>
      <point x="53" y="589" type="curve" smooth="yes"/>
      <point x="53" y="526"/>
      <point x="99" y="505"/>
      <point x="163" y="505" type="curve"/>
      <point x="163" y="604"/>
      <point x="185" y="668"/>
      <point x="263" y="668" type="curve" smooth="yes"/>
      <point x="320" y="668"/>
      <point x="351" y="626"/>
      <point x="351" y="550" type="curve" smooth="yes"/>
      <point x="351" y="452"/>
      <point x="318" y="384"/>
      <point x="202" y="259" type="curve" smooth="yes"/>
      <point x="46" y="90" type="line"/>
    </contour>
  </outline>
</glyph>
<glyph name="three" format="2">
  <advance width="559"/>
  <unicode hex="0033"/>
  <outline>
    <contour>
      <point x="245" y="-10" type="curve" smooth="yes"/>
      <point x="373" y="-10"/>
      <point x="508" y="43"/>
      <point x="508" y="205" type="curve" smooth="yes"/>
      <point x="508" y="327"/>
      <point x="405" y="369"/>
      <point x="327" y="381" type="curve"/>
      <point x="416" y="407"/>
      <point x="483" y="473"/>
      <point x="483" y="563" type="curve" smooth="yes"/>
      <point x="483" y="665"/>
      <point x="396" y="724"/>
      <point x="261" y="724" type="curve" smooth="yes"/>
      <point x="122" y="724"/>
      <point x="50" y="668"/>
      <point x="50" y="594" type="curve" smooth="yes"/>
      <point x="50" y="537"/>
      <point x="94" y="515"/>
      <point x="162" y="515" type="curve"/>
      <point x="162" y="594"/>
      <point x="178" y="668"/>
      <point x="258" y="668" type="curve" smooth="yes"/>
      <point x="322" y="668"/>
      <point x="351" y="623"/>
      <point x="351" y="548" type="curve" smooth="yes"/>
      <point x="351" y="457"/>
      <point x="298" y="398"/>
      <point x="211" y="398" type="curve"/>
      <point x="160" y="398" type="line"/>
      <point x="160" y="341" type="line"/>
      <point x="209" y="341" type="line" smooth="yes"/>
      <point x="314" y="341"/>
      <point x="375" y="286"/>
      <point x="375" y="206" type="curve" smooth="yes"/>
      <point x="375" y="89"/>
      <point x="312" y="53"/>
      <point x="241" y="53" type="curve" smooth="yes"/>
      <point x="165" y="53"/>
      <point x="116" y="100"/>
      <point x="116" y="178" type="curve"/>
      <point x="74" y="178"/>
      <point x="41" y="153"/>
      <point x="41" y="106" type="curve" smooth="yes"/>
      <point x="41" y="45"/>
      <point x="102" y="-10"/>
    </contour>
  </outline>
</glyph>
<glyph name="four" format="2">
  <advance width="559"/>
  <unicode hex="0034"/>
  <outline>
    <contour>
      <point x="195" y="0" type="line"/>
      <point x="525" y="0" type="line"/>
      <point x="525" y="48" type="line"/>
      <point x="512" y="48" type="line" smooth="yes"/>
      <point x="467" y="48"/>
      <point x="430" y="57"/>
      <point x="430" y="120" type="curve" smooth="yes"/>
      <point x="430" y="190" type="line"/>
      <point x="542" y="190" type="line"/>
      <point x="542" y="252" type="line"/>
      <point x="430" y="252" type="line"/>
      <point x="430" y="714" type="line"/>
      <point x="309" y="714" type="line"/>
      <point x="15" y="243" type="line"/>
      <point x="15" y="190" type="line"/>
      <point x="305" y="190" type="line"/>
      <point x="305" y="120" type="line" smooth="yes"/>
      <point x="305" y="57"/>
      <point x="268" y="48"/>
      <point x="223" y="48" type="curve" smooth="yes"/>
      <point x="195" y="48" type="line"/>
    </contour>
    <contour>
      <point x="86" y="252" type="line"/>
      <point x="228" y="481" type="line" smooth="yes"/>
      <point x="246" y="511"/>
      <point x="299" y="600"/>
      <point x="312" y="630" type="curve"/>
      <point x="307" y="568"/>
      <point x="305" y="489"/>
      <point x="305" y="431" type="curve" smooth="yes"/>
      <point x="305" y="252" type="line"/>
    </contour>
  </outline>
</glyph>
<glyph name="five" format="2">
  <advance width="559"/>
  <unicode hex="0035"/>
  <outline>
    <contour>
      <point x="245" y="-10" type="curve" smooth="yes"/>
      <point x="379" y="-10"/>
      <point x="498" y="62"/>
      <point x="498" y="219" type="curve" smooth="yes"/>
      <point x="498" y="361"/>
      <point x="397" y="432"/>
      <point x="253" y="432" type="curve" smooth="yes"/>
      <point x="205" y="432"/>
      <point x="161" y="424"/>
      <point x="140" y="416" type="curve"/>
      <point x="158" y="617" type="line"/>
      <point x="360" y="617" type="line" smooth="yes"/>
      <point x="396" y="617"/>
      <point x="404" y="603"/>
      <point x="409" y="577" type="curve" smooth="yes"/>
      <point x="415" y="545" type="line"/>
      <point x="466" y="545" type="line"/>
      <point x="461" y="714" type="line"/>
      <point x="102" y="714" type="line"/>
      <point x="70" y="364" type="line"/>
      <point x="106" y="351" type="line"/>
      <point x="134" y="361"/>
      <point x="164" y="371"/>
      <point x="222" y="371" type="curve" smooth="yes"/>
      <point x="311" y="371"/>
      <point x="365" y="321"/>
      <point x="365" y="219" type="curve" smooth="yes"/>
      <point x="365" y="94"/>
      <point x="307" y="55"/>
      <point x="234" y="55" type="curve" smooth="yes"/>
      <point x="152" y="55"/>
      <point x="119" y="110"/>
      <point x="119" y="167" type="curve"/>
      <point x="73" y="167"/>
      <point x="46" y="145"/>
      <point x="46" y="103" type="curve" smooth="yes"/>
      <point x="46" y="48"/>
      <point x="95" y="-10"/>
    </contour>
  </outline>
</glyph>
<glyph name="six" format="2">
  <advance width="559"/>
  <unicode hex="0036"/>
  <outline>
    <contour>
      <point x="293" y="-10" type="curve" smooth="yes"/>
      <point x="438" y="-10"/>
      <point x="517" y="88"/>
      <point x="517" y="230" type="curve" smooth="yes"/>
      <point x="517" y="359"/>
      <point x="438" y="436"/>
      <point x="317" y="436" type="curve" smooth="yes"/>
      <point x="250" y="436"/>
      <point x="206" y="415"/>
      <point x="177" y="393" type="curve"/>
      <point x="184" y="572"/>
      <point x="234" y="670"/>
      <point x="321" y="670" type="curve" smooth="yes"/>
      <point x="379" y="670"/>
      <point x="397" y="608"/>
      <point x="397" y="546" type="curve"/>
      <point x="469" y="546"/>
      <point x="499" y="576"/>
      <point x="499" y="616" type="curve" smooth="yes"/>
      <point x="499" y="672"/>
      <point x="448" y="724"/>
      <point x="327" y="724" type="curve" smooth="yes"/>
      <point x="140" y="724"/>
      <point x="52" y="550"/>
      <point x="52" y="343" type="curve" smooth="yes"/>
      <point x="52" y="97"/>
      <point x="151" y="-10"/>
    </contour>
    <contour>
      <point x="296" y="51" type="curve" smooth="yes"/>
      <point x="227" y="51"/>
      <point x="178" y="132"/>
      <point x="176" y="327" type="curve"/>
      <point x="198" y="352"/>
      <point x="244" y="380"/>
      <point x="287" y="380" type="curve" smooth="yes"/>
      <point x="352" y="380"/>
      <point x="390" y="331"/>
      <point x="390" y="220" type="curve" smooth="yes"/>
      <point x="390" y="103"/>
      <point x="355" y="51"/>
    </contour>
  </outline>
</glyph>
<glyph name="seven" format="2">
  <advance width="559"/>
  <unicode hex="0037"/>
  <outline>
    <contour>
      <point x="176" y="0" type="line"/>
      <point x="256" y="0" type="line"/>
      <point x="520" y="673" type="line"/>
      <point x="520" y="714" type="line"/>
      <point x="55" y="714" type="line"/>
      <point x="50" y="516" type="line"/>
      <point x="103" y="516" type="line"/>
      <point x="108" y="566" type="line" smooth="yes"/>
      <point x="111" y="599"/>
      <point x="130" y="617"/>
      <point x="166" y="617" type="curve" smooth="yes"/>
      <point x="429" y="617" type="line"/>
    </contour>
  </outline>
</glyph>
<glyph name="eight" format="2">
  <advance width="559"/>
  <unicode hex="0038"/>
  <outline>
    <contour>
      <point x="273" y="-10" type="curve" smooth="yes"/>
      <point x="428" y="-10"/>
      <point x="522" y="63"/>
      <point x="522" y="190" type="curve" smooth="yes"/>
      <point x="522" y="273"/>
      <point x="467" y="332"/>
      <point x="356" y="385" type="curve"/>
      <point x="438" y="427"/>
      <point x="491" y="467"/>
      <point x="491" y="550" type="curve" smooth="yes"/>
      <point x="491" y="651"/>
      <point x="419" y="724"/>
      <point x="285" y="724" type="curve" smooth="yes"/>
      <point x="121" y="724"/>
      <point x="60" y="636"/>
      <point x="60" y="543" type="curve" smooth="yes"/>
      <point x="60" y="463"/>
      <point x="108" y="406"/>
      <point x="186" y="361" type="curve"/>
      <point x="98" y="318"/>
      <point x="37" y="271"/>
      <point x="37" y="181" type="curve" smooth="yes"/>
      <point x="37" y="75"/>
      <point x="113" y="-10"/>
    </contour>
    <contour>
      <point x="278" y="42" type="curve" smooth="yes"/>
      <point x="201" y="42"/>
      <point x="156" y="97"/>
      <point x="156" y="177" type="curve" smooth="yes"/>
      <point x="156" y="249"/>
      <point x="192" y="297"/>
      <point x="245" y="328" type="curve"/>
      <point x="359" y="277"/>
      <point x="403" y="237"/>
      <point x="403" y="171" type="curve" smooth="yes"/>
      <point x="403" y="96"/>
      <point x="354" y="42"/>
    </contour>
    <contour>
      <point x="300" y="415" type="curve"/>
      <point x="222" y="450"/>
      <point x="181" y="485"/>
      <point x="181" y="555" type="curve" smooth="yes"/>
      <point x="181" y="621"/>
      <point x="216" y="671"/>
      <point x="279" y="671" type="curve" smooth="yes"/>
      <point x="350" y="671"/>
      <point x="381" y="611"/>
      <point x="381" y="552" type="curve" smooth="yes"/>
      <point x="381" y="485"/>
      <point x="360" y="446"/>
    </contour>
  </outline>
</glyph>
<glyph name="nine" format="2">
  <advance width="559"/>
  <unicode hex="0039"/>
  <outline>
    <contour>
      <point x="227" y="-10" type="curve"/>
      <point x="427" y="-10"/>
      <point x="507" y="172"/>
      <point x="507" y="388" type="curve" smooth="yes"/>
      <point x="507" y="623"/>
      <point x="405" y="724"/>
      <point x="264" y="724" type="curve" smooth="yes"/>
      <point x="125" y="724"/>
      <point x="42" y="624"/>
      <point x="42" y="480" type="curve" smooth="yes"/>
      <point x="42" y="345"/>
      <point x="123" y="275"/>
      <point x="238" y="275" type="curve" smooth="yes"/>
      <point x="306" y="275"/>
      <point x="353" y="306"/>
      <point x="382" y="343" type="curve"/>
      <point x="375" y="147"/>
      <point x="328" y="49"/>
      <point x="230" y="49" type="curve" smooth="yes"/>
      <point x="165" y="49"/>
      <point x="131" y="92"/>
      <point x="112" y="144" type="curve"/>
      <point x="86" y="138"/>
      <point x="71" y="119"/>
      <point x="71" y="91" type="curve" smooth="yes"/>
      <point x="71" y="41"/>
      <point x="109" y="-10"/>
    </contour>
    <contour>
      <point x="272" y="342" type="curve" smooth="yes"/>
      <point x="204" y="342"/>
      <point x="169" y="388"/>
      <point x="169" y="488" type="curve" smooth="yes"/>
      <point x="169" y="602"/>
      <point x="205" y="662"/>
      <point x="268" y="662" type="curve" smooth="yes"/>
      <point x="336" y="662"/>
      <point x="380" y="588"/>
      <point x="383" y="414" type="curve"/>
      <point x="364" y="373"/>
      <point x="326" y="342"/>
    </contour>
  </outline>
</glyph>
<glyph name="colon" format="2">
  <advance width="332"/>
  <unicode hex="003A"/>
  <outline>
    <contour>
      <point x="196" y="394" type="curve" smooth="yes"/>
      <point x="235" y="394"/>
      <point x="268" y="412"/>
      <point x="268" y="468" type="curve" smooth="yes"/>
      <point x="268" y="525"/>
      <point x="235" y="542"/>
      <point x="196" y="542" type="curve" smooth="yes"/>
      <point x="155" y="542"/>
      <point x="123" y="525"/>
      <point x="123" y="468" type="curve" smooth="yes"/>
      <point x="123" y="412"/>
      <point x="155" y="394"/>
    </contour>
    <contour>
      <point x="196" y="-8" type="curve" smooth="yes"/>
      <point x="235" y="-8"/>
      <point x="268" y="11"/>
      <point x="268" y="67" type="curve" smooth="yes"/>
      <point x="268" y="123"/>
      <point x="235" y="141"/>
      <point x="196" y="141" type="curve" smooth="yes"/>
      <point x="155" y="141"/>
      <point x="123" y="123"/>
      <point x="123" y="67" type="curve" smooth="yes"/>
      <point x="123" y="11"/>
      <point x="155" y="-8"/>
    </contour>
  </outline>
</glyph>
<glyph name="semicolon" format="2">
  <advance width="345"/>
  <unicode hex="003B"/>
  <outline>
    <contour>
      <point x="99" y="-154" type="line"/>
      <point x="223" y="-119"/>
      <point x="270" y="-44"/>
      <point x="270" y="40" type="curve" smooth="yes"/>
      <point x="270" y="104"/>
      <point x="236" y="141"/>
      <point x="187" y="141" type="curve" smooth="yes"/>
      <point x="149" y="141"/>
      <point x="117" y="118"/>
      <point x="117" y="76" type="curve" smooth="yes"/>
      <point x="117" y="6"/>
      <point x="190" y="15"/>
      <point x="190" y="-24" type="curve"/>
      <point x="190" y="-62"/>
      <point x="160" y="-86"/>
      <point x="99" y="-107" type="curve"/>
    </contour>
    <contour>
      <point x="196" y="394" type="curve" smooth="yes"/>
      <point x="234" y="394"/>
      <point x="269" y="412"/>
      <point x="269" y="468" type="curve" smooth="yes"/>
      <point x="269" y="525"/>
      <point x="234" y="542"/>
      <point x="196" y="542" type="curve" smooth="yes"/>
      <point x="154" y="542"/>
      <point x="123" y="525"/>
      <point x="123" y="468" type="curve" smooth="yes"/>
      <point x="123" y="412"/>
      <point x="154" y="394"/>
    </contour>
  </outline>
</glyph>
<glyph name="less" format="2">
  <advance width="559"/>
  <unicode hex="003C"/>
  <outline>
    <contour>
      <point x="494" y="107" type="line"/>
      <point x="494" y="179" type="line"/>
      <point x="164" y="357" type="line"/>
      <point x="494" y="537" type="line"/>
      <point x="494" y="609" type="line"/>
      <point x="65" y="377" type="line"/>
      <point x="65" y="338" type="line"/>
    </contour>
  </outline>
</glyph>
<glyph name="greater" format="2">
  <advance width="559"/>
  <unicode hex="003E"/>
  <outline>
    <contour>
      <point x="65" y="107" type="line"/>
      <point x="494" y="338" type="line"/>
      <point x="494" y="377" type="line"/>
      <point x="65" y="609" type="line"/>
      <point x="65" y="537" type="line"/>
      <point x="395" y="357" type="line"/>
      <point x="65" y="179" type="line"/>
    </contour>
  </outline>
</glyph>
<glyph name="question" format="2">
  <advance width="523"/>
  <unicode hex="003F"/>
  <outline>
    <contour>
      <point x="202" y="222" type="line"/>
      <point x="277" y="222" type="line"/>
      <point x="290" y="319" type="line"/>
      <point x="423" y="374"/>
      <point x="487" y="433"/>
      <point x="487" y="540" type="curve" smooth="yes"/>
      <point x="487" y="656"/>
      <point x="390" y="724"/>
      <point x="244" y="724" type="curve" smooth="yes"/>
      <point x="97" y="724"/>
      <point x="31" y="665"/>
      <point x="31" y="599" type="curve" smooth="yes"/>
      <point x="31" y="543"/>
      <point x="79" y="523"/>
      <point x="161" y="523" type="curve"/>
      <point x="161" y="614"/>
      <point x="187" y="664"/>
      <point x="248" y="664" type="curve" smooth="yes"/>
      <point x="303" y="664"/>
      <point x="331" y="623"/>
      <point x="331" y="556" type="curve" smooth="yes"/>
      <point x="331" y="473"/>
      <point x="302" y="402"/>
      <point x="189" y="351" type="curve"/>
    </contour>
    <contour>
      <point x="237" y="-8" type="curve" smooth="yes"/>
      <point x="281" y="-8"/>
      <point x="318" y="12"/>
      <point x="318" y="74" type="curve" smooth="yes"/>
      <point x="318" y="136"/>
      <point x="281" y="156"/>
      <point x="237" y="156" type="curve" smooth="yes"/>
      <point x="193" y="156"/>
      <point x="157" y="136"/>
      <point x="157" y="74" type="curve" smooth="yes"/>
      <point x="157" y="12"/>
      <point x="193" y="-8"/>
    </contour>
  </outline>
</glyph>
<glyph name="bracketleft" format="2">
  <advance width="400"/>
  <unicode hex="005B"/>
  <outline>
    <contour>
      <point x="69" y="-128" type="line"/>
      <point x="322" y="-128" type="line"/>
      <point x="322" y="-80" type="line"/>
      <point x="278" y="-80" type="line" smooth="yes"/>
      <point x="233" y="-80"/>
      <point x="197" y="-71"/>
      <point x="197" y="-8" type="curve" smooth="yes"/>
      <point x="197" y="640" type="line" smooth="yes"/>
      <point x="197" y="703"/>
      <point x="233" y="712"/>
      <point x="278" y="712" type="curve" smooth="yes"/>
      <point x="322" y="712" type="line"/>
      <point x="322" y="760" type="line"/>
      <point x="69" y="760" type="line"/>
    </contour>
  </outline>
</glyph>
<glyph name="bracketright" format="2">
  <advance width="442"/>
  <unicode hex="005D"/>
  <outline>
    <contour>
      <point x="121" y="-128" type="line"/>
      <point x="373" y="-128" type="line"/>
      <point x="373" y="760" type="line"/>
      <point x="121" y="760" type="line"/>
      <point x="121" y="712" type="line"/>
      <point x="165" y="712" type="line" smooth="yes"/>
      <point x="210" y="712"/>
      <point x="246" y="703"/>
      <point x="246" y="640" type="curve" smooth="yes"/>
      <point x="246" y="-8" type="line" smooth="yes"/>
      <point x="246" y="-71"/>
      <point x="210" y="-80"/>
      <point x="165" y="-80" type="curve" smooth="yes"/>
      <point x="121" y="-80" type="line"/>
    </contour>
  </outline>
</glyph>
<glyph name="asciicircum" format="2">
  <advance width="559"/>
  <unicode hex="005E"/>
  <outline>
    <contour>
      <point x="48" y="264" type="line"/>
      <point x="120" y="264" type="line"/>
      <point x="278" y="614" type="line"/>
      <point x="438" y="264" type="line"/>
      <point x="509" y="264" type="line"/>
      <point x="298" y="714" type="line"/>
      <point x="259" y="714" type="line"/>
    </contour>
  </outline>
</glyph>
<glyph name="braceleft" format="2">
  <advance width="476"/>
  <unicode hex="007B"/>
  <outline>
    <contour>
      <point x="304" y="-126" type="curve" smooth="yes"/>
      <point x="386" y="-126" type="line"/>
      <point x="386" y="-78" type="line"/>
      <point x="350" y="-78" type="line" smooth="yes"/>
      <point x="293" y="-78"/>
      <point x="275" y="-42"/>
      <point x="275" y="23" type="curve" smooth="yes"/>
      <point x="275" y="195" type="line" smooth="yes"/>
      <point x="275" y="258"/>
      <point x="241" y="300"/>
      <point x="166" y="316" type="curve"/>
      <point x="166" y="321" type="line"/>
      <point x="241" y="336"/>
      <point x="275" y="378"/>
      <point x="275" y="440" type="curve" smooth="yes"/>
      <point x="275" y="611" type="line" smooth="yes"/>
      <point x="275" y="677"/>
      <point x="293" y="712"/>
      <point x="351" y="712" type="curve" smooth="yes"/>
      <point x="386" y="712" type="line"/>
      <point x="386" y="760" type="line"/>
      <point x="304" y="760" type="line" smooth="yes"/>
      <point x="200" y="760"/>
      <point x="145" y="707"/>
      <point x="145" y="616" type="curve" smooth="yes"/>
      <point x="145" y="442" type="line" smooth="yes"/>
      <point x="145" y="364"/>
      <point x="94" y="346"/>
      <point x="28" y="344" type="curve"/>
      <point x="28" y="292" type="line"/>
      <point x="94" y="289"/>
      <point x="145" y="271"/>
      <point x="145" y="192" type="curve" smooth="yes"/>
      <point x="145" y="20" type="line" smooth="yes"/>
      <point x="145" y="-70"/>
      <point x="200" y="-126"/>
    </contour>
  </outline>
</glyph>
<glyph name="braceright" format="2">
  <advance width="507"/>
  <unicode hex="007D"/>
  <outline>
    <contour>
      <point x="121" y="-126" type="line"/>
      <point x="203" y="-126" type="line" smooth="yes"/>
      <point x="307" y="-126"/>
      <point x="361" y="-70"/>
      <point x="361" y="20" type="curve" smooth="yes"/>
      <point x="361" y="192" type="line" smooth="yes"/>
      <point x="361" y="271"/>
      <point x="414" y="289"/>
      <point x="479" y="292" type="curve"/>
      <point x="479" y="344" type="line"/>
      <point x="414" y="346"/>
      <point x="361" y="364"/>
      <point x="361" y="442" type="curve" smooth="yes"/>
      <point x="361" y="616" type="line" smooth="yes"/>
      <point x="361" y="707"/>
      <point x="307" y="760"/>
      <point x="203" y="760" type="curve" smooth="yes"/>
      <point x="121" y="760" type="line"/>
      <point x="121" y="712" type="line"/>
      <point x="157" y="712" type="line" smooth="yes"/>
      <point x="215" y="712"/>
      <point x="232" y="677"/>
      <point x="232" y="611" type="curve" smooth="yes"/>
      <point x="232" y="440" type="line" smooth="yes"/>
      <point x="232" y="378"/>
      <point x="267" y="336"/>
      <point x="342" y="321" type="curve"/>
      <point x="342" y="316" type="line"/>
      <point x="266" y="300"/>
      <point x="232" y="258"/>
      <point x="232" y="195" type="curve" smooth="yes"/>
      <point x="232" y="23" type="line" smooth="yes"/>
      <point x="232" y="-42"/>
      <point x="215" y="-78"/>
      <point x="157" y="-78" type="curve" smooth="yes"/>
      <point x="121" y="-78" type="line"/>
    </contour>
  </outline>
</glyph>
<glyph name="asciitilde" format="2">
  <advance width="559"/>
  <unicode hex="007E"/>
  <outline>
    <contour>
      <point x="50" y="265" type="curve"/>
      <point x="116" y="265" type="line"/>
      <point x="121" y="347"/>
      <point x="139" y="382"/>
      <point x="176" y="382" type="curve" smooth="yes"/>
      <point x="206" y="382"/>
      <point x="225" y="360"/>
      <point x="259" y="330" type="curve" smooth="yes"/>
      <point x="302" y="289"/>
      <point x="334" y="265"/>
      <point x="383" y="265" type="curve" smooth="yes"/>
      <point x="480" y="265"/>
      <point x="502" y="357"/>
      <point x="508" y="448" type="curve"/>
      <point x="441" y="448" type="line"/>
      <point x="435" y="371"/>
      <point x="420" y="331"/>
      <point x="384" y="331" type="curve" smooth="yes"/>
      <point x="358" y="331"/>
      <point x="335" y="352"/>
      <point x="303" y="381" type="curve" smooth="yes"/>
      <point x="251" y="428"/>
      <point x="224" y="448"/>
      <point x="178" y="448" type="curve" smooth="yes"/>
      <point x="80" y="448"/>
      <point x="54" y="358"/>
    </contour>
  </outline>
</glyph>
<glyph name="uni00AD" format="2">
  <advance width="310"/>
  <unicode hex="00AD"/>
  <outline>
    <contour>
      <point x="25" y="227" type="line"/>
      <point x="285" y="227" type="line"/>
      <point x="285" y="318" type="line"/>
      <point x="25" y="318" type="line"/>
    </contour>
  </outline>
</glyph>
<glyph name="multiply" format="2">
  <advance width="559"/>
  <unicode hex="00D7"/>
  <outline>
    <contour>
      <point x="123" y="155" type="line"/>
      <point x="279" y="312" type="line"/>
      <point x="435" y="155" type="line"/>
      <point x="481" y="201" type="line"/>
      <point x="325" y="358" type="line"/>
      <point x="481" y="514" type="line"/>
      <point x="435" y="561" type="line"/>
      <point x="279" y="405" type="line"/>
      <point x="123" y="560" type="line"/>
      <point x="76" y="514" type="line"/>
      <point x="233" y="359" type="line"/>
      <point x="76" y="202" type="line"/>
    </contour>
  </outline>
</glyph>
<glyph name="divide" format="2">
  <advance width="559"/>
  <unicode hex="00F7"/>
  <outline>
    <contour>
      <point x="65" y="325" type="line"/>
      <point x="494" y="325" type="line"/>
      <point x="494" y="390" type="line"/>
      <point x="65" y="390" type="line"/>
    </contour>
    <contour>
      <point x="280" y="111" type="curve" smooth="yes"/>
      <point x="310" y="111"/>
      <point x="333" y="126"/>
      <point x="333" y="169" type="curve" smooth="yes"/>
      <point x="333" y="213"/>
      <point x="310" y="227"/>
      <point x="280" y="227" type="curve" smooth="yes"/>
      <point x="249" y="227"/>
      <point x="227" y="213"/>
      <point x="227" y="169" type="curve" smooth="yes"/>
      <point x="227" y="126"/>
      <point x="249" y="111"/>
    </contour>
    <contour>
      <point x="280" y="489" type="curve" smooth="yes"/>
      <point x="310" y="489"/>
      <point x="333" y="503"/>
      <point x="333" y="546" type="curve" smooth="yes"/>
      <point x="333" y="590"/>
      <point x="310" y="604"/>
      <point x="280" y="604" type="curve" smooth="yes"/>
      <point x="249" y="604"/>
      <point x="227" y="590"/>
      <point x="227" y="546" type="curve" smooth="yes"/>
      <point x="227" y="503"/>
      <point x="249" y="489"/>
    </contour>
  </outline>
</glyph>
<glyph name="uni02BC" format="2">
  <advance width="266"/>
  <unicode hex="02BC"/>
  <outline>
    <contour>
      <point x="39" y="419" type="line"/>
      <point x="163" y="454"/>
      <point x="210" y="529"/>
      <point x="210" y="614" type="curve" smooth="yes"/>
      <point x="210" y="677"/>
      <point x="175" y="714"/>
      <point x="126" y="714" type="curve" smooth="yes"/>
      <point x="87" y="714"/>
      <point x="57" y="692"/>
      <point x="57" y="650" type="curve" smooth="yes"/>
      <point x="57" y="579"/>
      <point x="130" y="588"/>
      <point x="130" y="550" type="curve" smooth="yes"/>
      <point x="130" y="511"/>
      <point x="101" y="487"/>
      <point x="39" y="466" type="curve"/>
    </contour>
  </outline>
</glyph>
<glyph name="danda-deva" format="2">
  <advance width="476"/>
  <unicode hex="0964"/>
  <outline>
    <contour>
      <point x="390" y="-35" type="line"/>
      <point x="398" y="-32" type="line"/>
      <point x="398" y="588" type="line"/>
      <point x="311" y="625" type="line"/>
      <point x="308" y="625" type="line"/>
      <point x="308" y="2" type="line"/>
    </contour>
  </outline>
</glyph>
<glyph name="dbldanda-deva" format="2">
  <advance width="660"/>
  <unicode hex="0965"/>
  <outline>
    <contour>
      <point x="575" y="-35" type="line"/>
      <point x="582" y="-32" type="line"/>
      <point x="582" y="588" type="line"/>
      <point x="496" y="625" type="line"/>
      <point x="493" y="625" type="line"/>
      <point x="493" y="2" type="line"/>
    </contour>
    <contour>
      <point x="390" y="-35" type="line"/>
      <point x="398" y="-32" type="line"/>
      <point x="398" y="588" type="line"/>
      <point x="311" y="625" type="line"/>
      <point x="308" y="625" type="line"/>
      <point x="308" y="2" type="line"/>
    </contour>
  </outline>
</glyph>
<glyph name="anji-beng" format="2">
  <advance width="600"/>
  <unicode hex="0980"/>
  <outline>
    <contour>
      <point x="495" y="-35" type="curve" smooth="yes"/>
      <point x="550" y="-35"/>
      <point x="578" y="-3"/>
      <point x="578" y="45" type="curve" smooth="yes"/>
      <point x="578" y="94"/>
      <point x="545" y="125"/>
      <point x="503" y="125" type="curve" smooth="yes"/>
      <point x="456" y="125"/>
      <point x="440" y="92"/>
      <point x="438" y="62" type="curve"/>
      <point x="480" y="57" type="line"/>
      <point x="480" y="469" type="line" smooth="yes"/>
      <point x="480" y="561"/>
      <point x="413" y="631"/>
      <point x="299" y="631" type="curve" smooth="yes"/>
      <point x="159" y="631"/>
      <point x="53" y="538"/>
      <point x="53" y="403" type="curve" smooth="yes"/>
      <point x="53" y="275"/>
      <point x="138" y="199"/>
      <point x="245" y="199" type="curve" smooth="yes"/>
      <point x="316" y="199"/>
      <point x="355" y="239"/>
      <point x="355" y="298" type="curve" smooth="yes"/>
      <point x="355" y="355"/>
      <point x="320" y="391"/>
      <point x="265" y="391" type="curve" smooth="yes"/>
      <point x="217" y="391"/>
      <point x="183" y="357"/>
      <point x="183" y="308" type="curve" smooth="yes"/>
      <point x="183" y="291"/>
      <point x="186" y="273"/>
      <point x="191" y="262" type="curve"/>
      <point x="243" y="286" type="line"/>
      <point x="231" y="283"/>
      <point x="218" y="282"/>
      <point x="206" y="282" type="curve" smooth="yes"/>
      <point x="169" y="282"/>
      <point x="146" y="313"/>
      <point x="146" y="371" type="curve" smooth="yes"/>
      <point x="146" y="470"/>
      <point x="258" y="537"/>
      <point x="332" y="537" type="curve" smooth="yes"/>
      <point x="376" y="537"/>
      <point x="390" y="517"/>
      <point x="390" y="474" type="curve" smooth="yes"/>
      <point x="390" y="93" type="line" smooth="yes"/>
      <point x="390" y="20"/>
      <point x="428" y="-35"/>
    </contour>
  </outline>
</glyph>
<glyph name="anusvara-beng" format="2">
  <advance width="392"/>
  <unicode hex="0982"/>
  <outline>
    <contour>
      <point x="189" y="335" type="curve" smooth="yes"/>
      <point x="276" y="335"/>
      <point x="339" y="395"/>
      <point x="339" y="481" type="curve" smooth="yes"/>
      <point x="339" y="559"/>
      <point x="285" y="622"/>
      <point x="200" y="622" type="curve" smooth="yes"/>
      <point x="114" y="622"/>
      <point x="53" y="560"/>
      <point x="53" y="476" type="curve" smooth="yes"/>
      <point x="53" y="401"/>
      <point x="103" y="335"/>
    </contour>
    <contour>
      <point x="161" y="407" type="curve" smooth="yes"/>
      <point x="142" y="407"/>
      <point x="126" y="419"/>
      <point x="126" y="442" type="curve" smooth="yes"/>
      <point x="126" y="490"/>
      <point x="185" y="548"/>
      <point x="232" y="548" type="curve" smooth="yes"/>
      <point x="255" y="548"/>
      <point x="267" y="535"/>
      <point x="267" y="517" type="curve" smooth="yes"/>
      <point x="267" y="472"/>
      <point x="209" y="407"/>
    </contour>
    <contour>
      <point x="330" y="-67" type="curve"/>
      <point x="378" y="-49" type="line"/>
      <point x="313" y="96"/>
      <point x="223" y="232"/>
      <point x="120" y="300" type="curve"/>
      <point x="51" y="180" type="line"/>
      <point x="151" y="130"/>
      <point x="227" y="81"/>
    </contour>
  </outline>
</glyph>
<glyph name="visarga-beng" format="2">
  <advance width="406"/>
  <unicode hex="0983"/>
  <outline>
    <contour>
      <point x="196" y="333" type="curve" smooth="yes"/>
      <point x="288" y="333"/>
      <point x="354" y="394"/>
      <point x="354" y="481" type="curve" smooth="yes"/>
      <point x="354" y="561"/>
      <point x="298" y="624"/>
      <point x="207" y="624" type="curve" smooth="yes"/>
      <point x="117" y="624"/>
      <point x="53" y="562"/>
      <point x="53" y="476" type="curve" smooth="yes"/>
      <point x="53" y="400"/>
      <point x="106" y="333"/>
    </contour>
    <contour>
      <point x="169" y="405" type="curve" smooth="yes"/>
      <point x="150" y="405"/>
      <point x="133" y="417"/>
      <point x="133" y="439" type="curve" smooth="yes"/>
      <point x="133" y="488"/>
      <point x="191" y="550"/>
      <point x="239" y="550" type="curve" smooth="yes"/>
      <point x="263" y="550"/>
      <point x="275" y="537"/>
      <point x="275" y="519" type="curve" smooth="yes"/>
      <point x="275" y="474"/>
      <point x="220" y="405"/>
    </contour>
    <contour>
      <point x="197" y="-20" type="curve" smooth="yes"/>
      <point x="287" y="-20"/>
      <point x="351" y="40"/>
      <point x="351" y="126" type="curve" smooth="yes"/>
      <point x="351" y="204"/>
      <point x="296" y="266"/>
      <point x="207" y="266" type="curve" smooth="yes"/>
      <point x="119" y="266"/>
      <point x="55" y="205"/>
      <point x="55" y="121" type="curve" smooth="yes"/>
      <point x="55" y="46"/>
      <point x="107" y="-20"/>
    </contour>
    <contour>
      <point x="170" y="50" type="curve" smooth="yes"/>
      <point x="150" y="50"/>
      <point x="134" y="62"/>
      <point x="134" y="84" type="curve" smooth="yes"/>
      <point x="134" y="133"/>
      <point x="191" y="194"/>
      <point x="239" y="194" type="curve" smooth="yes"/>
      <point x="262" y="194"/>
      <point x="274" y="181"/>
      <point x="274" y="164" type="curve" smooth="yes"/>
      <point x="274" y="119"/>
      <point x="220" y="50"/>
    </contour>
  </outline>
</glyph>
<glyph name="a-beng" format="2">
  <advance width="814"/>
  <unicode hex="0985"/>
  <anchor x="734" y="0" name="bottom"/>
  <anchor x="734" y="87" name="bottom.rakaar"/>
  <anchor x="734" y="11" name="bottom.rvocalic"/>
  <anchor x="714" y="14" name="bottom.virama"/>
  <anchor x="734" y="550" name="top"/>
  <anchor x="734" y="550" name="topright"/>
  <outline>
    <contour>
      <point x="726" y="-24" type="line"/>
      <point x="734" y="-22" type="line"/>
      <point x="734" y="550" type="line"/>
      <point x="849" y="550" type="line"/>
      <point x="807" y="622" type="line"/>
      <point x="-35" y="622" type="line"/>
      <point x="6" y="550" type="line"/>
      <point x="645" y="550" type="line"/>
      <point x="645" y="76" type="line"/>
      <point x="659" y="93" type="line"/>
      <point x="619" y="174"/>
      <point x="574" y="216"/>
      <point x="534" y="241" type="curve"/>
      <point x="505" y="160" type="line"/>
      <point x="567" y="129"/>
      <point x="615" y="85"/>
      <point x="656" y="18" type="curve"/>
    </contour>
    <contour>
      <point x="360" y="46" type="curve" smooth="yes"/>
      <point x="482" y="46"/>
      <point x="568" y="128"/>
      <point x="568" y="277" type="curve" smooth="yes"/>
      <point x="568" y="399"/>
      <point x="491" y="500"/>
      <point x="345" y="500" type="curve" smooth="yes"/>
      <point x="259" y="500"/>
      <point x="204" y="454"/>
      <point x="204" y="380" type="curve" smooth="yes"/>
      <point x="204" y="315"/>
      <point x="250" y="269"/>
      <point x="317" y="269" type="curve" smooth="yes"/>
      <point x="385" y="269"/>
      <point x="421" y="316"/>
      <point x="421" y="379" type="curve" smooth="yes"/>
      <point x="421" y="465"/>
      <point x="361" y="531"/>
      <point x="318" y="563" type="curve"/>
      <point x="157" y="562" type="line"/>
      <point x="293" y="531"/>
      <point x="340" y="460"/>
      <point x="351" y="374" type="curve"/>
      <point x="366" y="382"/>
      <point x="384" y="390"/>
      <point x="407" y="390" type="curve" smooth="yes"/>
      <point x="450" y="390"/>
      <point x="496" y="362"/>
      <point x="498" y="294" type="curve" smooth="yes"/>
      <point x="500" y="216"/>
      <point x="439" y="180"/>
      <point x="352" y="180" type="curve" smooth="yes"/>
      <point x="233" y="180"/>
      <point x="138" y="252"/>
      <point x="67" y="479" type="curve"/>
      <point x="12" y="465" type="line"/>
      <point x="87" y="166"/>
      <point x="200" y="46"/>
    </contour>
  </outline>
</glyph>
<glyph name="i-beng" format="2">
  <advance width="508"/>
  <unicode hex="0987"/>
  <anchor x="303" y="52" name="bottom"/>
  <anchor x="430" y="-83" name="bottom.rakaar"/>
  <anchor x="380" y="48" name="bottom.rvocalic"/>
  <anchor x="290" y="55" name="bottom.virama"/>
  <anchor x="328" y="610" name="top"/>
  <anchor x="272" y="612" name="topright"/>
  <anchor x="254" y="0" name="vedic"/>
  <outline>
    <contour>
      <point x="391" y="598" type="curve"/>
      <point x="451" y="598" type="line"/>
      <point x="447" y="738"/>
      <point x="392" y="820"/>
      <point x="291" y="820" type="curve" smooth="yes"/>
      <point x="238" y="820"/>
      <point x="200" y="810"/>
      <point x="143" y="810" type="curve" smooth="yes"/>
      <point x="71" y="810"/>
      <point x="41" y="830"/>
      <point x="41" y="892" type="curve" smooth="yes"/>
      <point x="41" y="904"/>
      <point x="42" y="918"/>
      <point x="43" y="928" type="curve"/>
      <point x="-8" y="933" type="line"/>
      <point x="-12" y="911"/>
      <point x="-15" y="885"/>
      <point x="-15" y="856" type="curve" smooth="yes"/>
      <point x="-15" y="756"/>
      <point x="39" y="693"/>
      <point x="144" y="693" type="curve" smooth="yes"/>
      <point x="217" y="693"/>
      <point x="266" y="705"/>
      <point x="308" y="705" type="curve" smooth="yes"/>
      <point x="359" y="705"/>
      <point x="390" y="681"/>
    </contour>
    <component base="ha-beng"/>
  </outline>
</glyph>
<glyph name="ii-beng" format="2">
  <advance width="688"/>
  <unicode hex="0988"/>
  <anchor x="612" y="-22" name="bottom"/>
  <anchor x="615" y="47" name="bottom.rakaar"/>
  <anchor x="598" y="-26" name="bottom.rvocalic"/>
  <anchor x="597" y="-38" name="bottom.virama"/>
  <anchor x="425" y="610" name="top"/>
  <anchor x="374" y="612" name="topright"/>
  <outline>
    <contour>
      <point x="565" y="-72" type="curve"/>
      <point x="614" y="-52" type="line"/>
      <point x="592" y="12"/>
      <point x="582" y="62"/>
      <point x="582" y="123" type="curve" smooth="yes"/>
      <point x="582" y="212"/>
      <point x="608" y="309"/>
      <point x="657" y="391" type="curve"/>
      <point x="539" y="490" type="line"/>
      <point x="443" y="423"/>
      <point x="387" y="345"/>
      <point x="339" y="266" type="curve"/>
      <point x="384" y="246" type="line"/>
      <point x="389" y="266"/>
      <point x="390" y="289"/>
      <point x="390" y="309" type="curve" smooth="yes"/>
      <point x="390" y="408"/>
      <point x="340" y="498"/>
      <point x="188" y="498" type="curve" smooth="yes"/>
      <point x="99" y="498"/>
      <point x="49" y="458"/>
      <point x="49" y="393" type="curve" smooth="yes"/>
      <point x="49" y="329"/>
      <point x="93" y="294"/>
      <point x="151" y="294" type="curve" smooth="yes"/>
      <point x="211" y="294"/>
      <point x="250" y="335"/>
      <point x="250" y="404" type="curve" smooth="yes"/>
      <point x="250" y="469"/>
      <point x="206" y="535"/>
      <point x="171" y="557" type="curve"/>
      <point x="29" y="557" type="line"/>
      <point x="82" y="542"/>
      <point x="144" y="510"/>
      <point x="178" y="460" type="curve"/>
      <point x="145" y="379" type="line"/>
      <point x="170" y="398"/>
      <point x="201" y="414"/>
      <point x="234" y="414" type="curve" smooth="yes"/>
      <point x="296" y="414"/>
      <point x="322" y="376"/>
      <point x="322" y="325" type="curve" smooth="yes"/>
      <point x="322" y="289"/>
      <point x="312" y="257"/>
      <point x="291" y="227" type="curve" smooth="yes"/>
      <point x="266" y="190"/>
      <point x="237" y="173"/>
      <point x="193" y="173" type="curve" smooth="yes"/>
      <point x="158" y="173"/>
      <point x="129" y="194"/>
      <point x="101" y="244" type="curve"/>
      <point x="50" y="219" type="line"/>
      <point x="95" y="114"/>
      <point x="153" y="46"/>
      <point x="235" y="46" type="curve" smooth="yes"/>
      <point x="309" y="46"/>
      <point x="358" y="103"/>
      <point x="418" y="184" type="curve" smooth="yes"/>
      <point x="464" y="248"/>
      <point x="514" y="325"/>
      <point x="584" y="385" type="curve"/>
      <point x="550" y="396" type="line"/>
      <point x="519" y="318"/>
      <point x="499" y="248"/>
      <point x="499" y="172" type="curve" smooth="yes"/>
      <point x="499" y="82"/>
      <point x="529" y="-1"/>
    </contour>
    <contour>
      <point x="6" y="550" type="line"/>
      <point x="723" y="550" type="line"/>
      <point x="682" y="622" type="line"/>
      <point x="-35" y="622" type="line"/>
    </contour>
    <contour>
      <point x="535" y="598" type="curve"/>
      <point x="595" y="598" type="line"/>
      <point x="584" y="738"/>
      <point x="530" y="824"/>
      <point x="403" y="824" type="curve" smooth="yes"/>
      <point x="339" y="824"/>
      <point x="292" y="811"/>
      <point x="223" y="811" type="curve" smooth="yes"/>
      <point x="138" y="811"/>
      <point x="103" y="831"/>
      <point x="103" y="893" type="curve" smooth="yes"/>
      <point x="103" y="904"/>
      <point x="103" y="917"/>
      <point x="105" y="928" type="curve"/>
      <point x="54" y="933" type="line"/>
      <point x="49" y="911"/>
      <point x="47" y="886"/>
      <point x="47" y="862" type="curve" smooth="yes"/>
      <point x="47" y="760"/>
      <point x="107" y="694"/>
      <point x="232" y="694" type="curve" smooth="yes"/>
      <point x="310" y="694"/>
      <point x="373" y="709"/>
      <point x="431" y="709" type="curve" smooth="yes"/>
      <point x="498" y="709"/>
      <point x="527" y="681"/>
    </contour>
  </outline>
</glyph>
<glyph name="u-beng" format="2">
  <advance width="638"/>
  <unicode hex="0989"/>
  <anchor x="494" y="-1" name="bottom"/>
  <anchor x="553" y="-9" name="bottom.rakaar"/>
  <anchor x="476" y="26" name="bottom.rvocalic"/>
  <anchor x="413" y="-1" name="bottom.virama"/>
  <anchor x="397" y="605" name="top"/>
  <anchor x="331" y="612" name="topright"/>
  <anchor x="319" y="0" name="vedic"/>
  <anchor x="343" y="-108" name="nukta"/>
  <outline>
    <contour>
      <point x="511" y="598" type="curve"/>
      <point x="571" y="598" type="line"/>
      <point x="557" y="737"/>
      <point x="504" y="820"/>
      <point x="381" y="820" type="curve" smooth="yes"/>
      <point x="321" y="820"/>
      <point x="286" y="811"/>
      <point x="227" y="811" type="curve" smooth="yes"/>
      <point x="135" y="811"/>
      <point x="100" y="830"/>
      <point x="100" y="893" type="curve" smooth="yes"/>
      <point x="100" y="903"/>
      <point x="101" y="916"/>
      <point x="102" y="927" type="curve"/>
      <point x="51" y="933" type="line"/>
      <point x="46" y="910"/>
      <point x="44" y="885"/>
      <point x="44" y="862" type="curve" smooth="yes"/>
      <point x="44" y="759"/>
      <point x="104" y="693"/>
      <point x="233" y="693" type="curve" smooth="yes"/>
      <point x="304" y="693"/>
      <point x="355" y="704"/>
      <point x="400" y="704" type="curve" smooth="yes"/>
      <point x="471" y="704"/>
      <point x="501" y="680"/>
    </contour>
    <component base="dda-beng"/>
  </outline>
</glyph>
<glyph name="uu-beng" format="2">
  <advance width="724"/>
  <unicode hex="098A"/>
  <anchor x="572" y="-7" name="bottom"/>
  <anchor x="631" y="-15" name="bottom.rakaar"/>
  <anchor x="554" y="20" name="bottom.rvocalic"/>
  <anchor x="491" y="-6" name="bottom.virama"/>
  <anchor x="450" y="608" name="top"/>
  <anchor x="424" y="612" name="topright"/>
  <outline>
    <contour>
      <point x="442" y="1" type="curve" smooth="yes"/>
      <point x="616" y="1"/>
      <point x="694" y="106"/>
      <point x="694" y="246" type="curve" smooth="yes"/>
      <point x="694" y="352"/>
      <point x="652" y="430"/>
      <point x="593" y="482" type="curve"/>
      <point x="541" y="409"/>
      <point x="485" y="363"/>
      <point x="443" y="363" type="curve" smooth="yes"/>
      <point x="424" y="363"/>
      <point x="409" y="370"/>
      <point x="409" y="393" type="curve" smooth="yes"/>
      <point x="409" y="550" type="line"/>
      <point x="759" y="550" type="line"/>
      <point x="716" y="622" type="line"/>
      <point x="-35" y="622" type="line"/>
      <point x="8" y="550" type="line"/>
      <point x="320" y="550" type="line"/>
      <point x="320" y="376" type="line" smooth="yes"/>
      <point x="320" y="330"/>
      <point x="336" y="299"/>
      <point x="361" y="274" type="curve" smooth="yes"/>
      <point x="386" y="250"/>
      <point x="420" y="235"/>
      <point x="459" y="235" type="curve" smooth="yes"/>
      <point x="521" y="235"/>
      <point x="596" y="284"/>
      <point x="645" y="357" type="curve"/>
      <point x="590" y="371" type="line"/>
      <point x="614" y="347"/>
      <point x="630" y="319"/>
      <point x="630" y="274" type="curve" smooth="yes"/>
      <point x="630" y="190"/>
      <point x="566" y="133"/>
      <point x="467" y="132" type="curve" smooth="yes"/>
      <point x="300" y="130"/>
      <point x="248" y="279"/>
      <point x="188" y="494" type="curve"/>
      <point x="134" y="480" type="line"/>
      <point x="169" y="308"/>
      <point x="209" y="196"/>
      <point x="277" y="117" type="curve"/>
      <point x="316" y="123" type="line"/>
      <point x="208" y="156"/>
      <point x="133" y="274"/>
      <point x="66" y="488" type="curve"/>
      <point x="12" y="474" type="line"/>
      <point x="82" y="161"/>
      <point x="222" y="1"/>
    </contour>
    <contour>
      <point x="591" y="598" type="curve"/>
      <point x="651" y="598" type="line"/>
      <point x="638" y="738"/>
      <point x="575" y="824"/>
      <point x="443" y="824" type="curve" smooth="yes"/>
      <point x="362" y="824"/>
      <point x="318" y="806"/>
      <point x="219" y="806" type="curve" smooth="yes"/>
      <point x="129" y="806"/>
      <point x="99" y="831"/>
      <point x="99" y="893" type="curve" smooth="yes"/>
      <point x="99" y="904"/>
      <point x="100" y="917"/>
      <point x="101" y="928" type="curve"/>
      <point x="50" y="933" type="line"/>
      <point x="46" y="911"/>
      <point x="43" y="886"/>
      <point x="43" y="862" type="curve" smooth="yes"/>
      <point x="43" y="757"/>
      <point x="97" y="690"/>
      <point x="234" y="690" type="curve" smooth="yes"/>
      <point x="331" y="690"/>
      <point x="388" y="710"/>
      <point x="464" y="710" type="curve" smooth="yes"/>
      <point x="541" y="710"/>
      <point x="581" y="681"/>
    </contour>
  </outline>
</glyph>
<glyph name="rVocalic-beng" format="2">
  <advance width="794"/>
  <unicode hex="098B"/>
  <anchor x="531" y="0" name="bottom"/>
  <anchor x="531" y="87" name="bottom.rakaar"/>
  <anchor x="458" y="103" name="bottom.rvocalic"/>
  <anchor x="511" y="14" name="bottom.virama"/>
  <anchor x="531" y="550" name="top"/>
  <anchor x="534" y="550" name="topright"/>
  <outline>
    <contour>
      <point x="522" y="-32" type="line"/>
      <point x="531" y="-29" type="line"/>
      <point x="531" y="639" type="line"/>
      <point x="448" y="687" type="line"/>
      <point x="441" y="685" type="line"/>
      <point x="441" y="430" type="line"/>
      <point x="451" y="482" type="line"/>
      <point x="324" y="445"/>
      <point x="192" y="387"/>
      <point x="81" y="316" type="curve"/>
      <point x="135" y="172" type="line"/>
      <point x="266" y="164"/>
      <point x="385" y="117"/>
      <point x="452" y="11" type="curve"/>
    </contour>
    <contour>
      <point x="441" y="69" type="line"/>
      <point x="455" y="85" type="line"/>
      <point x="381" y="232"/>
      <point x="263" y="257"/>
      <point x="169" y="271" type="curve"/>
      <point x="187" y="219" type="line"/>
      <point x="256" y="270"/>
      <point x="367" y="324"/>
      <point x="458" y="349" type="curve"/>
      <point x="441" y="377" type="line"/>
    </contour>
    <contour>
      <point x="140" y="427" type="curve" smooth="yes"/>
      <point x="205" y="427"/>
      <point x="304" y="462"/>
      <point x="355" y="533" type="curve"/>
      <point x="319" y="535" type="line"/>
      <point x="346" y="512"/>
      <point x="365" y="487"/>
      <point x="390" y="442" type="curve"/>
      <point x="439" y="454" type="line"/>
      <point x="411" y="528"/>
      <point x="368" y="596"/>
      <point x="314" y="633" type="curve"/>
      <point x="264" y="560"/>
      <point x="198" y="531"/>
      <point x="140" y="531" type="curve" smooth="yes"/>
      <point x="126" y="531"/>
      <point x="112" y="535"/>
      <point x="102" y="539" type="curve"/>
      <point x="146" y="484" type="line"/>
      <point x="166" y="501"/>
      <point x="173" y="517"/>
      <point x="173" y="545" type="curve" smooth="yes"/>
      <point x="173" y="581"/>
      <point x="148" y="613"/>
      <point x="98" y="613" type="curve" smooth="yes"/>
      <point x="49" y="613"/>
      <point x="18" y="581"/>
      <point x="18" y="531" type="curve" smooth="yes"/>
      <point x="18" y="462"/>
      <point x="70" y="427"/>
    </contour>
    <contour>
      <point x="707" y="57" type="line"/>
      <point x="714" y="59" type="line"/>
      <point x="714" y="550" type="line"/>
      <point x="829" y="550" type="line"/>
      <point x="786" y="622" type="line"/>
      <point x="707" y="622" type="line"/>
      <point x="700" y="677" type="line"/>
      <point x="632" y="713" type="line"/>
      <point x="625" y="710" type="line"/>
      <point x="625" y="162" type="line"/>
      <point x="639" y="179" type="line"/>
      <point x="599" y="268"/>
      <point x="558" y="305"/>
      <point x="501" y="339" type="curve"/>
      <point x="491" y="242" type="line"/>
      <point x="556" y="211"/>
      <point x="597" y="172"/>
      <point x="636" y="100" type="curve"/>
    </contour>
  </outline>
</glyph>
<glyph name="lVocalic-beng" format="2">
  <advance width="551"/>
  <unicode hex="098C"/>
  <anchor x="419" y="550" name="top"/>
  <outline>
    <contour>
      <point x="312" y="-9" type="line"/>
      <point x="414" y="6"/>
      <point x="531" y="92"/>
      <point x="531" y="271" type="curve" smooth="yes"/>
      <point x="531" y="422"/>
      <point x="454" y="476"/>
      <point x="294" y="507" type="curve" smooth="yes"/>
      <point x="205" y="525"/>
      <point x="143" y="541"/>
      <point x="143" y="618" type="curve" smooth="yes"/>
      <point x="143" y="647"/>
      <point x="149" y="671"/>
      <point x="160" y="699" type="curve"/>
      <point x="110" y="715" type="line"/>
      <point x="95" y="687"/>
      <point x="71" y="629"/>
      <point x="71" y="573" type="curve" smooth="yes"/>
      <point x="71" y="453"/>
      <point x="144" y="413"/>
      <point x="275" y="389" type="curve" smooth="yes"/>
      <point x="390" y="368"/>
      <point x="462" y="354"/>
      <point x="462" y="241" type="curve" smooth="yes"/>
      <point x="462" y="166"/>
      <point x="420" y="111"/>
      <point x="362" y="104" type="curve"/>
      <point x="408" y="76" type="line"/>
      <point x="409" y="210"/>
      <point x="347" y="325"/>
      <point x="215" y="325" type="curve" smooth="yes"/>
      <point x="98" y="325"/>
      <point x="46" y="244"/>
      <point x="46" y="156" type="curve" smooth="yes"/>
      <point x="46" y="56"/>
      <point x="100" y="6"/>
      <point x="171" y="6" type="curve" smooth="yes"/>
      <point x="227" y="6"/>
      <point x="252" y="45"/>
      <point x="252" y="89" type="curve" smooth="yes"/>
      <point x="252" y="135"/>
      <point x="220" y="166"/>
      <point x="175" y="166" type="curve" smooth="yes"/>
      <point x="136" y="166"/>
      <point x="100" y="139"/>
      <point x="100" y="104" type="curve"/>
      <point x="156" y="100" type="line"/>
      <point x="134" y="107"/>
      <point x="118" y="125"/>
      <point x="118" y="158" type="curve" smooth="yes"/>
      <point x="118" y="195"/>
      <point x="147" y="224"/>
      <point x="194" y="224" type="curve" smooth="yes"/>
      <point x="280" y="224"/>
      <point x="309" y="126"/>
      <point x="309" y="42" type="curve" smooth="yes"/>
      <point x="309" y="26"/>
      <point x="308" y="11"/>
      <point x="305" y="-4" type="curve"/>
    </contour>
  </outline>
</glyph>
<glyph name="e-beng" format="2">
  <advance width="675"/>
  <unicode hex="098F"/>
  <anchor x="608" y="0" name="bottom"/>
  <anchor x="608" y="-5" name="bottom.rvocalic"/>
  <anchor x="588" y="8" name="bottom.virama"/>
  <anchor x="515" y="550" name="top"/>
  <anchor x="518" y="550" name="topright"/>
  <outline>
    <contour>
      <point x="599" y="-29" type="line"/>
      <point x="608" y="-27" type="line"/>
      <point x="608" y="488" type="line" smooth="yes"/>
      <point x="608" y="574"/>
      <point x="557" y="633"/>
      <point x="462" y="633" type="curve" smooth="yes"/>
      <point x="329" y="633"/>
      <point x="207" y="513"/>
      <point x="207" y="386" type="curve" smooth="yes"/>
      <point x="207" y="304"/>
      <point x="258" y="259"/>
      <point x="327" y="258" type="curve" smooth="yes"/>
      <point x="397" y="257"/>
      <point x="435" y="300"/>
      <point x="435" y="354" type="curve" smooth="yes"/>
      <point x="435" y="403"/>
      <point x="404" y="438"/>
      <point x="353" y="438" type="curve" smooth="yes"/>
      <point x="331" y="438"/>
      <point x="307" y="428"/>
      <point x="294" y="408" type="curve"/>
      <point x="352" y="403" type="line"/>
      <point x="352" y="468"/>
      <point x="414" y="554"/>
      <point x="472" y="554" type="curve" smooth="yes"/>
      <point x="507" y="554"/>
      <point x="518" y="532"/>
      <point x="518" y="498" type="curve" smooth="yes"/>
      <point x="518" y="235" type="line" smooth="yes"/>
      <point x="518" y="187"/>
      <point x="522" y="128"/>
      <point x="529" y="91" type="curve"/>
      <point x="485" y="173"/>
      <point x="443" y="191"/>
      <point x="378" y="191" type="curve" smooth="yes"/>
      <point x="327" y="191"/>
      <point x="289" y="182"/>
      <point x="228" y="182" type="curve" smooth="yes"/>
      <point x="157" y="182"/>
      <point x="100" y="221"/>
      <point x="100" y="307" type="curve" smooth="yes"/>
      <point x="100" y="332"/>
      <point x="103" y="359"/>
      <point x="110" y="388" type="curve"/>
      <point x="57" y="398" type="line"/>
      <point x="45" y="357"/>
      <point x="38" y="308"/>
      <point x="38" y="263" type="curve" smooth="yes"/>
      <point x="38" y="106"/>
      <point x="131" y="49"/>
      <point x="234" y="49" type="curve" smooth="yes"/>
      <point x="307" y="49"/>
      <point x="360" y="68"/>
      <point x="425" y="68" type="curve" smooth="yes"/>
      <point x="470" y="68"/>
      <point x="504" y="55"/>
      <point x="540" y="8" type="curve"/>
    </contour>
  </outline>
</glyph>
<glyph name="ai-beng" format="2">
  <advance width="789"/>
  <unicode hex="0990"/>
  <anchor x="608" y="0" name="bottom"/>
  <anchor x="608" y="-5" name="bottom.rvocalic"/>
  <anchor x="588" y="8" name="bottom.virama"/>
  <anchor x="548" y="603" name="top"/>
  <anchor x="502" y="599" name="topright"/>
  <outline>
    <contour>
      <point x="596" y="303" type="line"/>
      <point x="667" y="368"/>
      <point x="727" y="448"/>
      <point x="725" y="565" type="curve" smooth="yes"/>
      <point x="724" y="755"/>
      <point x="572" y="776"/>
      <point x="438" y="795" type="curve" smooth="yes"/>
      <point x="330" y="810"/>
      <point x="235" y="823"/>
      <point x="235" y="915" type="curve" smooth="yes"/>
      <point x="235" y="943"/>
      <point x="242" y="974"/>
      <point x="255" y="1001" type="curve"/>
      <point x="198" y="1020" type="line"/>
      <point x="176" y="976"/>
      <point x="164" y="932"/>
      <point x="164" y="884" type="curve" smooth="yes"/>
      <point x="164" y="733"/>
      <point x="301" y="710"/>
      <point x="431" y="694" type="curve" smooth="yes"/>
      <point x="550" y="679"/>
      <point x="663" y="667"/>
      <point x="663" y="552" type="curve" smooth="yes"/>
      <point x="663" y="486"/>
      <point x="633" y="439"/>
      <point x="570" y="393" type="curve"/>
    </contour>
    <contour>
      <point x="599" y="-29" type="line"/>
      <point x="608" y="-27" type="line"/>
      <point x="608" y="488" type="line" smooth="yes"/>
      <point x="608" y="574"/>
      <point x="557" y="633"/>
      <point x="462" y="633" type="curve" smooth="yes"/>
      <point x="329" y="633"/>
      <point x="207" y="513"/>
      <point x="207" y="386" type="curve" smooth="yes"/>
      <point x="207" y="304"/>
      <point x="258" y="259"/>
      <point x="327" y="258" type="curve" smooth="yes"/>
      <point x="397" y="257"/>
      <point x="435" y="300"/>
      <point x="435" y="354" type="curve" smooth="yes"/>
      <point x="435" y="403"/>
      <point x="404" y="438"/>
      <point x="353" y="438" type="curve" smooth="yes"/>
      <point x="331" y="438"/>
      <point x="307" y="428"/>
      <point x="294" y="408" type="curve"/>
      <point x="352" y="403" type="line"/>
      <point x="352" y="468"/>
      <point x="414" y="554"/>
      <point x="472" y="554" type="curve" smooth="yes"/>
      <point x="507" y="554"/>
      <point x="518" y="532"/>
      <point x="518" y="498" type="curve" smooth="yes"/>
      <point x="518" y="235" type="line" smooth="yes"/>
      <point x="518" y="187"/>
      <point x="522" y="128"/>
      <point x="529" y="91" type="curve"/>
      <point x="485" y="173"/>
      <point x="443" y="191"/>
      <point x="378" y="191" type="curve" smooth="yes"/>
      <point x="327" y="191"/>
      <point x="289" y="182"/>
      <point x="228" y="182" type="curve" smooth="yes"/>
      <point x="157" y="182"/>
      <point x="100" y="221"/>
      <point x="100" y="307" type="curve" smooth="yes"/>
      <point x="100" y="332"/>
      <point x="103" y="359"/>
      <point x="110" y="388" type="curve"/>
      <point x="57" y="398" type="line"/>
      <point x="45" y="357"/>
      <point x="38" y="308"/>
      <point x="38" y="263" type="curve" smooth="yes"/>
      <point x="38" y="106"/>
      <point x="131" y="49"/>
      <point x="234" y="49" type="curve" smooth="yes"/>
      <point x="307" y="49"/>
      <point x="360" y="68"/>
      <point x="425" y="68" type="curve" smooth="yes"/>
      <point x="470" y="68"/>
      <point x="504" y="55"/>
      <point x="540" y="8" type="curve"/>
    </contour>
  </outline>
</glyph>
<glyph name="o-beng" format="2">
  <advance width="716"/>
  <unicode hex="0993"/>
  <anchor x="551" y="4" name="bottom"/>
  <anchor x="608" y="0" name="bottom.rakaar"/>
  <anchor x="535" y="29" name="bottom.rvocalic"/>
  <anchor x="474" y="6" name="bottom.virama"/>
  <anchor x="472" y="525" name="top"/>
  <anchor x="475" y="525" name="topright"/>
  <outline>
    <contour>
      <point x="442" y="31" type="curve" smooth="yes"/>
      <point x="589" y="31"/>
      <point x="677" y="113"/>
      <point x="677" y="228" type="curve" smooth="yes"/>
      <point x="677" y="346"/>
      <point x="565" y="428"/>
      <point x="489" y="428" type="curve" smooth="yes"/>
      <point x="440" y="428"/>
      <point x="406" y="394"/>
      <point x="406" y="343" type="curve" smooth="yes"/>
      <point x="406" y="293"/>
      <point x="439" y="259"/>
      <point x="493" y="259" type="curve" smooth="yes"/>
      <point x="578" y="259"/>
      <point x="650" y="364"/>
      <point x="650" y="468" type="curve" smooth="yes"/>
      <point x="650" y="562"/>
      <point x="582" y="630"/>
      <point x="460" y="630" type="curve" smooth="yes"/>
      <point x="308" y="630"/>
      <point x="186" y="534"/>
      <point x="186" y="418" type="curve" smooth="yes"/>
      <point x="186" y="347"/>
      <point x="231" y="309"/>
      <point x="288" y="309" type="curve" smooth="yes"/>
      <point x="347" y="309"/>
      <point x="381" y="344"/>
      <point x="381" y="398" type="curve" smooth="yes"/>
      <point x="381" y="446"/>
      <point x="354" y="471"/>
      <point x="313" y="471" type="curve" smooth="yes"/>
      <point x="286" y="471"/>
      <point x="264" y="458"/>
      <point x="255" y="441" type="curve"/>
      <point x="332" y="416" type="line"/>
      <point x="335" y="495"/>
      <point x="414" y="557"/>
      <point x="492" y="557" type="curve" smooth="yes"/>
      <point x="541" y="557"/>
      <point x="561" y="535"/>
      <point x="561" y="504" type="curve" smooth="yes"/>
      <point x="561" y="462"/>
      <point x="532" y="421"/>
      <point x="485" y="402" type="curve"/>
      <point x="505" y="343" type="line"/>
      <point x="546" y="345"/>
      <point x="602" y="319"/>
      <point x="602" y="262" type="curve" smooth="yes"/>
      <point x="602" y="196"/>
      <point x="541" y="155"/>
      <point x="441" y="155" type="curve" smooth="yes"/>
      <point x="278" y="155"/>
      <point x="161" y="245"/>
      <point x="69" y="533" type="curve"/>
      <point x="14" y="518" type="line"/>
      <point x="92" y="185"/>
      <point x="242" y="31"/>
    </contour>
  </outline>
</glyph>
<glyph name="au-beng" format="2">
  <advance width="802"/>
  <unicode hex="0994"/>
  <anchor x="569" y="7" name="bottom"/>
  <anchor x="628" y="-1" name="bottom.rakaar"/>
  <anchor x="552" y="33" name="bottom.rvocalic"/>
  <anchor x="489" y="7" name="bottom.virama"/>
  <anchor x="596" y="603" name="top"/>
  <anchor x="535" y="599" name="topright"/>
  <outline>
    <contour>
      <point x="609" y="314" type="line"/>
      <point x="680" y="379"/>
      <point x="740" y="454"/>
      <point x="738" y="565" type="curve" smooth="yes"/>
      <point x="737" y="755"/>
      <point x="585" y="776"/>
      <point x="450" y="795" type="curve" smooth="yes"/>
      <point x="343" y="810"/>
      <point x="248" y="823"/>
      <point x="248" y="915" type="curve" smooth="yes"/>
      <point x="248" y="943"/>
      <point x="255" y="974"/>
      <point x="268" y="1001" type="curve"/>
      <point x="211" y="1020" type="line"/>
      <point x="189" y="976"/>
      <point x="177" y="932"/>
      <point x="177" y="884" type="curve" smooth="yes"/>
      <point x="177" y="733"/>
      <point x="314" y="710"/>
      <point x="444" y="694" type="curve" smooth="yes"/>
      <point x="563" y="679"/>
      <point x="676" y="664"/>
      <point x="676" y="550" type="curve" smooth="yes"/>
      <point x="676" y="479"/>
      <point x="645" y="436"/>
      <point x="583" y="389" type="curve"/>
    </contour>
    <contour>
      <point x="442" y="31" type="curve" smooth="yes"/>
      <point x="589" y="31"/>
      <point x="677" y="113"/>
      <point x="677" y="228" type="curve" smooth="yes"/>
      <point x="677" y="346"/>
      <point x="565" y="428"/>
      <point x="489" y="428" type="curve" smooth="yes"/>
      <point x="440" y="428"/>
      <point x="406" y="394"/>
      <point x="406" y="343" type="curve" smooth="yes"/>
      <point x="406" y="293"/>
      <point x="439" y="259"/>
      <point x="493" y="259" type="curve" smooth="yes"/>
      <point x="578" y="259"/>
      <point x="650" y="364"/>
      <point x="650" y="468" type="curve" smooth="yes"/>
      <point x="650" y="562"/>
      <point x="582" y="630"/>
      <point x="460" y="630" type="curve" smooth="yes"/>
      <point x="308" y="630"/>
      <point x="186" y="534"/>
      <point x="186" y="418" type="curve" smooth="yes"/>
      <point x="186" y="347"/>
      <point x="231" y="309"/>
      <point x="288" y="309" type="curve" smooth="yes"/>
      <point x="347" y="309"/>
      <point x="381" y="344"/>
      <point x="381" y="398" type="curve" smooth="yes"/>
      <point x="381" y="446"/>
      <point x="354" y="471"/>
      <point x="313" y="471" type="curve" smooth="yes"/>
      <point x="286" y="471"/>
      <point x="264" y="458"/>
      <point x="255" y="441" type="curve"/>
      <point x="332" y="416" type="line"/>
      <point x="335" y="495"/>
      <point x="414" y="557"/>
      <point x="492" y="557" type="curve" smooth="yes"/>
      <point x="541" y="557"/>
      <point x="561" y="535"/>
      <point x="561" y="504" type="curve" smooth="yes"/>
      <point x="561" y="462"/>
      <point x="532" y="421"/>
      <point x="485" y="402" type="curve"/>
      <point x="505" y="343" type="line"/>
      <point x="546" y="345"/>
      <point x="602" y="319"/>
      <point x="602" y="262" type="curve" smooth="yes"/>
      <point x="602" y="196"/>
      <point x="541" y="155"/>
      <point x="441" y="155" type="curve" smooth="yes"/>
      <point x="278" y="155"/>
      <point x="161" y="245"/>
      <point x="69" y="533" type="curve"/>
      <point x="14" y="518" type="line"/>
      <point x="92" y="185"/>
      <point x="242" y="31"/>
    </contour>
  </outline>
</glyph>
<glyph name="kha-beng" format="2">
  <advance width="648"/>
  <unicode hex="0996"/>
  <anchor x="559" y="34" name="bottom"/>
  <anchor x="568" y="87" name="bottom.rakaar"/>
  <anchor x="568" y="11" name="bottom.rvocalic"/>
  <anchor x="548" y="14" name="bottom.virama"/>
  <anchor x="545" y="573" name="top"/>
  <anchor x="526" y="564" name="topright"/>
  <outline>
    <contour>
      <point x="559" y="-24" type="line"/>
      <point x="568" y="-22" type="line"/>
      <point x="568" y="550" type="line"/>
      <point x="683" y="550" type="line"/>
      <point x="640" y="622" type="line"/>
      <point x="561" y="622" type="line"/>
      <point x="553" y="677" type="line"/>
      <point x="485" y="713" type="line"/>
      <point x="478" y="710" type="line"/>
      <point x="478" y="76" type="line"/>
      <point x="492" y="93" type="line"/>
      <point x="436" y="206"/>
      <point x="354" y="262"/>
      <point x="262" y="293" type="curve"/>
      <point x="272" y="255" type="line"/>
      <point x="378" y="278"/>
      <point x="430" y="333"/>
      <point x="430" y="433" type="curve" smooth="yes"/>
      <point x="430" y="533"/>
      <point x="359" y="595"/>
      <point x="305" y="632" type="curve"/>
      <point x="253" y="556"/>
      <point x="197" y="507"/>
      <point x="139" y="507" type="curve" smooth="yes"/>
      <point x="127" y="507"/>
      <point x="114" y="509"/>
      <point x="107" y="513" type="curve"/>
      <point x="146" y="474" type="line"/>
      <point x="166" y="491"/>
      <point x="173" y="507"/>
      <point x="173" y="535" type="curve" smooth="yes"/>
      <point x="173" y="571"/>
      <point x="148" y="603"/>
      <point x="98" y="603" type="curve" smooth="yes"/>
      <point x="49" y="603"/>
      <point x="18" y="571"/>
      <point x="18" y="521" type="curve" smooth="yes"/>
      <point x="18" y="442"/>
      <point x="74" y="404"/>
      <point x="141" y="404" type="curve" smooth="yes"/>
      <point x="215" y="404"/>
      <point x="295" y="444"/>
      <point x="348" y="532" type="curve"/>
      <point x="303" y="540" type="line"/>
      <point x="326" y="519"/>
      <point x="342" y="495"/>
      <point x="342" y="464" type="curve" smooth="yes"/>
      <point x="342" y="379"/>
      <point x="243" y="343"/>
      <point x="117" y="343" type="curve"/>
      <point x="167" y="203" type="line"/>
      <point x="305" y="190"/>
      <point x="422" y="126"/>
      <point x="490" y="18" type="curve"/>
    </contour>
  </outline>
</glyph>
<glyph name="gha-beng" format="2">
  <advance width="570"/>
  <unicode hex="0998"/>
  <anchor x="483" y="34" name="bottom"/>
  <anchor x="491" y="87" name="bottom.rakaar"/>
  <anchor x="491" y="11" name="bottom.rvocalic"/>
  <anchor x="471" y="14" name="bottom.virama"/>
  <anchor x="470" y="583" name="top"/>
  <anchor x="472" y="571" name="topright"/>
  <outline>
    <contour>
      <point x="482" y="-24" type="line"/>
      <point x="491" y="-22" type="line"/>
      <point x="491" y="550" type="line"/>
      <point x="605" y="550" type="line"/>
      <point x="563" y="622" type="line"/>
      <point x="-35" y="622" type="line"/>
      <point x="7" y="550" type="line"/>
      <point x="401" y="550" type="line"/>
      <point x="401" y="76" type="line"/>
      <point x="415" y="93" type="line"/>
      <point x="347" y="223"/>
      <point x="243" y="267"/>
      <point x="126" y="293" type="curve"/>
      <point x="155" y="252" type="line"/>
      <point x="209" y="292"/>
      <point x="290" y="329"/>
      <point x="369" y="363" type="curve"/>
      <point x="315" y="467" type="line"/>
      <point x="288" y="449"/>
      <point x="260" y="439"/>
      <point x="229" y="439" type="curve" smooth="yes"/>
      <point x="191" y="439"/>
      <point x="168" y="460"/>
      <point x="168" y="492" type="curve" smooth="yes"/>
      <point x="168" y="529"/>
      <point x="193" y="550"/>
      <point x="228" y="561" type="curve"/>
      <point x="100" y="608" type="line"/>
      <point x="71" y="593"/>
      <point x="34" y="562"/>
      <point x="34" y="509" type="curve" smooth="yes"/>
      <point x="34" y="431"/>
      <point x="106" y="396"/>
      <point x="180" y="390" type="curve"/>
      <point x="187" y="414" type="line"/>
      <point x="142" y="394"/>
      <point x="84" y="366"/>
      <point x="38" y="337" type="curve"/>
      <point x="96" y="196" type="line"/>
      <point x="224" y="186"/>
      <point x="346" y="125"/>
      <point x="413" y="18" type="curve"/>
    </contour>
  </outline>
</glyph>
<glyph name="nya-beng" format="2">
  <advance width="968"/>
  <unicode hex="099E"/>
  <anchor x="600" y="29" name="bottom"/>
  <anchor x="684" y="82" name="bottom.rakaar"/>
  <anchor x="608" y="5" name="bottom.rvocalic"/>
  <anchor x="588" y="9" name="bottom.virama"/>
  <anchor x="518" y="583" name="top"/>
  <anchor x="520" y="571" name="topright"/>
  <anchor x="484" y="0" name="vedic"/>
  <outline>
    <contour>
      <point x="767" y="35" type="curve" smooth="yes"/>
      <point x="861" y="35"/>
      <point x="910" y="105"/>
      <point x="910" y="189" type="curve" smooth="yes"/>
      <point x="910" y="246"/>
      <point x="888" y="302"/>
      <point x="838" y="342" type="curve"/>
      <point x="855" y="295" type="line"/>
      <point x="885" y="325"/>
      <point x="908" y="378"/>
      <point x="908" y="442" type="curve" smooth="yes"/>
      <point x="908" y="533"/>
      <point x="858" y="605"/>
      <point x="775" y="605" type="curve" smooth="yes"/>
      <point x="656" y="605"/>
      <point x="583" y="459"/>
      <point x="574" y="375" type="curve"/>
      <point x="574" y="269" type="line"/>
      <point x="592" y="145"/>
      <point x="665" y="35"/>
    </contour>
    <contour>
      <point x="760" y="146" type="curve" smooth="yes"/>
      <point x="683" y="146"/>
      <point x="612" y="221"/>
      <point x="612" y="317" type="curve" smooth="yes"/>
      <point x="612" y="403"/>
      <point x="676" y="503"/>
      <point x="768" y="503" type="curve" smooth="yes"/>
      <point x="806" y="503"/>
      <point x="831" y="487"/>
      <point x="831" y="452" type="curve" smooth="yes"/>
      <point x="831" y="414"/>
      <point x="798" y="381"/>
      <point x="759" y="365" type="curve"/>
      <point x="817" y="356" type="line"/>
      <point x="797" y="380"/>
      <point x="772" y="396"/>
      <point x="739" y="396" type="curve" smooth="yes"/>
      <point x="694" y="396"/>
      <point x="664" y="365"/>
      <point x="664" y="318" type="curve" smooth="yes"/>
      <point x="664" y="268"/>
      <point x="698" y="238"/>
      <point x="744" y="238" type="curve" smooth="yes"/>
      <point x="785" y="238"/>
      <point x="815" y="255"/>
      <point x="841" y="285" type="curve"/>
      <point x="795" y="309" type="line"/>
      <point x="816" y="291"/>
      <point x="842" y="265"/>
      <point x="842" y="224" type="curve" smooth="yes"/>
      <point x="842" y="174"/>
      <point x="812" y="146"/>
    </contour>
    <component base="e-beng"/>
  </outline>
</glyph>
<glyph name="tta-beng" format="2">
  <advance width="548"/>
  <unicode hex="099F"/>
  <anchor x="357" y="7" name="bottom"/>
  <anchor x="428" y="2" name="bottom.rakaar"/>
  <anchor x="358" y="15" name="bottom.rvocalic"/>
  <anchor x="294" y="29" name="bottom.virama"/>
  <anchor x="241" y="-100" name="nukta"/>
  <anchor x="300" y="683" name="top"/>
  <anchor x="210" y="636" name="topright"/>
  <outline>
    <contour>
      <point x="407" y="598" type="curve"/>
      <point x="467" y="598" type="line"/>
      <point x="463" y="739"/>
      <point x="412" y="820"/>
      <point x="312" y="820" type="curve" smooth="yes"/>
      <point x="258" y="820"/>
      <point x="222" y="811"/>
      <point x="169" y="811" type="curve" smooth="yes"/>
      <point x="98" y="811"/>
      <point x="66" y="834"/>
      <point x="66" y="891" type="curve" smooth="yes"/>
      <point x="66" y="903"/>
      <point x="67" y="917"/>
      <point x="69" y="928" type="curve"/>
      <point x="18" y="933" type="line"/>
      <point x="13" y="912"/>
      <point x="10" y="885"/>
      <point x="10" y="861" type="curve" smooth="yes"/>
      <point x="10" y="764"/>
      <point x="63" y="694"/>
      <point x="177" y="694" type="curve" smooth="yes"/>
      <point x="239" y="694"/>
      <point x="283" y="705"/>
      <point x="326" y="705" type="curve" smooth="yes"/>
      <point x="378" y="705"/>
      <point x="407" y="682"/>
    </contour>
    <contour>
      <point x="237" y="8" type="curve" smooth="yes"/>
      <point x="388" y="8"/>
      <point x="508" y="177"/>
      <point x="508" y="318" type="curve" smooth="yes"/>
      <point x="508" y="418"/>
      <point x="451" y="460"/>
      <point x="386" y="460" type="curve" smooth="yes"/>
      <point x="318" y="460"/>
      <point x="277" y="414"/>
      <point x="277" y="360" type="curve" smooth="yes"/>
      <point x="277" y="303"/>
      <point x="312" y="263"/>
      <point x="371" y="263" type="curve" smooth="yes"/>
      <point x="398" y="263"/>
      <point x="417" y="276"/>
      <point x="434" y="297" type="curve"/>
      <point x="381" y="332" type="line"/>
      <point x="376" y="206"/>
      <point x="288" y="108"/>
      <point x="218" y="108" type="curve" smooth="yes"/>
      <point x="190" y="108"/>
      <point x="169" y="125"/>
      <point x="169" y="155" type="curve" smooth="yes"/>
      <point x="169" y="550" type="line"/>
      <point x="583" y="550" type="line"/>
      <point x="542" y="622" type="line"/>
      <point x="-35" y="622" type="line"/>
      <point x="9" y="550" type="line"/>
      <point x="80" y="550" type="line"/>
      <point x="80" y="155" type="line" smooth="yes"/>
      <point x="80" y="70"/>
      <point x="156" y="8"/>
    </contour>
  </outline>
</glyph>
<glyph name="dda-beng" format="2">
  <advance width="638"/>
  <unicode hex="09A1"/>
  <anchor x="454" y="-1" name="bottom"/>
  <anchor x="553" y="-9" name="bottom.rakaar"/>
  <anchor x="460" y="3" name="bottom.rvocalic"/>
  <anchor x="413" y="-1" name="bottom.virama"/>
  <anchor x="343" y="-108" name="nukta"/>
  <anchor x="303" y="583" name="top"/>
  <anchor x="304" y="571" name="topright"/>
  <outline>
    <contour>
      <point x="375" y="5" type="curve" smooth="yes"/>
      <point x="531" y="5"/>
      <point x="609" y="106"/>
      <point x="609" y="246" type="curve" smooth="yes"/>
      <point x="609" y="352"/>
      <point x="566" y="430"/>
      <point x="507" y="482" type="curve"/>
      <point x="455" y="409"/>
      <point x="399" y="363"/>
      <point x="357" y="363" type="curve" smooth="yes"/>
      <point x="338" y="363"/>
      <point x="323" y="370"/>
      <point x="323" y="393" type="curve" smooth="yes"/>
      <point x="323" y="550" type="line"/>
      <point x="673" y="550" type="line"/>
      <point x="630" y="622" type="line"/>
      <point x="-35" y="622" type="line"/>
      <point x="8" y="550" type="line"/>
      <point x="233" y="550" type="line"/>
      <point x="233" y="376" type="line" smooth="yes"/>
      <point x="233" y="330"/>
      <point x="249" y="300"/>
      <point x="275" y="275" type="curve" smooth="yes"/>
      <point x="300" y="251"/>
      <point x="333" y="236"/>
      <point x="373" y="236" type="curve" smooth="yes"/>
      <point x="435" y="236"/>
      <point x="510" y="285"/>
      <point x="558" y="358" type="curve"/>
      <point x="500" y="355" type="line"/>
      <point x="524" y="335"/>
      <point x="539" y="307"/>
      <point x="539" y="267" type="curve" smooth="yes"/>
      <point x="539" y="192"/>
      <point x="480" y="135"/>
      <point x="374" y="135" type="curve" smooth="yes"/>
      <point x="205" y="135"/>
      <point x="128" y="257"/>
      <point x="77" y="482" type="curve"/>
      <point x="19" y="470" type="line"/>
      <point x="70" y="167"/>
      <point x="179" y="5"/>
    </contour>
  </outline>
</glyph>
<glyph name="ddha-beng" format="2">
  <advance width="548"/>
  <unicode hex="09A2"/>
  <anchor x="359" y="7" name="bottom"/>
  <anchor x="428" y="2" name="bottom.rakaar"/>
  <anchor x="358" y="14" name="bottom.rvocalic"/>
  <anchor x="294" y="29" name="bottom.virama"/>
  <anchor x="241" y="-100" name="nukta"/>
  <anchor x="149" y="583" name="top"/>
  <anchor x="151" y="571" name="topright"/>
  <outline>
    <contour>
      <point x="237" y="8" type="curve" smooth="yes"/>
      <point x="388" y="8"/>
      <point x="508" y="177"/>
      <point x="508" y="318" type="curve" smooth="yes"/>
      <point x="508" y="418"/>
      <point x="451" y="460"/>
      <point x="386" y="460" type="curve" smooth="yes"/>
      <point x="318" y="460"/>
      <point x="277" y="414"/>
      <point x="277" y="360" type="curve" smooth="yes"/>
      <point x="277" y="303"/>
      <point x="312" y="263"/>
      <point x="371" y="263" type="curve" smooth="yes"/>
      <point x="398" y="263"/>
      <point x="417" y="276"/>
      <point x="434" y="297" type="curve"/>
      <point x="381" y="332" type="line"/>
      <point x="376" y="206"/>
      <point x="288" y="108"/>
      <point x="218" y="108" type="curve" smooth="yes"/>
      <point x="190" y="108"/>
      <point x="169" y="125"/>
      <point x="169" y="155" type="curve" smooth="yes"/>
      <point x="169" y="550" type="line"/>
      <point x="583" y="550" type="line"/>
      <point x="542" y="622" type="line"/>
      <point x="-35" y="622" type="line"/>
      <point x="9" y="550" type="line"/>
      <point x="80" y="550" type="line"/>
      <point x="80" y="155" type="line" smooth="yes"/>
      <point x="80" y="70"/>
      <point x="156" y="8"/>
    </contour>
  </outline>
</glyph>
<glyph name="ta-beng" format="2">
  <advance width="642"/>
  <unicode hex="09A4"/>
  <anchor x="471" y="9" name="bottom"/>
  <anchor x="554" y="0" name="bottom.rakaar"/>
  <anchor x="481" y="12" name="bottom.rvocalic"/>
  <anchor x="414" y="9" name="bottom.virama"/>
  <anchor x="389" y="583" name="top"/>
  <anchor x="390" y="571" name="topright"/>
  <outline>
    <contour>
      <point x="386" y="15" type="curve" smooth="yes"/>
      <point x="510" y="15"/>
      <point x="612" y="83"/>
      <point x="612" y="247" type="curve" smooth="yes"/>
      <point x="612" y="390"/>
      <point x="521" y="505"/>
      <point x="362" y="505" type="curve" smooth="yes"/>
      <point x="266" y="505"/>
      <point x="215" y="450"/>
      <point x="215" y="373" type="curve" smooth="yes"/>
      <point x="215" y="305"/>
      <point x="258" y="249"/>
      <point x="337" y="249" type="curve" smooth="yes"/>
      <point x="408" y="249"/>
      <point x="446" y="295"/>
      <point x="446" y="356" type="curve" smooth="yes"/>
      <point x="446" y="398"/>
      <point x="424" y="431"/>
      <point x="407" y="447" type="curve"/>
      <point x="369" y="374" type="line"/>
      <point x="381" y="380"/>
      <point x="403" y="388"/>
      <point x="426" y="388" type="curve" smooth="yes"/>
      <point x="484" y="388"/>
      <point x="535" y="354"/>
      <point x="535" y="276" type="curve" smooth="yes"/>
      <point x="535" y="192"/>
      <point x="474" y="147"/>
      <point x="382" y="147" type="curve" smooth="yes"/>
      <point x="241" y="147"/>
      <point x="133" y="237"/>
      <point x="57" y="493" type="curve"/>
      <point x="1" y="478" type="line"/>
      <point x="78" y="162"/>
      <point x="191" y="15"/>
    </contour>
    <contour>
      <point x="6" y="550" type="line"/>
      <point x="677" y="550" type="line"/>
      <point x="634" y="622" type="line"/>
      <point x="-35" y="622" type="line"/>
    </contour>
  </outline>
</glyph>
<glyph name="tha-beng" format="2">
  <advance width="609"/>
  <unicode hex="09A5"/>
  <anchor x="522" y="34" name="bottom"/>
  <anchor x="530" y="87" name="bottom.rakaar"/>
  <anchor x="530" y="11" name="bottom.rvocalic"/>
  <anchor x="510" y="14" name="bottom.virama"/>
  <anchor x="506" y="573" name="top"/>
  <anchor x="488" y="564" name="topright"/>
  <outline>
    <contour>
      <point x="521" y="-24" type="line"/>
      <point x="530" y="-22" type="line"/>
      <point x="530" y="550" type="line"/>
      <point x="644" y="550" type="line"/>
      <point x="602" y="622" type="line"/>
      <point x="523" y="622" type="line"/>
      <point x="515" y="677" type="line"/>
      <point x="447" y="713" type="line"/>
      <point x="440" y="710" type="line"/>
      <point x="440" y="76" type="line"/>
      <point x="454" y="93" type="line"/>
      <point x="391" y="227"/>
      <point x="262" y="274"/>
      <point x="155" y="303" type="curve"/>
      <point x="191" y="253" type="line"/>
      <point x="323" y="265"/>
      <point x="384" y="329"/>
      <point x="384" y="432" type="curve" smooth="yes"/>
      <point x="384" y="549"/>
      <point x="294" y="625"/>
      <point x="185" y="625" type="curve" smooth="yes"/>
      <point x="87" y="625"/>
      <point x="28" y="576"/>
      <point x="28" y="506" type="curve" smooth="yes"/>
      <point x="28" y="437"/>
      <point x="69" y="404"/>
      <point x="122" y="404" type="curve" smooth="yes"/>
      <point x="174" y="404"/>
      <point x="204" y="434"/>
      <point x="204" y="480" type="curve" smooth="yes"/>
      <point x="204" y="513"/>
      <point x="190" y="535"/>
      <point x="163" y="549" type="curve"/>
      <point x="164" y="505" type="line"/>
      <point x="179" y="526"/>
      <point x="197" y="536"/>
      <point x="223" y="536" type="curve" smooth="yes"/>
      <point x="266" y="536"/>
      <point x="292" y="505"/>
      <point x="292" y="462" type="curve" smooth="yes"/>
      <point x="292" y="368"/>
      <point x="178" y="342"/>
      <point x="69" y="345" type="curve"/>
      <point x="121" y="199" type="line"/>
      <point x="260" y="186"/>
      <point x="384" y="127"/>
      <point x="452" y="18" type="curve"/>
    </contour>
  </outline>
</glyph>
<glyph name="da-beng" format="2">
  <advance width="551"/>
  <unicode hex="09A6"/>
  <anchor x="463" y="73" name="bottom"/>
  <anchor x="479" y="58" name="bottom.rakaar"/>
  <anchor x="479" y="-24" name="bottom.rvocalic"/>
  <anchor x="461" y="-26" name="bottom.virama"/>
  <anchor x="135" y="583" name="top"/>
  <anchor x="137" y="571" name="topright"/>
  <outline>
    <contour>
      <point x="427" y="-61" type="curve"/>
      <point x="479" y="-40" type="line"/>
      <point x="456" y="34"/>
      <point x="447" y="87"/>
      <point x="447" y="150" type="curve" smooth="yes"/>
      <point x="447" y="232"/>
      <point x="471" y="323"/>
      <point x="517" y="398" type="curve"/>
      <point x="401" y="496" type="line"/>
      <point x="300" y="442"/>
      <point x="196" y="362"/>
      <point x="131" y="291" type="curve"/>
      <point x="156" y="252" type="line"/>
      <point x="156" y="550" type="line"/>
      <point x="586" y="550" type="line"/>
      <point x="545" y="622" type="line"/>
      <point x="-35" y="622" type="line"/>
      <point x="7" y="550" type="line"/>
      <point x="66" y="550" type="line"/>
      <point x="66" y="196" type="line"/>
      <point x="154" y="131" type="line"/>
      <point x="246" y="226"/>
      <point x="339" y="310"/>
      <point x="439" y="374" type="curve"/>
      <point x="401" y="399" type="line"/>
      <point x="375" y="332"/>
      <point x="362" y="263"/>
      <point x="362" y="195" type="curve" smooth="yes"/>
      <point x="362" y="100"/>
      <point x="392" y="12"/>
    </contour>
  </outline>
</glyph>
<glyph name="pha-beng" format="2">
  <advance width="739"/>
  <unicode hex="09AB"/>
  <anchor x="487" y="34" name="bottom"/>
  <anchor x="495" y="87" name="bottom.rakaar"/>
  <anchor x="495" y="11" name="bottom.rvocalic"/>
  <anchor x="475" y="14" name="bottom.virama"/>
  <anchor x="475" y="583" name="top"/>
  <anchor x="477" y="571" name="topright"/>
  <outline>
    <contour>
      <point x="487" y="-24" type="line"/>
      <point x="495" y="-22" type="line"/>
      <point x="495" y="422" type="line"/>
      <point x="470" y="393" type="line"/>
      <point x="489" y="395"/>
      <point x="508" y="396"/>
      <point x="526" y="396" type="curve" smooth="yes"/>
      <point x="618" y="396"/>
      <point x="674" y="352"/>
      <point x="674" y="298" type="curve" smooth="yes"/>
      <point x="674" y="284"/>
      <point x="671" y="274"/>
      <point x="663" y="262" type="curve"/>
      <point x="682" y="260" type="line"/>
      <point x="676" y="302"/>
      <point x="651" y="324"/>
      <point x="610" y="324" type="curve" smooth="yes"/>
      <point x="567" y="324"/>
      <point x="537" y="294"/>
      <point x="537" y="248" type="curve" smooth="yes"/>
      <point x="537" y="203"/>
      <point x="565" y="165"/>
      <point x="621" y="165" type="curve" smooth="yes"/>
      <point x="685" y="165"/>
      <point x="726" y="218"/>
      <point x="726" y="303" type="curve" smooth="yes"/>
      <point x="726" y="438"/>
      <point x="600" y="516"/>
      <point x="467" y="516" type="curve" smooth="yes"/>
      <point x="442" y="516"/>
      <point x="428" y="515"/>
      <point x="406" y="512" type="curve"/>
      <point x="406" y="76" type="line"/>
      <point x="420" y="100" type="line"/>
      <point x="348" y="223"/>
      <point x="235" y="262"/>
      <point x="139" y="289" type="curve"/>
      <point x="153" y="231" type="line"/>
      <point x="210" y="274"/>
      <point x="289" y="317"/>
      <point x="358" y="354" type="curve"/>
      <point x="308" y="446"/>
      <point x="234" y="515"/>
      <point x="106" y="572" type="curve"/>
      <point x="105" y="550" type="line"/>
      <point x="774" y="550" type="line"/>
      <point x="732" y="622" type="line"/>
      <point x="-35" y="622" type="line"/>
      <point x="53" y="465" type="line"/>
      <point x="130" y="455"/>
      <point x="203" y="434"/>
      <point x="250" y="395" type="curve"/>
      <point x="243" y="433" type="line"/>
      <point x="188" y="412"/>
      <point x="93" y="359"/>
      <point x="45" y="325" type="curve"/>
      <point x="105" y="187" type="line"/>
      <point x="239" y="172"/>
      <point x="349" y="118"/>
      <point x="417" y="19" type="curve"/>
    </contour>
  </outline>
</glyph>
<glyph name="ba-beng" format="2">
  <advance width="546"/>
  <unicode hex="09AC"/>
  <anchor x="458" y="34" name="bottom"/>
  <anchor x="466" y="87" name="bottom.rakaar"/>
  <anchor x="466" y="10" name="bottom.rvocalic"/>
  <anchor x="446" y="14" name="bottom.virama"/>
  <anchor x="221" y="42" name="nukta"/>
  <anchor x="445" y="583" name="top"/>
  <anchor x="447" y="571" name="topright"/>
  <outline>
    <contour>
      <point x="457" y="-24" type="line"/>
      <point x="466" y="-22" type="line"/>
      <point x="466" y="550" type="line"/>
      <point x="581" y="550" type="line"/>
      <point x="538" y="622" type="line"/>
      <point x="-35" y="622" type="line"/>
      <point x="7" y="550" type="line"/>
      <point x="376" y="550" type="line"/>
      <point x="376" y="471" type="line"/>
      <point x="386" y="518" type="line"/>
      <point x="250" y="481"/>
      <point x="125" y="424"/>
      <point x="12" y="351" type="curve"/>
      <point x="67" y="204" type="line"/>
      <point x="206" y="188"/>
      <point x="316" y="128"/>
      <point x="388" y="19" type="curve"/>
    </contour>
    <contour>
      <point x="376" y="81" type="line"/>
      <point x="390" y="102" type="line"/>
      <point x="330" y="217"/>
      <point x="230" y="275"/>
      <point x="142" y="297" type="curve"/>
      <point x="150" y="274" type="line"/>
      <point x="221" y="320"/>
      <point x="314" y="363"/>
      <point x="393" y="387" type="curve"/>
      <point x="376" y="422" type="line"/>
    </contour>
  </outline>
</glyph>
<glyph name="ya-beng" format="2">
  <advance width="575"/>
  <unicode hex="09AF"/>
  <anchor x="487" y="34" name="bottom"/>
  <anchor x="495" y="87" name="bottom.rakaar"/>
  <anchor x="495" y="11" name="bottom.rvocalic"/>
  <anchor x="475" y="14" name="bottom.virama"/>
  <anchor x="251" y="42" name="nukta"/>
  <anchor x="475" y="583" name="top"/>
  <anchor x="477" y="571" name="topright"/>
  <outline>
    <contour>
      <point x="487" y="-24" type="line"/>
      <point x="495" y="-22" type="line"/>
      <point x="495" y="550" type="line"/>
      <point x="610" y="550" type="line"/>
      <point x="567" y="622" type="line"/>
      <point x="-35" y="622" type="line"/>
      <point x="52" y="466" type="line"/>
      <point x="133" y="457"/>
      <point x="203" y="434"/>
      <point x="250" y="395" type="curve"/>
      <point x="243" y="433" type="line"/>
      <point x="188" y="412"/>
      <point x="91" y="358"/>
      <point x="45" y="325" type="curve"/>
      <point x="105" y="187" type="line"/>
      <point x="239" y="171"/>
      <point x="349" y="118"/>
      <point x="417" y="19" type="curve"/>
    </contour>
    <contour>
      <point x="406" y="76" type="line"/>
      <point x="420" y="100" type="line"/>
      <point x="349" y="223"/>
      <point x="235" y="262"/>
      <point x="139" y="289" type="curve"/>
      <point x="153" y="231" type="line"/>
      <point x="208" y="273"/>
      <point x="289" y="318"/>
      <point x="358" y="353" type="curve"/>
      <point x="305" y="449"/>
      <point x="234" y="515"/>
      <point x="106" y="572" type="curve"/>
      <point x="105" y="550" type="line"/>
      <point x="406" y="550" type="line"/>
    </contour>
  </outline>
</glyph>
<glyph name="la-beng" format="2">
  <advance width="681"/>
  <unicode hex="09B2"/>
  <anchor x="582" y="57" name="bottom"/>
  <anchor x="601" y="-15" name="bottom.rakaar"/>
  <anchor x="601" y="-3" name="bottom.rvocalic"/>
  <anchor x="569" y="8" name="bottom.virama"/>
  <anchor x="581" y="583" name="top"/>
  <anchor x="582" y="571" name="topright"/>
  <outline>
    <contour>
      <point x="593" y="-35" type="line"/>
      <point x="601" y="-33" type="line"/>
      <point x="601" y="550" type="line"/>
      <point x="716" y="550" type="line"/>
      <point x="672" y="622" type="line"/>
      <point x="-35" y="622" type="line"/>
      <point x="7" y="550" type="line"/>
      <point x="511" y="550" type="line"/>
      <point x="511" y="452" type="line" smooth="yes"/>
      <point x="511" y="395"/>
      <point x="517" y="352"/>
      <point x="524" y="302" type="curve"/>
      <point x="531" y="306" type="line"/>
      <point x="495" y="416"/>
      <point x="452" y="481"/>
      <point x="392" y="481" type="curve" smooth="yes"/>
      <point x="344" y="481"/>
      <point x="305" y="430"/>
      <point x="310" y="343" type="curve"/>
      <point x="327" y="347" type="line"/>
      <point x="310" y="424"/>
      <point x="255" y="486"/>
      <point x="167" y="486" type="curve" smooth="yes"/>
      <point x="78" y="486"/>
      <point x="11" y="419"/>
      <point x="11" y="303" type="curve" smooth="yes"/>
      <point x="11" y="175"/>
      <point x="88" y="93"/>
      <point x="195" y="93" type="curve" smooth="yes"/>
      <point x="259" y="93"/>
      <point x="298" y="128"/>
      <point x="298" y="188" type="curve" smooth="yes"/>
      <point x="298" y="243"/>
      <point x="264" y="280"/>
      <point x="210" y="280" type="curve" smooth="yes"/>
      <point x="166" y="280"/>
      <point x="132" y="248"/>
      <point x="132" y="199" type="curve" smooth="yes"/>
      <point x="132" y="177"/>
      <point x="138" y="158"/>
      <point x="149" y="145" type="curve"/>
      <point x="191" y="180" type="line"/>
      <point x="180" y="178"/>
      <point x="167" y="177"/>
      <point x="157" y="177" type="curve" smooth="yes"/>
      <point x="125" y="177"/>
      <point x="100" y="209"/>
      <point x="100" y="257" type="curve" smooth="yes"/>
      <point x="100" y="315"/>
      <point x="136" y="351"/>
      <point x="203" y="351" type="curve" smooth="yes"/>
      <point x="264" y="351"/>
      <point x="314" y="322"/>
      <point x="338" y="258" type="curve"/>
      <point x="369" y="249" type="line"/>
      <point x="367" y="312"/>
      <point x="391" y="341"/>
      <point x="425" y="341" type="curve" smooth="yes"/>
      <point x="463" y="341"/>
      <point x="496" y="310"/>
      <point x="519" y="216" type="curve"/>
      <point x="511" y="280" type="line"/>
      <point x="511" y="1" type="line"/>
    </contour>
  </outline>
</glyph>
<glyph name="ssa-beng" format="2">
  <advance width="577"/>
  <unicode hex="09B7"/>
  <anchor x="489" y="34" name="bottom"/>
  <anchor x="497" y="87" name="bottom.rakaar"/>
  <anchor x="497" y="11" name="bottom.rvocalic"/>
  <anchor x="477" y="14" name="bottom.virama"/>
  <anchor x="477" y="583" name="top"/>
  <anchor x="479" y="571" name="topright"/>
  <outline>
    <contour>
      <point x="489" y="-24" type="line"/>
      <point x="497" y="-22" type="line"/>
      <point x="497" y="550" type="line"/>
      <point x="612" y="550" type="line"/>
      <point x="570" y="622" type="line"/>
      <point x="-35" y="622" type="line"/>
      <point x="52" y="466" type="line"/>
      <point x="194" y="456"/>
      <point x="323" y="369"/>
      <point x="432" y="254" type="curve"/>
      <point x="453" y="302" type="line"/>
      <point x="400" y="375"/>
      <point x="239" y="523"/>
      <point x="95" y="578" type="curve"/>
      <point x="95" y="550" type="line"/>
      <point x="408" y="550" type="line"/>
      <point x="408" y="76" type="line"/>
      <point x="422" y="92" type="line"/>
      <point x="353" y="215"/>
      <point x="230" y="266"/>
      <point x="139" y="289" type="curve"/>
      <point x="154" y="231" type="line"/>
      <point x="211" y="274"/>
      <point x="287" y="315"/>
      <point x="360" y="354" type="curve"/>
      <point x="251" y="431" type="line"/>
      <point x="193" y="410"/>
      <point x="93" y="357"/>
      <point x="47" y="324" type="curve"/>
      <point x="111" y="187" type="line"/>
      <point x="241" y="172"/>
      <point x="352" y="117"/>
      <point x="420" y="18" type="curve"/>
    </contour>
  </outline>
</glyph>
<glyph name="nukta-beng" format="2">
  <unicode hex="09BC"/>
  <anchor x="0" y="-132" name="_nukta"/>
  <outline>
    <contour>
      <point x="0" y="-206" type="curve" smooth="yes"/>
      <point x="40" y="-206"/>
      <point x="75" y="-177"/>
      <point x="75" y="-132" type="curve" smooth="yes"/>
      <point x="75" y="-87"/>
      <point x="41" y="-57"/>
      <point x="0" y="-57" type="curve" smooth="yes"/>
      <point x="-42" y="-57"/>
      <point x="-76" y="-87"/>
      <point x="-76" y="-132" type="curve" smooth="yes"/>
      <point x="-76" y="-176"/>
      <point x="-41" y="-206"/>
    </contour>
  </outline>
</glyph>
<glyph name="iMatra-beng" format="2">
  <advance width="249"/>
  <unicode hex="09BF"/>
  <anchor x="714" y="583" name="top"/>
  <anchor x="589" y="593" name="topright"/>
  <outline>
    <contour>
      <point x="162" y="-35" type="line"/>
      <point x="169" y="-33" type="line"/>
      <point x="169" y="550" type="line"/>
      <point x="285" y="550" type="line"/>
      <point x="242" y="622" type="line"/>
      <point x="158" y="622" type="line"/>
      <point x="142" y="644"/>
      <point x="128" y="667"/>
      <point x="114" y="690" type="curve"/>
      <point x="143" y="757"/>
      <point x="233" y="821"/>
      <point x="331" y="821" type="curve" smooth="yes"/>
      <point x="428" y="821"/>
      <point x="528" y="776"/>
      <point x="644" y="671" type="curve"/>
      <point x="684" y="707" type="line"/>
      <point x="592" y="812"/>
      <point x="450" y="923"/>
      <point x="300" y="923" type="curve" smooth="yes"/>
      <point x="165" y="923"/>
      <point x="40" y="839"/>
      <point x="-16" y="717" type="curve"/>
      <point x="13" y="683"/>
      <point x="48" y="650"/>
      <point x="77" y="622" type="curve"/>
      <point x="-35" y="622" type="line"/>
      <point x="7" y="550" type="line"/>
      <point x="80" y="550" type="line"/>
      <point x="80" y="1" type="line"/>
    </contour>
  </outline>
</glyph>
<glyph name="iiMatra-beng" format="2">
  <advance width="249"/>
  <unicode hex="09C0"/>
  <anchor x="149" y="678" name="top"/>
  <anchor x="-2" y="573" name="topright"/>
  <outline>
    <contour>
      <point x="162" y="-35" type="line"/>
      <point x="169" y="-33" type="line"/>
      <point x="169" y="550" type="line"/>
      <point x="284" y="550" type="line"/>
      <point x="241" y="622" type="line"/>
      <point x="165" y="622" type="line"/>
      <point x="145" y="816"/>
      <point x="-8" y="939"/>
      <point x="-251" y="939" type="curve" smooth="yes"/>
      <point x="-443" y="939"/>
      <point x="-525" y="871"/>
      <point x="-525" y="795" type="curve" smooth="yes"/>
      <point x="-525" y="714"/>
      <point x="-464" y="683"/>
      <point x="-389" y="683" type="curve" smooth="yes"/>
      <point x="-325" y="683"/>
      <point x="-287" y="699"/>
      <point x="-238" y="699" type="curve" smooth="yes"/>
      <point x="-197" y="699"/>
      <point x="-169" y="684"/>
      <point x="-169" y="616" type="curve"/>
      <point x="-83" y="616" type="line"/>
      <point x="-86" y="652" type="line" smooth="yes"/>
      <point x="-95" y="739"/>
      <point x="-167" y="786"/>
      <point x="-254" y="786" type="curve" smooth="yes"/>
      <point x="-310" y="786"/>
      <point x="-357" y="777"/>
      <point x="-406" y="777" type="curve" smooth="yes"/>
      <point x="-447" y="777"/>
      <point x="-461" y="784"/>
      <point x="-461" y="800" type="curve" smooth="yes"/>
      <point x="-461" y="828"/>
      <point x="-402" y="843"/>
      <point x="-257" y="843" type="curve" smooth="yes"/>
      <point x="-64" y="843"/>
      <point x="80" y="787"/>
      <point x="83" y="622" type="curve"/>
      <point x="-35" y="622" type="line"/>
      <point x="7" y="550" type="line"/>
      <point x="80" y="550" type="line"/>
      <point x="80" y="1" type="line"/>
    </contour>
  </outline>
</glyph>
<glyph name="uMatra-beng" format="2">
  <unicode hex="09C1"/>
  <anchor x="0" y="0" name="_bottom"/>
  <outline>
    <contour>
      <point x="172" y="-300" type="curve"/>
      <point x="215" y="-274" type="line"/>
      <point x="152" y="-153"/>
      <point x="16" y="-31"/>
      <point x="-138" y="-31" type="curve" smooth="yes"/>
      <point x="-232" y="-31"/>
      <point x="-287" y="-81"/>
      <point x="-287" y="-153" type="curve" smooth="yes"/>
      <point x="-287" y="-226"/>
      <point x="-231" y="-275"/>
      <point x="-152" y="-275" type="curve" smooth="yes"/>
      <point x="-46" y="-275"/>
      <point x="12" y="-195"/>
      <point x="12" y="-104" type="curve" smooth="yes"/>
      <point x="12" y="-43"/>
      <point x="0" y="11"/>
      <point x="-17" y="52" type="curve"/>
      <point x="-86" y="32" type="line"/>
      <point x="-76" y="7"/>
      <point x="-66" y="-36"/>
      <point x="-66" y="-69" type="curve" smooth="yes"/>
      <point x="-66" y="-163"/>
      <point x="-108" y="-192"/>
      <point x="-158" y="-192" type="curve" smooth="yes"/>
      <point x="-193" y="-192"/>
      <point x="-212" y="-177"/>
      <point x="-212" y="-152" type="curve" smooth="yes"/>
      <point x="-212" y="-127"/>
      <point x="-194" y="-111"/>
      <point x="-152" y="-111" type="curve" smooth="yes"/>
      <point x="-13" y="-111"/>
      <point x="94" y="-182"/>
    </contour>
  </outline>
</glyph>
<glyph name="uuMatra-beng" format="2">
  <unicode hex="09C2"/>
  <anchor x="0" y="0" name="_bottom"/>
  <outline>
    <contour>
      <point x="182" y="-306" type="curve"/>
      <point x="213" y="-270" type="line"/>
      <point x="148" y="-208"/>
      <point x="69" y="-162"/>
      <point x="19" y="-140" type="curve"/>
      <point x="-31" y="-181"/>
      <point x="-78" y="-198"/>
      <point x="-126" y="-198" type="curve" smooth="yes"/>
      <point x="-168" y="-198"/>
      <point x="-193" y="-186"/>
      <point x="-193" y="-157" type="curve" smooth="yes"/>
      <point x="-193" y="-130"/>
      <point x="-172" y="-114"/>
      <point x="-126" y="-114" type="curve" smooth="yes"/>
      <point x="-93" y="-114"/>
      <point x="-66" y="-118"/>
      <point x="-34" y="-126" type="curve"/>
      <point x="12" y="-102" type="line"/>
      <point x="11" y="-41"/>
      <point x="0" y="11"/>
      <point x="-17" y="52" type="curve"/>
      <point x="-86" y="32" type="line"/>
      <point x="-75" y="7"/>
      <point x="-66" y="-39"/>
      <point x="-66" y="-69" type="curve"/>
      <point x="-33" y="-51" type="line"/>
      <point x="-64" y="-39"/>
      <point x="-96" y="-32"/>
      <point x="-134" y="-32" type="curve" smooth="yes"/>
      <point x="-211" y="-32"/>
      <point x="-269" y="-81"/>
      <point x="-269" y="-155" type="curve" smooth="yes"/>
      <point x="-269" y="-229"/>
      <point x="-216" y="-282"/>
      <point x="-116" y="-282" type="curve" smooth="yes"/>
      <point x="-51" y="-282"/>
      <point x="8" y="-260"/>
      <point x="58" y="-208" type="curve"/>
      <point x="2" y="-205" type="line"/>
      <point x="54" y="-218"/>
      <point x="123" y="-263"/>
    </contour>
  </outline>
</glyph>
<glyph name="rrVocalicMatra-beng" format="2">
  <unicode hex="09C4"/>
  <anchor x="0" y="0" name="_bottom.rvocalic"/>
  <outline>
    <contour>
      <point x="34" y="-273" type="curve"/>
      <point x="61" y="-233" type="line"/>
      <point x="29" y="-198"/>
      <point x="-62" y="-125"/>
      <point x="-162" y="-83" type="curve"/>
      <point x="-151" y="-115" type="line"/>
      <point x="-107" y="-86"/>
      <point x="-54" y="-57"/>
      <point x="0" y="-33" type="curve"/>
      <point x="0" y="-11" type="line"/>
      <point x="-61" y="53" type="line"/>
      <point x="-126" y="25"/>
      <point x="-217" y="-21"/>
      <point x="-290" y="-73" type="curve"/>
      <point x="-222" y="-152" type="line"/>
      <point x="-118" y="-179"/>
      <point x="-35" y="-221"/>
    </contour>
    <contour>
      <point x="20" y="-432" type="curve"/>
      <point x="45" y="-395" type="line"/>
      <point x="14" y="-358"/>
      <point x="-63" y="-293"/>
      <point x="-155" y="-250" type="curve"/>
      <point x="-146" y="-276" type="line"/>
      <point x="-107" y="-249"/>
      <point x="-74" y="-227"/>
      <point x="-26" y="-204" type="curve"/>
      <point x="-120" y="-154" type="line"/>
      <point x="-175" y="-182"/>
      <point x="-223" y="-210"/>
      <point x="-273" y="-242" type="curve"/>
      <point x="-210" y="-314" type="line"/>
      <point x="-116" y="-342"/>
      <point x="-46" y="-379"/>
    </contour>
  </outline>
</glyph>
<glyph name="eMatra-beng" format="2">
  <advance width="411"/>
  <unicode hex="09C7"/>
  <outline>
    <contour>
      <point x="286" y="-26" type="curve" smooth="yes"/>
      <point x="357" y="-26"/>
      <point x="398" y="12"/>
      <point x="398" y="79" type="curve" smooth="yes"/>
      <point x="398" y="130"/>
      <point x="366" y="174"/>
      <point x="304" y="174" type="curve" smooth="yes"/>
      <point x="252" y="174"/>
      <point x="215" y="138"/>
      <point x="215" y="90" type="curve" smooth="yes"/>
      <point x="215" y="55"/>
      <point x="227" y="31"/>
      <point x="245" y="14" type="curve"/>
      <point x="274" y="28" type="line"/>
      <point x="184" y="53"/>
      <point x="153" y="142"/>
      <point x="153" y="254" type="curve" smooth="yes"/>
      <point x="153" y="425"/>
      <point x="283" y="550"/>
      <point x="397" y="550" type="curve" smooth="yes"/>
      <point x="446" y="550" type="line"/>
      <point x="405" y="622" type="line"/>
      <point x="-35" y="622" type="line"/>
      <point x="6" y="550" type="line"/>
      <point x="233" y="550" type="line"/>
      <point x="188" y="579" type="line"/>
      <point x="115" y="534"/>
      <point x="44" y="436"/>
      <point x="44" y="289" type="curve" smooth="yes"/>
      <point x="44" y="90"/>
      <point x="156" y="-26"/>
    </contour>
  </outline>
</glyph>
<glyph name="oMatra-beng" format="2">
  <advance width="811"/>
  <unicode hex="09CB"/>
  <outline>
    <contour>
      <point x="419" y="249" type="curve" smooth="yes"/>
      <point x="452" y="249"/>
      <point x="480" y="272"/>
      <point x="480" y="310" type="curve" smooth="yes"/>
      <point x="480" y="346"/>
      <point x="453" y="372"/>
      <point x="419" y="372" type="curve" smooth="yes"/>
      <point x="384" y="372"/>
      <point x="355" y="346"/>
      <point x="355" y="310" type="curve" smooth="yes"/>
      <point x="355" y="274"/>
      <point x="385" y="249"/>
    </contour>
    <contour>
      <point x="286" y="-26" type="curve" smooth="yes"/>
      <point x="357" y="-26"/>
      <point x="398" y="12"/>
      <point x="398" y="79" type="curve" smooth="yes"/>
      <point x="398" y="130"/>
      <point x="366" y="174"/>
      <point x="304" y="174" type="curve" smooth="yes"/>
      <point x="252" y="174"/>
      <point x="215" y="138"/>
      <point x="215" y="90" type="curve" smooth="yes"/>
      <point x="215" y="55"/>
      <point x="227" y="31"/>
      <point x="245" y="14" type="curve"/>
      <point x="274" y="28" type="line"/>
      <point x="184" y="53"/>
      <point x="153" y="142"/>
      <point x="153" y="254" type="curve" smooth="yes"/>
      <point x="153" y="425"/>
      <point x="283" y="550"/>
      <point x="397" y="550" type="curve" smooth="yes"/>
      <point x="446" y="550" type="line"/>
      <point x="405" y="622" type="line"/>
      <point x="-35" y="622" type="line"/>
      <point x="6" y="550" type="line"/>
      <point x="233" y="550" type="line"/>
      <point x="188" y="579" type="line"/>
      <point x="115" y="534"/>
      <point x="44" y="436"/>
      <point x="44" y="289" type="curve" smooth="yes"/>
      <point x="44" y="90"/>
      <point x="156" y="-26"/>
    </contour>
    <contour>
      <point x="724" y="-35" type="line"/>
      <point x="731" y="-33" type="line"/>
      <point x="731" y="550" type="line"/>
      <point x="846" y="550" type="line"/>
      <point x="804" y="622" type="line"/>
      <point x="724" y="622" type="line"/>
      <point x="717" y="677" type="line"/>
      <point x="649" y="713" type="line"/>
      <point x="642" y="710" type="line"/>
      <point x="642" y="616" type="line" smooth="yes"/>
      <point x="642" y="596"/>
      <point x="645" y="540"/>
      <point x="650" y="493" type="curve"/>
      <point x="660" y="496" type="line"/>
      <point x="646" y="582"/>
      <point x="614" y="622"/>
      <point x="563" y="622" type="curve" smooth="yes"/>
      <point x="527" y="622" type="line"/>
      <point x="569" y="550" type="line"/>
      <point x="574" y="550" type="line" smooth="yes"/>
      <point x="614" y="550"/>
      <point x="634" y="505"/>
      <point x="642" y="455" type="curve"/>
      <point x="642" y="1" type="line"/>
    </contour>
  </outline>
</glyph>
<glyph name="auMatra-beng" format="2">
  <advance width="811"/>
  <unicode hex="09CC"/>
  <anchor x="893" y="598" name="top"/>
  <anchor x="535" y="600" name="topright"/>
  <outline>
    <contour>
      <point x="419" y="249" type="curve" smooth="yes"/>
      <point x="452" y="249"/>
      <point x="480" y="272"/>
      <point x="480" y="310" type="curve" smooth="yes"/>
      <point x="480" y="346"/>
      <point x="453" y="372"/>
      <point x="419" y="372" type="curve" smooth="yes"/>
      <point x="384" y="372"/>
      <point x="355" y="346"/>
      <point x="355" y="310" type="curve" smooth="yes"/>
      <point x="355" y="274"/>
      <point x="385" y="249"/>
    </contour>
    <contour>
      <point x="724" y="-35" type="line"/>
      <point x="731" y="-32" type="line"/>
      <point x="731" y="550" type="line"/>
      <point x="846" y="550" type="line"/>
      <point x="803" y="622" type="line"/>
      <point x="527" y="622" type="line"/>
      <point x="569" y="550" type="line"/>
      <point x="642" y="550" type="line"/>
      <point x="642" y="2" type="line"/>
    </contour>
    <contour>
      <point x="644" y="603" type="curve"/>
      <point x="731" y="603" type="line"/>
      <point x="726" y="741"/>
      <point x="636" y="823"/>
      <point x="513" y="823" type="curve" smooth="yes"/>
      <point x="437" y="823"/>
      <point x="380" y="810"/>
      <point x="292" y="810" type="curve" smooth="yes"/>
      <point x="200" y="810"/>
      <point x="149" y="825"/>
      <point x="149" y="890" type="curve" smooth="yes"/>
      <point x="149" y="901"/>
      <point x="150" y="916"/>
      <point x="152" y="928" type="curve"/>
      <point x="100" y="933" type="line"/>
      <point x="96" y="911"/>
      <point x="93" y="885"/>
      <point x="93" y="860" type="curve" smooth="yes"/>
      <point x="93" y="752"/>
      <point x="166" y="693"/>
      <point x="291" y="693" type="curve" smooth="yes"/>
      <point x="394" y="693"/>
      <point x="459" y="714"/>
      <point x="544" y="714" type="curve" smooth="yes"/>
      <point x="618" y="714"/>
      <point x="648" y="680"/>
      <point x="648" y="634" type="curve" smooth="yes"/>
      <point x="648" y="623"/>
      <point x="647" y="613"/>
    </contour>
    <contour>
      <point x="286" y="-26" type="curve" smooth="yes"/>
      <point x="357" y="-26"/>
      <point x="398" y="12"/>
      <point x="398" y="79" type="curve" smooth="yes"/>
      <point x="398" y="130"/>
      <point x="366" y="174"/>
      <point x="304" y="174" type="curve" smooth="yes"/>
      <point x="252" y="174"/>
      <point x="215" y="138"/>
      <point x="215" y="90" type="curve" smooth="yes"/>
      <point x="215" y="55"/>
      <point x="227" y="31"/>
      <point x="245" y="14" type="curve"/>
      <point x="274" y="28" type="line"/>
      <point x="184" y="53"/>
      <point x="153" y="142"/>
      <point x="153" y="254" type="curve" smooth="yes"/>
      <point x="153" y="425"/>
      <point x="283" y="550"/>
      <point x="397" y="550" type="curve" smooth="yes"/>
      <point x="446" y="550" type="line"/>
      <point x="405" y="622" type="line"/>
      <point x="-35" y="622" type="line"/>
      <point x="6" y="550" type="line"/>
      <point x="233" y="550" type="line"/>
      <point x="188" y="579" type="line"/>
      <point x="115" y="534"/>
      <point x="44" y="436"/>
      <point x="44" y="289" type="curve" smooth="yes"/>
      <point x="44" y="90"/>
      <point x="156" y="-26"/>
    </contour>
  </outline>
</glyph>
<glyph name="llVocalic-beng" format="2">
  <advance width="760"/>
  <unicode hex="09E1"/>
  <anchor x="419" y="550" name="top"/>
  <outline>
    <contour>
      <point x="305" y="-4" type="curve"/>
      <point x="446" y="22"/>
      <point x="531" y="117"/>
      <point x="531" y="270" type="curve" smooth="yes"/>
      <point x="531" y="422"/>
      <point x="454" y="476"/>
      <point x="294" y="507" type="curve" smooth="yes"/>
      <point x="205" y="525"/>
      <point x="143" y="541"/>
      <point x="143" y="618" type="curve" smooth="yes"/>
      <point x="143" y="647"/>
      <point x="149" y="671"/>
      <point x="160" y="699" type="curve"/>
      <point x="110" y="715" type="line"/>
      <point x="95" y="687"/>
      <point x="71" y="629"/>
      <point x="71" y="573" type="curve" smooth="yes"/>
      <point x="71" y="453"/>
      <point x="144" y="413"/>
      <point x="275" y="389" type="curve" smooth="yes"/>
      <point x="390" y="368"/>
      <point x="462" y="354"/>
      <point x="462" y="241" type="curve" smooth="yes"/>
      <point x="462" y="166"/>
      <point x="420" y="111"/>
      <point x="362" y="104" type="curve"/>
      <point x="408" y="76" type="line"/>
      <point x="409" y="210"/>
      <point x="347" y="325"/>
      <point x="215" y="325" type="curve" smooth="yes"/>
      <point x="98" y="325"/>
      <point x="46" y="244"/>
      <point x="46" y="156" type="curve" smooth="yes"/>
      <point x="46" y="56"/>
      <point x="100" y="6"/>
      <point x="171" y="6" type="curve" smooth="yes"/>
      <point x="227" y="6"/>
      <point x="252" y="45"/>
      <point x="252" y="89" type="curve" smooth="yes"/>
      <point x="252" y="135"/>
      <point x="220" y="166"/>
      <point x="175" y="166" type="curve" smooth="yes"/>
      <point x="136" y="166"/>
      <point x="100" y="139"/>
      <point x="100" y="104" type="curve"/>
      <point x="156" y="100" type="line"/>
      <point x="134" y="107"/>
      <point x="118" y="125"/>
      <point x="118" y="158" type="curve" smooth="yes"/>
      <point x="118" y="195"/>
      <point x="147" y="224"/>
      <point x="194" y="224" type="curve" smooth="yes"/>
      <point x="280" y="224"/>
      <point x="309" y="126"/>
      <point x="309" y="42" type="curve" smooth="yes"/>
      <point x="309" y="26"/>
      <point x="308" y="11"/>
    </contour>
    <contour>
      <point x="518" y="-225" type="line"/>
      <point x="620" y="-210"/>
      <point x="740" y="-124"/>
      <point x="740" y="61" type="curve" smooth="yes"/>
      <point x="740" y="219"/>
      <point x="666" y="260"/>
      <point x="500" y="302" type="curve"/>
      <point x="487" y="186" type="line"/>
      <point x="607" y="163"/>
      <point x="672" y="141"/>
      <point x="672" y="36" type="curve" smooth="yes"/>
      <point x="672" y="-41"/>
      <point x="626" y="-105"/>
      <point x="569" y="-113" type="curve"/>
      <point x="615" y="-141" type="line"/>
      <point x="616" y="-6"/>
      <point x="553" y="109"/>
      <point x="421" y="109" type="curve" smooth="yes"/>
      <point x="306" y="109"/>
      <point x="255" y="27"/>
      <point x="255" y="-60" type="curve" smooth="yes"/>
      <point x="255" y="-161"/>
      <point x="310" y="-210"/>
      <point x="380" y="-210" type="curve" smooth="yes"/>
      <point x="435" y="-210"/>
      <point x="461" y="-172"/>
      <point x="461" y="-128" type="curve" smooth="yes"/>
      <point x="461" y="-82"/>
      <point x="429" y="-51"/>
      <point x="385" y="-51" type="curve" smooth="yes"/>
      <point x="345" y="-51"/>
      <point x="309" y="-79"/>
      <point x="309" y="-113" type="curve"/>
      <point x="365" y="-117" type="line"/>
      <point x="344" y="-110"/>
      <point x="328" y="-92"/>
      <point x="328" y="-59" type="curve" smooth="yes"/>
      <point x="328" y="-22"/>
      <point x="355" y="8"/>
      <point x="401" y="8" type="curve" smooth="yes"/>
      <point x="486" y="8"/>
      <point x="516" y="-90"/>
      <point x="516" y="-175" type="curve" smooth="yes"/>
      <point x="516" y="-191"/>
      <point x="515" y="-205"/>
      <point x="512" y="-220" type="curve"/>
    </contour>
  </outline>
</glyph>
<glyph name="llVocalicMatra-beng" format="2">
  <unicode hex="09E3"/>
  <anchor x="0" y="29" name="_bottom"/>
  <outline>
    <contour>
      <point x="-95" y="-326" type="curve"/>
      <point x="5" y="-320"/>
      <point x="64" y="-259"/>
      <point x="64" y="-172" type="curve" smooth="yes"/>
      <point x="64" y="-100"/>
      <point x="18" y="-65"/>
      <point x="-53" y="-45" type="curve" smooth="yes"/>
      <point x="-118" y="-27"/>
      <point x="-141" y="-15"/>
      <point x="-141" y="19" type="curve" smooth="yes"/>
      <point x="-141" y="27"/>
      <point x="-139" y="39"/>
      <point x="-132" y="54" type="curve"/>
      <point x="-169" y="67" type="line"/>
      <point x="-190" y="40"/>
      <point x="-201" y="9"/>
      <point x="-201" y="-18" type="curve" smooth="yes"/>
      <point x="-201" y="-71"/>
      <point x="-168" y="-104"/>
      <point x="-89" y="-120" type="curve" smooth="yes"/>
      <point x="-13" y="-135"/>
      <point x="14" y="-150"/>
      <point x="14" y="-190" type="curve" smooth="yes"/>
      <point x="14" y="-229"/>
      <point x="-10" y="-250"/>
      <point x="-32" y="-250" type="curve" smooth="yes"/>
      <point x="-44" y="-250"/>
      <point x="-52" y="-247"/>
      <point x="-57" y="-243" type="curve"/>
      <point x="-22" y="-281" type="line"/>
      <point x="-22" y="-276"/>
      <point x="-22" y="-270"/>
      <point x="-22" y="-266" type="curve" smooth="yes"/>
      <point x="-22" y="-179"/>
      <point x="-76" y="-137"/>
      <point x="-143" y="-137" type="curve" smooth="yes"/>
      <point x="-211" y="-137"/>
      <point x="-252" y="-189"/>
      <point x="-252" y="-242" type="curve" smooth="yes"/>
      <point x="-252" y="-300"/>
      <point x="-218" y="-321"/>
      <point x="-184" y="-321" type="curve" smooth="yes"/>
      <point x="-148" y="-321"/>
      <point x="-131" y="-295"/>
      <point x="-131" y="-268" type="curve" smooth="yes"/>
      <point x="-131" y="-237"/>
      <point x="-151" y="-216"/>
      <point x="-179" y="-216" type="curve" smooth="yes"/>
      <point x="-202" y="-216"/>
      <point x="-219" y="-232"/>
      <point x="-220" y="-251" type="curve"/>
      <point x="-203" y="-258" type="line"/>
      <point x="-206" y="-252"/>
      <point x="-207" y="-248"/>
      <point x="-207" y="-241" type="curve" smooth="yes"/>
      <point x="-207" y="-213"/>
      <point x="-186" y="-200"/>
      <point x="-160" y="-200" type="curve" smooth="yes"/>
      <point x="-116" y="-200"/>
      <point x="-92" y="-233"/>
      <point x="-92" y="-290" type="curve" smooth="yes"/>
      <point x="-92" y="-306"/>
      <point x="-93" y="-316"/>
    </contour>
    <contour>
      <point x="51" y="-450" type="line"/>
      <point x="129" y="-441"/>
      <point x="201" y="-391"/>
      <point x="201" y="-291" type="curve" smooth="yes"/>
      <point x="201" y="-216"/>
      <point x="160" y="-177"/>
      <point x="52" y="-147" type="curve"/>
      <point x="45" y="-222" type="line"/>
      <point x="126" y="-236"/>
      <point x="152" y="-266"/>
      <point x="152" y="-307" type="curve" smooth="yes"/>
      <point x="152" y="-348"/>
      <point x="132" y="-368"/>
      <point x="111" y="-368" type="curve" smooth="yes"/>
      <point x="99" y="-368"/>
      <point x="92" y="-365"/>
      <point x="86" y="-361" type="curve"/>
      <point x="117" y="-399" type="line"/>
      <point x="118" y="-393"/>
      <point x="118" y="-388"/>
      <point x="118" y="-382" type="curve" smooth="yes"/>
      <point x="118" y="-298"/>
      <point x="66" y="-251"/>
      <point x="-1" y="-251" type="curve" smooth="yes"/>
      <point x="-67" y="-251"/>
      <point x="-109" y="-303"/>
      <point x="-109" y="-356" type="curve" smooth="yes"/>
      <point x="-109" y="-414"/>
      <point x="-75" y="-435"/>
      <point x="-41" y="-435" type="curve" smooth="yes"/>
      <point x="-5" y="-435"/>
      <point x="12" y="-409"/>
      <point x="12" y="-381" type="curve" smooth="yes"/>
      <point x="12" y="-351"/>
      <point x="-7" y="-330"/>
      <point x="-36" y="-330" type="curve" smooth="yes"/>
      <point x="-59" y="-330"/>
      <point x="-76" y="-346"/>
      <point x="-77" y="-365" type="curve"/>
      <point x="-59" y="-371" type="line"/>
      <point x="-63" y="-366"/>
      <point x="-64" y="-362"/>
      <point x="-64" y="-355" type="curve" smooth="yes"/>
      <point x="-64" y="-327"/>
      <point x="-43" y="-314"/>
      <point x="-16" y="-314" type="curve" smooth="yes"/>
      <point x="28" y="-314"/>
      <point x="49" y="-351"/>
      <point x="49" y="-409" type="curve" smooth="yes"/>
      <point x="49" y="-426"/>
      <point x="48" y="-435"/>
      <point x="47" y="-445" type="curve"/>
    </contour>
  </outline>
</glyph>
<glyph name="zero-beng" format="2">
  <advance width="619"/>
  <unicode hex="09E6"/>
  <outline>
    <contour>
      <point x="304" y="14" type="curve" smooth="yes"/>
      <point x="460" y="14"/>
      <point x="560" y="138"/>
      <point x="560" y="303" type="curve" smooth="yes"/>
      <point x="560" y="449"/>
      <point x="472" y="574"/>
      <point x="318" y="574" type="curve" smooth="yes"/>
      <point x="171" y="574"/>
      <point x="60" y="451"/>
      <point x="60" y="288" type="curve" smooth="yes"/>
      <point x="60" y="120"/>
      <point x="168" y="14"/>
    </contour>
    <contour>
      <point x="277" y="118" type="curve" smooth="yes"/>
      <point x="211" y="118"/>
      <point x="169" y="162"/>
      <point x="169" y="244" type="curve" smooth="yes"/>
      <point x="169" y="359"/>
      <point x="250" y="467"/>
      <point x="348" y="467" type="curve" smooth="yes"/>
      <point x="418" y="467"/>
      <point x="455" y="419"/>
      <point x="455" y="344" type="curve" smooth="yes"/>
      <point x="455" y="234"/>
      <point x="381" y="118"/>
    </contour>
  </outline>
</glyph>
<glyph name="three-beng" format="2">
  <advance width="675"/>
  <unicode hex="09E9"/>
  <outline>
    <contour>
      <point x="394" y="10" type="curve" smooth="yes"/>
      <point x="526" y="10"/>
      <point x="625" y="94"/>
      <point x="625" y="268" type="curve" smooth="yes"/>
      <point x="625" y="421"/>
      <point x="536" y="546"/>
      <point x="378" y="546" type="curve" smooth="yes"/>
      <point x="285" y="546"/>
      <point x="234" y="492"/>
      <point x="234" y="415" type="curve" smooth="yes"/>
      <point x="234" y="347"/>
      <point x="277" y="292"/>
      <point x="354" y="292" type="curve" smooth="yes"/>
      <point x="426" y="292"/>
      <point x="462" y="344"/>
      <point x="460" y="401" type="curve" smooth="yes"/>
      <point x="459" y="440"/>
      <point x="440" y="472"/>
      <point x="423" y="488" type="curve"/>
      <point x="386" y="415" type="line"/>
      <point x="398" y="422"/>
      <point x="418" y="429"/>
      <point x="442" y="429" type="curve" smooth="yes"/>
      <point x="500" y="429"/>
      <point x="554" y="391"/>
      <point x="554" y="296" type="curve" smooth="yes"/>
      <point x="554" y="195"/>
      <point x="488" y="148"/>
      <point x="391" y="148" type="curve" smooth="yes"/>
      <point x="252" y="148"/>
      <point x="153" y="238"/>
      <point x="89" y="505" type="curve"/>
      <point x="34" y="491" type="line"/>
      <point x="98" y="161"/>
      <point x="204" y="10"/>
    </contour>
  </outline>
</glyph>
<glyph name="four-beng" format="2">
  <advance width="574"/>
  <unicode hex="09EA"/>
  <outline>
    <contour>
      <point x="295" y="-21" type="curve" smooth="yes"/>
      <point x="433" y="-21"/>
      <point x="511" y="52"/>
      <point x="511" y="144" type="curve" smooth="yes"/>
      <point x="511" y="233"/>
      <point x="441" y="276"/>
      <point x="349" y="320" type="curve"/>
      <point x="300" y="282" type="line"/>
      <point x="361" y="253"/>
      <point x="402" y="210"/>
      <point x="402" y="163" type="curve" smooth="yes"/>
      <point x="402" y="104"/>
      <point x="337" y="65"/>
      <point x="269" y="65" type="curve" smooth="yes"/>
      <point x="210" y="65"/>
      <point x="168" y="88"/>
      <point x="168" y="134" type="curve" smooth="yes"/>
      <point x="168" y="187"/>
      <point x="235" y="209"/>
      <point x="334" y="257" type="curve" smooth="yes"/>
      <point x="441" y="310"/>
      <point x="495" y="356"/>
      <point x="495" y="450" type="curve" smooth="yes"/>
      <point x="495" y="557"/>
      <point x="394" y="617"/>
      <point x="280" y="617" type="curve" smooth="yes"/>
      <point x="152" y="617"/>
      <point x="84" y="545"/>
      <point x="84" y="463" type="curve" smooth="yes"/>
      <point x="84" y="364"/>
      <point x="178" y="326"/>
      <point x="230" y="298" type="curve"/>
      <point x="273" y="336" type="line"/>
      <point x="229" y="365"/>
      <point x="200" y="403"/>
      <point x="200" y="452" type="curve" smooth="yes"/>
      <point x="200" y="504"/>
      <point x="242" y="534"/>
      <point x="304" y="534" type="curve" smooth="yes"/>
      <point x="363" y="534"/>
      <point x="397" y="512"/>
      <point x="397" y="474" type="curve" smooth="yes"/>
      <point x="397" y="432"/>
      <point x="352" y="406"/>
      <point x="263" y="365" type="curve" smooth="yes"/>
      <point x="140" y="307"/>
      <point x="63" y="260"/>
      <point x="63" y="160" type="curve" smooth="yes"/>
      <point x="63" y="40"/>
      <point x="178" y="-21"/>
    </contour>
  </outline>
</glyph>
<glyph name="five-beng" format="2">
  <advance width="588"/>
  <unicode hex="09EB"/>
  <outline>
    <contour>
      <point x="364" y="-19" type="curve" smooth="yes"/>
      <point x="436" y="-19"/>
      <point x="501" y="1"/>
      <point x="553" y="48" type="curve"/>
      <point x="521" y="114" type="line"/>
      <point x="449" y="119"/>
      <point x="420" y="155"/>
      <point x="420" y="204" type="curve" smooth="yes"/>
      <point x="420" y="279"/>
      <point x="489" y="330"/>
      <point x="552" y="350" type="curve"/>
      <point x="508" y="432" type="line"/>
      <point x="463" y="425"/>
      <point x="392" y="431"/>
      <point x="392" y="495" type="curve" smooth="yes"/>
      <point x="392" y="517"/>
      <point x="402" y="539"/>
      <point x="416" y="554" type="curve"/>
      <point x="414" y="592"/>
      <point x="398" y="622"/>
      <point x="341" y="622" type="curve" smooth="yes"/>
      <point x="217" y="622"/>
      <point x="57" y="477"/>
      <point x="57" y="286" type="curve" smooth="yes"/>
      <point x="57" y="97"/>
      <point x="204" y="-19"/>
    </contour>
    <contour>
      <point x="342" y="76" type="curve" smooth="yes"/>
      <point x="233" y="76"/>
      <point x="167" y="138"/>
      <point x="167" y="253" type="curve" smooth="yes"/>
      <point x="167" y="376"/>
      <point x="244" y="475"/>
      <point x="348" y="508" type="curve"/>
      <point x="321" y="539" type="line"/>
      <point x="310" y="523"/>
      <point x="303" y="498"/>
      <point x="303" y="480" type="curve" smooth="yes"/>
      <point x="303" y="396"/>
      <point x="399" y="384"/>
      <point x="451" y="384" type="curve"/>
      <point x="426" y="408" type="line"/>
      <point x="358" y="374"/>
      <point x="309" y="311"/>
      <point x="309" y="235" type="curve" smooth="yes"/>
      <point x="309" y="161"/>
      <point x="362" y="99"/>
      <point x="444" y="83" type="curve"/>
      <point x="432" y="101" type="line"/>
      <point x="409" y="86"/>
      <point x="379" y="76"/>
    </contour>
  </outline>
</glyph>
<glyph name="six-beng" format="2">
  <advance width="691"/>
  <unicode hex="09EC"/>
  <outline>
    <contour>
      <point x="410" y="-22" type="curve" smooth="yes"/>
      <point x="563" y="-22"/>
      <point x="641" y="84"/>
      <point x="641" y="224" type="curve" smooth="yes"/>
      <point x="641" y="330"/>
      <point x="599" y="410"/>
      <point x="539" y="463" type="curve"/>
      <point x="488" y="389"/>
      <point x="440" y="340"/>
      <point x="398" y="340" type="curve" smooth="yes"/>
      <point x="375" y="340"/>
      <point x="364" y="351"/>
      <point x="364" y="374" type="curve" smooth="yes"/>
      <point x="364" y="518" type="line" smooth="yes"/>
      <point x="364" y="582"/>
      <point x="328" y="633"/>
      <point x="261" y="633" type="curve" smooth="yes"/>
      <point x="209" y="633"/>
      <point x="176" y="599"/>
      <point x="176" y="551" type="curve" smooth="yes"/>
      <point x="176" y="504"/>
      <point x="209" y="473"/>
      <point x="251" y="473" type="curve" smooth="yes"/>
      <point x="297" y="473"/>
      <point x="314" y="507"/>
      <point x="316" y="536" type="curve"/>
      <point x="274" y="534" type="line"/>
      <point x="274" y="353" type="line" smooth="yes"/>
      <point x="274" y="306"/>
      <point x="291" y="276"/>
      <point x="317" y="251" type="curve" smooth="yes"/>
      <point x="342" y="227"/>
      <point x="375" y="214"/>
      <point x="413" y="214" type="curve" smooth="yes"/>
      <point x="476" y="214"/>
      <point x="543" y="265"/>
      <point x="591" y="337" type="curve"/>
      <point x="536" y="350" type="line"/>
      <point x="560" y="326"/>
      <point x="576" y="297"/>
      <point x="576" y="252" type="curve" smooth="yes"/>
      <point x="576" y="167"/>
      <point x="506" y="111"/>
      <point x="406" y="111" type="curve" smooth="yes"/>
      <point x="256" y="111"/>
      <point x="167" y="230"/>
      <point x="103" y="472" type="curve"/>
      <point x="48" y="458" type="line"/>
      <point x="112" y="136"/>
      <point x="218" y="-22"/>
    </contour>
  </outline>
</glyph>
<glyph name="eight-beng" format="2">
  <advance width="671"/>
  <unicode hex="09EE"/>
  <outline>
    <contour>
      <point x="319" y="-23" type="curve" smooth="yes"/>
      <point x="426" y="-23"/>
      <point x="540" y="72"/>
      <point x="540" y="190" type="curve" smooth="yes"/>
      <point x="540" y="252"/>
      <point x="500" y="290"/>
      <point x="442" y="341" type="curve"/>
      <point x="390" y="341" type="line"/>
      <point x="420" y="295"/>
      <point x="428" y="267"/>
      <point x="428" y="225" type="curve" smooth="yes"/>
      <point x="428" y="141"/>
      <point x="347" y="75"/>
      <point x="294" y="75" type="curve" smooth="yes"/>
      <point x="261" y="75"/>
      <point x="240" y="91"/>
      <point x="240" y="130" type="curve" smooth="yes"/>
      <point x="240" y="512" type="line" smooth="yes"/>
      <point x="240" y="584"/>
      <point x="204" y="633"/>
      <point x="137" y="633" type="curve" smooth="yes"/>
      <point x="84" y="633"/>
      <point x="52" y="599"/>
      <point x="52" y="551" type="curve" smooth="yes"/>
      <point x="52" y="504"/>
      <point x="85" y="473"/>
      <point x="126" y="473" type="curve" smooth="yes"/>
      <point x="173" y="473"/>
      <point x="189" y="507"/>
      <point x="192" y="536" type="curve"/>
      <point x="151" y="541" type="line"/>
      <point x="151" y="145" type="line" smooth="yes"/>
      <point x="151" y="51"/>
      <point x="221" y="-23"/>
    </contour>
    <contour>
      <point x="211" y="252" type="line"/>
      <point x="264" y="286"/>
      <point x="348" y="324"/>
      <point x="428" y="324" type="curve" smooth="yes"/>
      <point x="491" y="324"/>
      <point x="521" y="283"/>
      <point x="571" y="283" type="curve" smooth="yes"/>
      <point x="622" y="283"/>
      <point x="652" y="320"/>
      <point x="664" y="429" type="curve"/>
      <point x="616" y="440" type="line"/>
      <point x="593" y="383"/>
      <point x="576" y="373"/>
      <point x="536" y="373" type="curve" smooth="yes"/>
      <point x="464" y="373"/>
      <point x="431" y="406"/>
      <point x="357" y="406" type="curve" smooth="yes"/>
      <point x="311" y="406"/>
      <point x="261" y="395"/>
      <point x="213" y="373" type="curve"/>
    </contour>
  </outline>
</glyph>
<glyph name="nine-beng" format="2">
  <advance width="635"/>
  <unicode hex="09EF"/>
  <outline>
    <contour>
      <point x="335" y="-27" type="line"/>
      <point x="441" y="-14"/>
      <point x="574" y="65"/>
      <point x="574" y="229" type="curve" smooth="yes"/>
      <point x="574" y="323"/>
      <point x="517" y="398"/>
      <point x="387" y="437" type="curve" smooth="yes"/>
      <point x="283" y="469"/>
      <point x="253" y="483"/>
      <point x="250" y="520" type="curve"/>
      <point x="205" y="489" type="line"/>
      <point x="214" y="480"/>
      <point x="228" y="479"/>
      <point x="244" y="479" type="curve" smooth="yes"/>
      <point x="292" y="479"/>
      <point x="317" y="509"/>
      <point x="317" y="553" type="curve" smooth="yes"/>
      <point x="317" y="593"/>
      <point x="287" y="633"/>
      <point x="230" y="633" type="curve" smooth="yes"/>
      <point x="165" y="633"/>
      <point x="116" y="585"/>
      <point x="116" y="513" type="curve" smooth="yes"/>
      <point x="116" y="428"/>
      <point x="178" y="384"/>
      <point x="312" y="352" type="curve" smooth="yes"/>
      <point x="444" y="321"/>
      <point x="494" y="281"/>
      <point x="494" y="204" type="curve" smooth="yes"/>
      <point x="494" y="128"/>
      <point x="449" y="83"/>
      <point x="390" y="79" type="curve"/>
      <point x="433" y="60" type="line"/>
      <point x="434" y="197"/>
      <point x="372" y="310"/>
      <point x="235" y="310" type="curve" smooth="yes"/>
      <point x="116" y="310"/>
      <point x="63" y="224"/>
      <point x="63" y="132" type="curve" smooth="yes"/>
      <point x="63" y="29"/>
      <point x="120" y="-22"/>
      <point x="192" y="-22" type="curve" smooth="yes"/>
      <point x="249" y="-22"/>
      <point x="275" y="18"/>
      <point x="275" y="62" type="curve" smooth="yes"/>
      <point x="275" y="110"/>
      <point x="242" y="141"/>
      <point x="197" y="141" type="curve" smooth="yes"/>
      <point x="157" y="141"/>
      <point x="120" y="113"/>
      <point x="120" y="77" type="curve"/>
      <point x="176" y="74" type="line"/>
      <point x="154" y="82"/>
      <point x="137" y="100"/>
      <point x="137" y="137" type="curve" smooth="yes"/>
      <point x="137" y="177"/>
      <point x="166" y="209"/>
      <point x="214" y="209" type="curve" smooth="yes"/>
      <point x="302" y="209"/>
      <point x="332" y="114"/>
      <point x="332" y="26" type="curve" smooth="yes"/>
      <point x="332" y="10"/>
      <point x="331" y="-6"/>
      <point x="328" y="-22" type="curve"/>
    </contour>
  </outline>
</glyph>
<glyph name="rupee-beng" format="2">
  <advance width="625"/>
  <unicode hex="09F3"/>
  <outline>
    <contour>
      <point x="310" y="0" type="curve" smooth="yes"/>
      <point x="446" y="0"/>
      <point x="556" y="138"/>
      <point x="556" y="279" type="curve" smooth="yes"/>
      <point x="556" y="377"/>
      <point x="499" y="419"/>
      <point x="435" y="419" type="curve" smooth="yes"/>
      <point x="369" y="419"/>
      <point x="328" y="374"/>
      <point x="328" y="320" type="curve" smooth="yes"/>
      <point x="328" y="264"/>
      <point x="362" y="225"/>
      <point x="421" y="225" type="curve" smooth="yes"/>
      <point x="446" y="225"/>
      <point x="466" y="237"/>
      <point x="483" y="257" type="curve"/>
      <point x="430" y="292" type="line"/>
      <point x="425" y="166"/>
      <point x="350" y="99"/>
      <point x="292" y="99" type="curve" smooth="yes"/>
      <point x="263" y="99"/>
      <point x="243" y="116"/>
      <point x="243" y="147" type="curve" smooth="yes"/>
      <point x="243" y="655" type="line" smooth="yes"/>
      <point x="243" y="728"/>
      <point x="207" y="777"/>
      <point x="140" y="777" type="curve" smooth="yes"/>
      <point x="85" y="777"/>
      <point x="54" y="742"/>
      <point x="54" y="694" type="curve" smooth="yes"/>
      <point x="54" y="647"/>
      <point x="87" y="616"/>
      <point x="129" y="616" type="curve" smooth="yes"/>
      <point x="175" y="616"/>
      <point x="192" y="649"/>
      <point x="194" y="679" type="curve"/>
      <point x="153" y="684" type="line"/>
      <point x="153" y="146" type="line" smooth="yes"/>
      <point x="153" y="62"/>
      <point x="229" y="0"/>
    </contour>
    <contour>
      <point x="69" y="471" type="line"/>
      <point x="575" y="471" type="line"/>
      <point x="538" y="541" type="line"/>
      <point x="30" y="541" type="line"/>
    </contour>
  </outline>
</glyph>
<glyph name="threeNumr-beng" format="2">
  <advance width="766"/>
  <unicode hex="09F6"/>
  <outline>
    <contour>
      <point x="261" y="-10" type="curve" smooth="yes"/>
      <point x="410" y="-10"/>
      <point x="566" y="86"/>
      <point x="700" y="639" type="curve"/>
      <point x="633" y="656" type="line"/>
      <point x="505" y="219"/>
      <point x="320" y="83"/>
      <point x="215" y="83" type="curve" smooth="yes"/>
      <point x="187" y="83"/>
      <point x="170" y="93"/>
      <point x="170" y="112" type="curve" smooth="yes"/>
      <point x="170" y="137"/>
      <point x="196" y="147"/>
      <point x="269" y="173" type="curve" smooth="yes"/>
      <point x="371" y="209"/>
      <point x="412" y="261"/>
      <point x="412" y="335" type="curve" smooth="yes"/>
      <point x="412" y="450"/>
      <point x="311" y="509"/>
      <point x="210" y="509" type="curve" smooth="yes"/>
      <point x="116" y="509"/>
      <point x="66" y="456"/>
      <point x="66" y="389" type="curve" smooth="yes"/>
      <point x="66" y="327"/>
      <point x="106" y="294"/>
      <point x="158" y="294" type="curve" smooth="yes"/>
      <point x="211" y="294"/>
      <point x="241" y="328"/>
      <point x="241" y="370" type="curve" smooth="yes"/>
      <point x="241" y="401"/>
      <point x="227" y="424"/>
      <point x="200" y="438" type="curve"/>
      <point x="196" y="398" type="line"/>
      <point x="211" y="412"/>
      <point x="227" y="419"/>
      <point x="250" y="419" type="curve" smooth="yes"/>
      <point x="294" y="419"/>
      <point x="322" y="404"/>
      <point x="322" y="368" type="curve" smooth="yes"/>
      <point x="322" y="325"/>
      <point x="288" y="300"/>
      <point x="198" y="272" type="curve" smooth="yes"/>
      <point x="110" y="245"/>
      <point x="58" y="212"/>
      <point x="58" y="149" type="curve" smooth="yes"/>
      <point x="58" y="64"/>
      <point x="152" y="-10"/>
    </contour>
  </outline>
</glyph>
<glyph name="fourNumr-beng" format="2">
  <advance width="367"/>
  <unicode hex="09F7"/>
  <outline>
    <contour>
      <point x="259" y="-27" type="curve" smooth="yes"/>
      <point x="314" y="-27"/>
      <point x="342" y="5"/>
      <point x="342" y="53" type="curve" smooth="yes"/>
      <point x="342" y="102"/>
      <point x="309" y="133"/>
      <point x="266" y="133" type="curve" smooth="yes"/>
      <point x="220" y="133"/>
      <point x="203" y="100"/>
      <point x="201" y="70" type="curve"/>
      <point x="243" y="65" type="line"/>
      <point x="243" y="511" type="line" smooth="yes"/>
      <point x="243" y="584"/>
      <point x="207" y="633"/>
      <point x="140" y="633" type="curve" smooth="yes"/>
      <point x="86" y="633"/>
      <point x="54" y="599"/>
      <point x="54" y="550" type="curve" smooth="yes"/>
      <point x="54" y="503"/>
      <point x="87" y="472"/>
      <point x="129" y="472" type="curve" smooth="yes"/>
      <point x="176" y="472"/>
      <point x="192" y="505"/>
      <point x="194" y="535" type="curve"/>
      <point x="154" y="540" type="line"/>
      <point x="154" y="101" type="line" smooth="yes"/>
      <point x="154" y="28"/>
      <point x="192" y="-27"/>
    </contour>
  </outline>
</glyph>
<glyph name="oneLessNumr-beng" format="2">
  <advance width="679"/>
  <unicode hex="09F8"/>
  <outline>
    <contour>
      <point x="571" y="-5" type="curve" smooth="yes"/>
      <point x="626" y="-5"/>
      <point x="654" y="27"/>
      <point x="654" y="75" type="curve" smooth="yes"/>
      <point x="654" y="124"/>
      <point x="621" y="155"/>
      <point x="579" y="155" type="curve" smooth="yes"/>
      <point x="532" y="155"/>
      <point x="516" y="122"/>
      <point x="514" y="92" type="curve"/>
      <point x="556" y="87" type="line"/>
      <point x="556" y="423" type="line"/>
      <point x="463" y="499" type="line"/>
      <point x="368" y="434"/>
      <point x="284" y="360"/>
      <point x="218" y="285" type="curve"/>
      <point x="236" y="252" type="line"/>
      <point x="241" y="294"/>
      <point x="243" y="336"/>
      <point x="243" y="380" type="curve" smooth="yes"/>
      <point x="243" y="511" type="line" smooth="yes"/>
      <point x="243" y="584"/>
      <point x="207" y="633"/>
      <point x="140" y="633" type="curve" smooth="yes"/>
      <point x="86" y="633"/>
      <point x="54" y="599"/>
      <point x="54" y="550" type="curve" smooth="yes"/>
      <point x="54" y="503"/>
      <point x="87" y="472"/>
      <point x="129" y="472" type="curve" smooth="yes"/>
      <point x="176" y="472"/>
      <point x="192" y="505"/>
      <point x="194" y="535" type="curve"/>
      <point x="154" y="540" type="line"/>
      <point x="154" y="188" type="line"/>
      <point x="241" y="124" type="line"/>
      <point x="333" y="225"/>
      <point x="406" y="299"/>
      <point x="501" y="372" type="curve"/>
      <point x="466" y="404" type="line"/>
      <point x="466" y="123" type="line" smooth="yes"/>
      <point x="466" y="50"/>
      <point x="504" y="-5"/>
    </contour>
  </outline>
</glyph>
<glyph name="sixteenDnom-beng" format="2">
  <advance width="455"/>
  <unicode hex="09F9"/>
  <outline>
    <contour>
      <point x="225" y="124" type="curve" smooth="yes"/>
      <point x="332" y="124"/>
      <point x="411" y="193"/>
      <point x="411" y="304" type="curve" smooth="yes"/>
      <point x="411" y="412"/>
      <point x="346" y="502"/>
      <point x="233" y="502" type="curve" smooth="yes"/>
      <point x="122" y="502"/>
      <point x="44" y="430"/>
      <point x="44" y="318" type="curve" smooth="yes"/>
      <point x="44" y="209"/>
      <point x="113" y="124"/>
    </contour>
    <contour>
      <point x="198" y="224" type="curve" smooth="yes"/>
      <point x="158" y="224"/>
      <point x="130" y="243"/>
      <point x="130" y="286" type="curve" smooth="yes"/>
      <point x="130" y="348"/>
      <point x="197" y="398"/>
      <point x="260" y="398" type="curve" smooth="yes"/>
      <point x="303" y="398"/>
      <point x="327" y="374"/>
      <point x="327" y="335" type="curve" smooth="yes"/>
      <point x="327" y="275"/>
      <point x="261" y="224"/>
    </contour>
  </outline>
</glyph>
<glyph name="ganda-beng" format="2">
  <advance width="383"/>
  <unicode hex="09FB"/>
  <outline>
    <contour>
      <point x="332" y="-89" type="curve"/>
      <point x="381" y="-59" type="line"/>
      <point x="284" y="56"/>
      <point x="186" y="200"/>
      <point x="186" y="300" type="curve" smooth="yes"/>
      <point x="186" y="349"/>
      <point x="204" y="377"/>
      <point x="260" y="405" type="curve"/>
      <point x="201" y="503" type="line"/>
      <point x="112" y="466"/>
      <point x="64" y="413"/>
      <point x="64" y="340" type="curve" smooth="yes"/>
      <point x="64" y="212"/>
      <point x="188" y="75"/>
    </contour>
  </outline>
</glyph>
<glyph name="uni09FD" format="2">
  <advance width="485"/>
  <unicode hex="09FD"/>
  <outline>
    <contour>
      <point x="233" y="274" type="curve" smooth="yes"/>
      <point x="280" y="274"/>
      <point x="322" y="294"/>
      <point x="352" y="325" type="curve" smooth="yes"/>
      <point x="378" y="353"/>
      <point x="395" y="389"/>
      <point x="395" y="427" type="curve" smooth="yes"/>
      <point x="395" y="507"/>
      <point x="335" y="565"/>
      <point x="249" y="565" type="curve" smooth="yes"/>
      <point x="206" y="565"/>
      <point x="168" y="548"/>
      <point x="139" y="521" type="curve" smooth="yes"/>
      <point x="109" y="493"/>
      <point x="90" y="454"/>
      <point x="90" y="413" type="curve" smooth="yes"/>
      <point x="90" y="333"/>
      <point x="149" y="274"/>
    </contour>
    <contour>
      <point x="246" y="335" type="curve" smooth="yes"/>
      <point x="199" y="335"/>
      <point x="171" y="374"/>
      <point x="171" y="427" type="curve" smooth="yes"/>
      <point x="171" y="472"/>
      <point x="195" y="505"/>
      <point x="239" y="505" type="curve" smooth="yes"/>
      <point x="285" y="505"/>
      <point x="314" y="465"/>
      <point x="314" y="413" type="curve" smooth="yes"/>
      <point x="314" y="368"/>
      <point x="291" y="335"/>
    </contour>
  </outline>
</glyph>
<glyph name="uni1CD0" format="2">
  <unicode hex="1CD0"/>
  <note>
uni1CD0
</note>
  <anchor x="-299" y="-275" name="_vedic"/>
  <outline>
    <contour>
      <point x="-384" y="693" type="line"/>
      <point x="-251" y="836" type="line"/>
      <point x="-300" y="836" type="line"/>
      <point x="-171" y="693" type="line"/>
      <point x="-127" y="735" type="line"/>
      <point x="-309" y="941" type="line"/>
      <point x="-482" y="765" type="line"/>
    </contour>
  </outline>
</glyph>
<glyph name="uni1CD2" format="2">
  <unicode hex="1CD2"/>
  <note>
uni1CD2
</note>
  <anchor x="-299" y="-275" name="_vedic"/>
  <outline>
    <contour>
      <point x="-458" y="748" type="line"/>
      <point x="-94" y="748" type="line"/>
      <point x="-138" y="820" type="line"/>
      <point x="-502" y="820" type="line"/>
    </contour>
  </outline>
</glyph>
<glyph name="uni1CD8" format="2">
  <unicode hex="1CD8"/>
  <note>
uni1CD8
</note>
  <anchor x="-299" y="420" name="_vedic"/>
  <outline>
    <contour>
      <point x="-289" y="-260" type="curve" smooth="yes"/>
      <point x="-191" y="-260"/>
      <point x="-121" y="-202"/>
      <point x="-97" y="-87" type="curve"/>
      <point x="-192" y="-60" type="line"/>
      <point x="-214" y="-143"/>
      <point x="-245" y="-182"/>
      <point x="-320" y="-182" type="curve" smooth="yes"/>
      <point x="-392" y="-182"/>
      <point x="-433" y="-136"/>
      <point x="-451" y="-58" type="curve"/>
      <point x="-502" y="-71" type="line"/>
      <point x="-471" y="-203"/>
      <point x="-406" y="-260"/>
    </contour>
  </outline>
</glyph>
<glyph name="uni1CEA" format="2">
  <advance width="855"/>
  <unicode hex="1CEA"/>
  <note>
uni1CEA
</note>
  <anchor x="427" y="0" name="vedic"/>
  <outline>
    <contour>
      <point x="468" y="-8" type="curve" smooth="yes"/>
      <point x="639" y="-8"/>
      <point x="747" y="60"/>
      <point x="747" y="162" type="curve" smooth="yes"/>
      <point x="747" y="289"/>
      <point x="587" y="359"/>
      <point x="587" y="459" type="curve" smooth="yes"/>
      <point x="587" y="517"/>
      <point x="633" y="553"/>
      <point x="684" y="553" type="curve" smooth="yes"/>
      <point x="713" y="553"/>
      <point x="727" y="539"/>
      <point x="727" y="519" type="curve" smooth="yes"/>
      <point x="727" y="489"/>
      <point x="688" y="467"/>
      <point x="631" y="457" type="curve"/>
      <point x="677" y="359" type="line"/>
      <point x="758" y="374"/>
      <point x="812" y="407"/>
      <point x="812" y="473" type="curve" smooth="yes"/>
      <point x="812" y="553"/>
      <point x="738" y="634"/>
      <point x="636" y="634" type="curve" smooth="yes"/>
      <point x="544" y="634"/>
      <point x="480" y="580"/>
      <point x="480" y="502" type="curve" smooth="yes"/>
      <point x="480" y="387"/>
      <point x="624" y="323"/>
      <point x="624" y="216" type="curve" smooth="yes"/>
      <point x="624" y="136"/>
      <point x="535" y="86"/>
      <point x="417" y="86" type="curve" smooth="yes"/>
      <point x="300" y="86"/>
      <point x="246" y="118"/>
      <point x="246" y="168" type="curve" smooth="yes"/>
      <point x="246" y="258"/>
      <point x="419" y="304"/>
      <point x="419" y="427" type="curve" smooth="yes"/>
      <point x="419" y="527"/>
      <point x="335" y="633"/>
      <point x="216" y="633" type="curve" smooth="yes"/>
      <point x="137" y="633"/>
      <point x="86" y="584"/>
      <point x="86" y="524" type="curve" smooth="yes"/>
      <point x="86" y="463"/>
      <point x="132" y="410"/>
      <point x="208" y="369" type="curve"/>
      <point x="243" y="416" type="line"/>
      <point x="216" y="433"/>
      <point x="200" y="451"/>
      <point x="200" y="474" type="curve" smooth="yes"/>
      <point x="200" y="510"/>
      <point x="235" y="537"/>
      <point x="276" y="537" type="curve" smooth="yes"/>
      <point x="312" y="537"/>
      <point x="329" y="517"/>
      <point x="329" y="488" type="curve" smooth="yes"/>
      <point x="329" y="379"/>
      <point x="134" y="340"/>
      <point x="134" y="214" type="curve" smooth="yes"/>
      <point x="134" y="104"/>
      <point x="262" y="-8"/>
    </contour>
  </outline>
</glyph>
<glyph name="uni1CED" format="2">
  <unicode hex="1CED"/>
  <note>
uni1CED
</note>
  <anchor x="-299" y="420" name="_vedic"/>
  <outline>
    <contour>
      <point x="-429" y="-122" type="line"/>
      <point x="-160" y="-321" type="line"/>
      <point x="-110" y="-260" type="line"/>
      <point x="-372" y="-56" type="line"/>
    </contour>
  </outline>
</glyph>
<glyph name="uni1CF2" format="2">
  <advance width="546"/>
  <unicode hex="1CF2"/>
  <note>
uni1CF2
</note>
  <anchor x="-224" y="0" name="vedic"/>
  <outline>
    <contour>
      <point x="274" y="297" type="curve" smooth="yes"/>
      <point x="399" y="297"/>
      <point x="485" y="370"/>
      <point x="507" y="489" type="curve"/>
      <point x="394" y="518" type="line"/>
      <point x="382" y="438"/>
      <point x="334" y="387"/>
      <point x="250" y="387" type="curve" smooth="yes"/>
      <point x="171" y="387"/>
      <point x="119" y="439"/>
      <point x="105" y="518" type="curve"/>
      <point x="39" y="501" type="line"/>
      <point x="62" y="375"/>
      <point x="144" y="297"/>
    </contour>
    <contour>
      <point x="152" y="39" type="line"/>
      <point x="164" y="120"/>
      <point x="214" y="170"/>
      <point x="299" y="170" type="curve" smooth="yes"/>
      <point x="377" y="170"/>
      <point x="427" y="119"/>
      <point x="441" y="39" type="curve"/>
      <point x="507" y="57" type="line"/>
      <point x="483" y="183"/>
      <point x="402" y="260"/>
      <point x="272" y="260" type="curve" smooth="yes"/>
      <point x="147" y="260"/>
      <point x="61" y="188"/>
      <point x="39" y="69" type="curve"/>
    </contour>
  </outline>
</glyph>
<glyph name="uni1CF6" format="2">
  <advance width="614"/>
  <unicode hex="1CF6"/>
  <note>
uni1CF6
</note>
  <outline>
    <contour>
      <point x="234" y="124" type="curve" smooth="yes"/>
      <point x="313" y="124"/>
      <point x="368" y="182"/>
      <point x="368" y="309" type="curve" smooth="yes"/>
      <point x="368" y="401" type="line"/>
      <point x="263" y="431" type="line"/>
      <point x="263" y="312" type="line" smooth="yes"/>
      <point x="263" y="241"/>
      <point x="240" y="206"/>
      <point x="197" y="206" type="curve" smooth="yes"/>
      <point x="170" y="206"/>
      <point x="148" y="225"/>
      <point x="148" y="274" type="curve" smooth="yes"/>
      <point x="148" y="316"/>
      <point x="167" y="356"/>
      <point x="196" y="399" type="curve"/>
      <point x="89" y="467" type="line"/>
      <point x="64" y="433"/>
      <point x="43" y="390"/>
      <point x="43" y="341" type="curve" smooth="yes"/>
      <point x="43" y="231"/>
      <point x="133" y="124"/>
    </contour>
    <contour>
      <point x="445" y="125" type="curve" smooth="yes"/>
      <point x="518" y="125"/>
      <point x="571" y="178"/>
      <point x="571" y="272" type="curve" smooth="yes"/>
      <point x="571" y="347"/>
      <point x="537" y="406"/>
      <point x="485" y="464" type="curve"/>
      <point x="426" y="423" type="line"/>
      <point x="454" y="388"/>
      <point x="476" y="354"/>
      <point x="476" y="300" type="curve" smooth="yes"/>
      <point x="476" y="238"/>
      <point x="446" y="212"/>
      <point x="410" y="212" type="curve" smooth="yes"/>
      <point x="369" y="212"/>
      <point x="343" y="241"/>
      <point x="319" y="290" type="curve"/>
      <point x="281" y="270" type="line"/>
      <point x="309" y="181"/>
      <point x="369" y="125"/>
    </contour>
  </outline>
</glyph>
<glyph name="quoteleft" format="2">
  <advance width="266"/>
  <unicode hex="2018"/>
  <outline>
    <contour>
      <point x="140" y="420" type="curve" smooth="yes"/>
      <point x="180" y="420"/>
      <point x="209" y="443"/>
      <point x="209" y="484" type="curve" smooth="yes"/>
      <point x="209" y="555"/>
      <point x="137" y="545"/>
      <point x="137" y="584" type="curve" smooth="yes"/>
      <point x="137" y="623"/>
      <point x="166" y="646"/>
      <point x="227" y="667" type="curve"/>
      <point x="227" y="714" type="line"/>
      <point x="103" y="680"/>
      <point x="56" y="604"/>
      <point x="56" y="520" type="curve" smooth="yes"/>
      <point x="56" y="457"/>
      <point x="92" y="420"/>
    </contour>
  </outline>
</glyph>
<glyph name="quoteright" format="2">
  <advance width="266"/>
  <unicode hex="2019"/>
  <outline>
    <contour>
      <point x="39" y="419" type="line"/>
      <point x="163" y="454"/>
      <point x="210" y="529"/>
      <point x="210" y="614" type="curve" smooth="yes"/>
      <point x="210" y="677"/>
      <point x="175" y="714"/>
      <point x="126" y="714" type="curve" smooth="yes"/>
      <point x="87" y="714"/>
      <point x="57" y="692"/>
      <point x="57" y="650" type="curve" smooth="yes"/>
      <point x="57" y="579"/>
      <point x="130" y="588"/>
      <point x="130" y="550" type="curve" smooth="yes"/>
      <point x="130" y="511"/>
      <point x="101" y="487"/>
      <point x="39" y="466" type="curve"/>
    </contour>
  </outline>
</glyph>
<glyph name="quotedblleft" format="2">
  <advance width="470"/>
  <unicode hex="201C"/>
  <outline>
    <contour>
      <point x="345" y="420" type="curve" smooth="yes"/>
      <point x="383" y="420"/>
      <point x="413" y="443"/>
      <point x="413" y="484" type="curve" smooth="yes"/>
      <point x="413" y="555"/>
      <point x="340" y="545"/>
      <point x="340" y="584" type="curve" smooth="yes"/>
      <point x="340" y="623"/>
      <point x="370" y="646"/>
      <point x="431" y="667" type="curve"/>
      <point x="431" y="714" type="line"/>
      <point x="307" y="680"/>
      <point x="260" y="604"/>
      <point x="260" y="520" type="curve" smooth="yes"/>
      <point x="260" y="457"/>
      <point x="295" y="420"/>
    </contour>
    <contour>
      <point x="140" y="420" type="curve" smooth="yes"/>
      <point x="180" y="420"/>
      <point x="209" y="443"/>
      <point x="209" y="484" type="curve" smooth="yes"/>
      <point x="209" y="555"/>
      <point x="137" y="545"/>
      <point x="137" y="584" type="curve" smooth="yes"/>
      <point x="137" y="623"/>
      <point x="166" y="646"/>
      <point x="227" y="667" type="curve"/>
      <point x="227" y="714" type="line"/>
      <point x="103" y="680"/>
      <point x="56" y="604"/>
      <point x="56" y="520" type="curve" smooth="yes"/>
      <point x="56" y="457"/>
      <point x="92" y="420"/>
    </contour>
  </outline>
</glyph>
<glyph name="quotedblright" format="2">
  <advance width="470"/>
  <unicode hex="201D"/>
  <outline>
    <contour>
      <point x="243" y="419" type="line"/>
      <point x="368" y="454"/>
      <point x="414" y="529"/>
      <point x="414" y="614" type="curve" smooth="yes"/>
      <point x="414" y="677"/>
      <point x="378" y="714"/>
      <point x="329" y="714" type="curve" smooth="yes"/>
      <point x="291" y="714"/>
      <point x="261" y="692"/>
      <point x="261" y="650" type="curve" smooth="yes"/>
      <point x="261" y="579"/>
      <point x="334" y="588"/>
      <point x="334" y="550" type="curve" smooth="yes"/>
      <point x="334" y="511"/>
      <point x="304" y="487"/>
      <point x="243" y="466" type="curve"/>
    </contour>
    <contour>
      <point x="39" y="419" type="line"/>
      <point x="163" y="454"/>
      <point x="210" y="529"/>
      <point x="210" y="614" type="curve" smooth="yes"/>
      <point x="210" y="677"/>
      <point x="175" y="714"/>
      <point x="126" y="714" type="curve" smooth="yes"/>
      <point x="87" y="714"/>
      <point x="57" y="692"/>
      <point x="57" y="650" type="curve" smooth="yes"/>
      <point x="57" y="579"/>
      <point x="130" y="588"/>
      <point x="130" y="550" type="curve" smooth="yes"/>
      <point x="130" y="511"/>
      <point x="101" y="487"/>
      <point x="39" y="466" type="curve"/>
    </contour>
  </outline>
</glyph>
<glyph name="ellipsis" format="2">
  <advance width="921"/>
  <unicode hex="2026"/>
  <outline>
    <contour>
      <point x="784" y="-8" type="curve" smooth="yes"/>
      <point x="823" y="-8"/>
      <point x="857" y="11"/>
      <point x="857" y="67" type="curve" smooth="yes"/>
      <point x="857" y="123"/>
      <point x="823" y="141"/>
      <point x="784" y="141" type="curve" smooth="yes"/>
      <point x="743" y="141"/>
      <point x="711" y="123"/>
      <point x="711" y="67" type="curve" smooth="yes"/>
      <point x="711" y="11"/>
      <point x="743" y="-8"/>
    </contour>
    <contour>
      <point x="196" y="-8" type="curve" smooth="yes"/>
      <point x="235" y="-8"/>
      <point x="268" y="11"/>
      <point x="268" y="67" type="curve" smooth="yes"/>
      <point x="268" y="123"/>
      <point x="235" y="141"/>
      <point x="196" y="141" type="curve" smooth="yes"/>
      <point x="155" y="141"/>
      <point x="123" y="123"/>
      <point x="123" y="67" type="curve" smooth="yes"/>
      <point x="123" y="11"/>
      <point x="155" y="-8"/>
    </contour>
    <contour>
      <point x="491" y="-8" type="curve" smooth="yes"/>
      <point x="529" y="-8"/>
      <point x="563" y="11"/>
      <point x="563" y="67" type="curve" smooth="yes"/>
      <point x="563" y="123"/>
      <point x="529" y="141"/>
      <point x="491" y="141" type="curve" smooth="yes"/>
      <point x="449" y="141"/>
      <point x="417" y="123"/>
      <point x="417" y="67" type="curve" smooth="yes"/>
      <point x="417" y="11"/>
      <point x="449" y="-8"/>
    </contour>
  </outline>
</glyph>
<glyph name="rupeeIndian" format="2">
  <advance width="572"/>
  <unicode hex="20B9"/>
  <outline>
    <contour>
      <point x="408" y="2" type="curve" smooth="yes"/>
      <point x="462" y="2" type="line"/>
      <point x="462" y="51" type="line"/>
      <point x="447" y="51" type="line" smooth="yes"/>
      <point x="409" y="51"/>
      <point x="373" y="80"/>
      <point x="334" y="136" type="curve" smooth="yes"/>
      <point x="202" y="323" type="line"/>
      <point x="334" y="328"/>
      <point x="403" y="393"/>
      <point x="418" y="485" type="curve"/>
      <point x="520" y="485" type="line"/>
      <point x="520" y="540" type="line"/>
      <point x="421" y="540" type="line"/>
      <point x="417" y="590"/>
      <point x="399" y="633"/>
      <point x="364" y="661" type="curve"/>
      <point x="520" y="661" type="line"/>
      <point x="520" y="716" type="line"/>
      <point x="48" y="716" type="line"/>
      <point x="48" y="661" type="line"/>
      <point x="113" y="661" type="line" smooth="yes"/>
      <point x="214" y="661"/>
      <point x="263" y="624"/>
      <point x="270" y="540" type="curve"/>
      <point x="49" y="540" type="line"/>
      <point x="49" y="485" type="line"/>
      <point x="269" y="485" type="line"/>
      <point x="261" y="397"/>
      <point x="217" y="363"/>
      <point x="112" y="363" type="curve" smooth="yes"/>
      <point x="48" y="363" type="line"/>
      <point x="48" y="321" type="line"/>
      <point x="199" y="98" type="line" smooth="yes"/>
      <point x="246" y="28"/>
      <point x="284" y="2"/>
    </contour>
  </outline>
</glyph>
<glyph name="aaMatra-beng.fina" format="2">
  <advance width="229"/>
  <outline>
    <contour>
      <point x="162" y="-35" type="line"/>
      <point x="169" y="-33" type="line"/>
      <point x="169" y="677" type="line"/>
      <point x="87" y="713" type="line"/>
      <point x="80" y="710" type="line"/>
      <point x="80" y="616" type="line" smooth="yes"/>
      <point x="80" y="596"/>
      <point x="83" y="540"/>
      <point x="88" y="493" type="curve"/>
      <point x="98" y="496" type="line"/>
      <point x="84" y="582"/>
      <point x="52" y="622"/>
      <point x="1" y="622" type="curve" smooth="yes"/>
      <point x="-35" y="622" type="line"/>
      <point x="7" y="550" type="line"/>
      <point x="12" y="550" type="line" smooth="yes"/>
      <point x="52" y="550"/>
      <point x="72" y="505"/>
      <point x="80" y="455" type="curve"/>
      <point x="80" y="1" type="line"/>
    </contour>
  </outline>
</glyph>
<glyph name="aiMatra-beng.init" format="2">
  <advance width="411"/>
  <outline>
    <contour>
      <point x="341" y="598" type="curve"/>
      <point x="400" y="598" type="line"/>
      <point x="394" y="738"/>
      <point x="346" y="820"/>
      <point x="246" y="820" type="curve" smooth="yes"/>
      <point x="194" y="820"/>
      <point x="161" y="811"/>
      <point x="106" y="811" type="curve" smooth="yes"/>
      <point x="41" y="811"/>
      <point x="10" y="831"/>
      <point x="10" y="893" type="curve" smooth="yes"/>
      <point x="10" y="904"/>
      <point x="11" y="917"/>
      <point x="12" y="928" type="curve"/>
      <point x="-39" y="933" type="line"/>
      <point x="-43" y="911"/>
      <point x="-46" y="886"/>
      <point x="-46" y="862" type="curve" smooth="yes"/>
      <point x="-46" y="761"/>
      <point x="4" y="694"/>
      <point x="110" y="694" type="curve" smooth="yes"/>
      <point x="171" y="694"/>
      <point x="209" y="705"/>
      <point x="251" y="705" type="curve" smooth="yes"/>
      <point x="302" y="705"/>
      <point x="337" y="684"/>
    </contour>
    <contour>
      <point x="285" y="-26" type="curve" smooth="yes"/>
      <point x="356" y="-26"/>
      <point x="398" y="13"/>
      <point x="398" y="79" type="curve" smooth="yes"/>
      <point x="398" y="130"/>
      <point x="366" y="174"/>
      <point x="304" y="174" type="curve" smooth="yes"/>
      <point x="252" y="174"/>
      <point x="215" y="138"/>
      <point x="215" y="90" type="curve" smooth="yes"/>
      <point x="215" y="55"/>
      <point x="227" y="31"/>
      <point x="245" y="14" type="curve"/>
      <point x="274" y="28" type="line"/>
      <point x="184" y="54"/>
      <point x="153" y="139"/>
      <point x="153" y="260" type="curve" smooth="yes"/>
      <point x="153" y="424"/>
      <point x="277" y="550"/>
      <point x="401" y="550" type="curve" smooth="yes"/>
      <point x="446" y="550" type="line"/>
      <point x="405" y="622" type="line"/>
      <point x="319" y="622" type="line" smooth="yes"/>
      <point x="175" y="622"/>
      <point x="44" y="480"/>
      <point x="44" y="299" type="curve" smooth="yes"/>
      <point x="44" y="80"/>
      <point x="160" y="-26"/>
    </contour>
  </outline>
</glyph>
<glyph name="assastroke" format="2">
  <advance width="546"/>
  <anchor x="221" y="42" name="_nukta"/>
  <outline>
    <contour>
      <point x="329" y="-58" type="curve"/>
      <point x="360" y="-29" type="line"/>
      <point x="301" y="56"/>
      <point x="221" y="136"/>
      <point x="86" y="142" type="curve"/>
      <point x="118" y="49" type="line"/>
      <point x="214" y="36"/>
      <point x="272" y="1"/>
    </contour>
  </outline>
</glyph>
<glyph name="auLength-beng.fina" format="2">
  <advance width="229"/>
  <anchor x="331" y="598" name="top"/>
  <anchor x="-27" y="600" name="topright"/>
  <outline>
    <contour>
      <point x="162" y="-35" type="line"/>
      <point x="169" y="-32" type="line"/>
      <point x="169" y="609" type="line" smooth="yes"/>
      <point x="169" y="747"/>
      <point x="74" y="823"/>
      <point x="-49" y="823" type="curve" smooth="yes"/>
      <point x="-125" y="823"/>
      <point x="-182" y="810"/>
      <point x="-270" y="810" type="curve" smooth="yes"/>
      <point x="-362" y="810"/>
      <point x="-413" y="825"/>
      <point x="-413" y="890" type="curve" smooth="yes"/>
      <point x="-413" y="901"/>
      <point x="-412" y="916"/>
      <point x="-410" y="928" type="curve"/>
      <point x="-462" y="933" type="line"/>
      <point x="-466" y="911"/>
      <point x="-469" y="885"/>
      <point x="-469" y="860" type="curve" smooth="yes"/>
      <point x="-469" y="752"/>
      <point x="-396" y="693"/>
      <point x="-271" y="693" type="curve" smooth="yes"/>
      <point x="-168" y="693"/>
      <point x="-103" y="714"/>
      <point x="-18" y="714" type="curve" smooth="yes"/>
      <point x="56" y="714"/>
      <point x="86" y="680"/>
      <point x="86" y="634" type="curve" smooth="yes"/>
      <point x="86" y="623"/>
      <point x="85" y="613"/>
      <point x="82" y="603" type="curve"/>
      <point x="132" y="622" type="line"/>
      <point x="-35" y="622" type="line"/>
      <point x="7" y="550" type="line"/>
      <point x="80" y="550" type="line"/>
      <point x="80" y="2" type="line"/>
    </contour>
  </outline>
</glyph>
<glyph name="b_ba-beng" format="2">
  <advance width="945"/>
  <anchor x="860" y="34" name="bottom"/>
  <anchor x="868" y="87" name="bottom.rakaar"/>
  <anchor x="868" y="10" name="bottom.rvocalic"/>
  <anchor x="848" y="14" name="bottom.virama"/>
  <anchor x="848" y="583" name="top"/>
  <anchor x="850" y="571" name="topright"/>
  <outline>
    <contour>
      <point x="437" y="-24" type="line"/>
      <point x="446" y="-22" type="line"/>
      <point x="446" y="550" type="line"/>
      <point x="778" y="550" type="line"/>
      <point x="778" y="471" type="line"/>
      <point x="788" y="518" type="line"/>
      <point x="655" y="481"/>
      <point x="541" y="424"/>
      <point x="431" y="351" type="curve"/>
      <point x="494" y="204" type="line"/>
      <point x="629" y="188"/>
      <point x="722" y="128"/>
      <point x="790" y="19" type="curve"/>
      <point x="859" y="-24" type="line"/>
      <point x="868" y="-22" type="line"/>
      <point x="868" y="550" type="line"/>
      <point x="980" y="550" type="line"/>
      <point x="939" y="622" type="line"/>
      <point x="-35" y="622" type="line"/>
      <point x="6" y="550" type="line"/>
      <point x="356" y="550" type="line"/>
      <point x="356" y="471" type="line"/>
      <point x="366" y="518" type="line"/>
      <point x="233" y="481"/>
      <point x="121" y="424"/>
      <point x="11" y="351" type="curve"/>
      <point x="65" y="204" type="line"/>
      <point x="201" y="188"/>
      <point x="298" y="128"/>
      <point x="368" y="19" type="curve"/>
    </contour>
    <contour>
      <point x="356" y="81" type="line"/>
      <point x="370" y="102" type="line"/>
      <point x="311" y="217"/>
      <point x="226" y="275"/>
      <point x="140" y="297" type="curve"/>
      <point x="148" y="274" type="line"/>
      <point x="216" y="320"/>
      <point x="296" y="363"/>
      <point x="373" y="387" type="curve"/>
      <point x="356" y="422" type="line"/>
    </contour>
    <contour>
      <point x="778" y="81" type="line"/>
      <point x="792" y="102" type="line"/>
      <point x="736" y="217"/>
      <point x="649" y="275"/>
      <point x="564" y="297" type="curve"/>
      <point x="564" y="274" type="line"/>
      <point x="633" y="320"/>
      <point x="718" y="363"/>
      <point x="795" y="387" type="curve"/>
      <point x="778" y="422" type="line"/>
    </contour>
  </outline>
</glyph>
<glyph name="b_bha-beng" format="2">
  <advance width="682"/>
  <anchor x="510" y="-185" name="bottom"/>
  <anchor x="601" y="-201" name="bottom.rakaar"/>
  <anchor x="525" y="-200" name="bottom.rvocalic"/>
  <anchor x="462" y="-193" name="bottom.virama"/>
  <anchor x="559" y="583" name="top"/>
  <anchor x="561" y="571" name="topright"/>
  <outline>
    <contour>
      <point x="433" y="-186" type="curve" smooth="yes"/>
      <point x="562" y="-186"/>
      <point x="653" y="-117"/>
      <point x="653" y="23" type="curve" smooth="yes"/>
      <point x="653" y="110"/>
      <point x="611" y="166"/>
      <point x="553" y="219" type="curve"/>
      <point x="511" y="153"/>
      <point x="461" y="109"/>
      <point x="391" y="104" type="curve"/>
      <point x="411" y="77" type="line"/>
      <point x="429" y="92"/>
      <point x="440" y="109"/>
      <point x="440" y="135" type="curve" smooth="yes"/>
      <point x="440" y="180"/>
      <point x="403" y="207"/>
      <point x="356" y="207" type="curve" smooth="yes"/>
      <point x="301" y="207"/>
      <point x="266" y="168"/>
      <point x="266" y="122" type="curve" smooth="yes"/>
      <point x="266" y="51"/>
      <point x="328" y="8"/>
      <point x="408" y="8" type="curve" smooth="yes"/>
      <point x="486" y="8"/>
      <point x="551" y="46"/>
      <point x="598" y="112" type="curve"/>
      <point x="569" y="125" type="line"/>
      <point x="587" y="106"/>
      <point x="595" y="89"/>
      <point x="595" y="51" type="curve" smooth="yes"/>
      <point x="595" y="-23"/>
      <point x="523" y="-57"/>
      <point x="431" y="-57" type="curve" smooth="yes"/>
      <point x="183" y="-57"/>
      <point x="99" y="240"/>
      <point x="61" y="457" type="curve"/>
      <point x="9" y="448" type="line"/>
      <point x="46" y="171"/>
      <point x="133" y="-186"/>
    </contour>
    <contour>
      <point x="498" y="207" type="line"/>
      <point x="511" y="221" type="line"/>
      <point x="444" y="323"/>
      <point x="327" y="353"/>
      <point x="242" y="372" type="curve"/>
      <point x="259" y="319" type="line"/>
      <point x="321" y="357"/>
      <point x="434" y="402"/>
      <point x="513" y="422" type="curve"/>
      <point x="498" y="454" type="line"/>
    </contour>
    <contour>
      <point x="522" y="142" type="curve"/>
      <point x="579" y="170" type="line"/>
      <point x="579" y="550" type="line"/>
      <point x="717" y="550" type="line"/>
      <point x="675" y="622" type="line"/>
      <point x="-35" y="622" type="line"/>
      <point x="7" y="550" type="line"/>
      <point x="498" y="550" type="line"/>
      <point x="498" y="515" type="line"/>
      <point x="507" y="542" type="line"/>
      <point x="388" y="514"/>
      <point x="264" y="467"/>
      <point x="164" y="411" type="curve"/>
      <point x="212" y="284" type="line"/>
      <point x="329" y="271"/>
      <point x="453" y="230"/>
    </contour>
  </outline>
</glyph>
<glyph name="b_d_ra-beng" format="2">
  <advance width="833"/>
  <anchor x="765" y="-59" name="bottom"/>
  <anchor x="779" y="-125" name="bottom.rvocalic"/>
  <anchor x="759" y="-102" name="bottom.virama"/>
  <anchor x="626" y="583" name="top"/>
  <anchor x="618" y="571" name="topright"/>
  <outline>
    <contour>
      <point x="771" y="-139" type="line"/>
      <point x="779" y="-136" type="line"/>
      <point x="745" y="-44"/>
      <point x="733" y="55"/>
      <point x="733" y="148" type="curve" smooth="yes"/>
      <point x="733" y="234"/>
      <point x="758" y="324"/>
      <point x="803" y="398" type="curve"/>
      <point x="687" y="496" type="line"/>
      <point x="586" y="442"/>
      <point x="482" y="360"/>
      <point x="417" y="285" type="curve"/>
      <point x="441" y="252" type="line"/>
      <point x="441" y="550" type="line"/>
      <point x="868" y="550" type="line"/>
      <point x="826" y="622" type="line"/>
      <point x="-35" y="622" type="line"/>
      <point x="7" y="550" type="line"/>
      <point x="352" y="550" type="line"/>
      <point x="352" y="236" type="line"/>
      <point x="374" y="244" type="line"/>
      <point x="316" y="310"/>
      <point x="229" y="348"/>
      <point x="136" y="362" type="curve"/>
      <point x="158" y="319" type="line"/>
      <point x="216" y="353"/>
      <point x="310" y="400"/>
      <point x="379" y="421" type="curve"/>
      <point x="369" y="537" type="line"/>
      <point x="253" y="506"/>
      <point x="145" y="459"/>
      <point x="53" y="405" type="curve"/>
      <point x="113" y="276" type="line"/>
      <point x="241" y="264"/>
      <point x="345" y="216"/>
      <point x="433" y="127" type="curve"/>
      <point x="442" y="127" type="line"/>
      <point x="531" y="227"/>
      <point x="625" y="310"/>
      <point x="724" y="374" type="curve"/>
      <point x="687" y="399" type="line"/>
      <point x="661" y="332"/>
      <point x="648" y="266"/>
      <point x="648" y="198" type="curve" smooth="yes"/>
      <point x="648" y="105"/>
      <point x="664" y="19"/>
      <point x="700" y="-48" type="curve"/>
      <point x="703" y="-35" type="line"/>
      <point x="639" y="51"/>
      <point x="573" y="80"/>
      <point x="494" y="80" type="curve" smooth="yes"/>
      <point x="422" y="80"/>
      <point x="350" y="61"/>
      <point x="274" y="61" type="curve" smooth="yes"/>
      <point x="197" y="61"/>
      <point x="137" y="72"/>
      <point x="137" y="147" type="curve" smooth="yes"/>
      <point x="137" y="169"/>
      <point x="139" y="189"/>
      <point x="147" y="217" type="curve"/>
      <point x="93" y="229" type="line"/>
      <point x="80" y="187"/>
      <point x="72" y="146"/>
      <point x="72" y="98" type="curve" smooth="yes"/>
      <point x="72" y="-30"/>
      <point x="161" y="-65"/>
      <point x="257" y="-65" type="curve" smooth="yes"/>
      <point x="356" y="-65"/>
      <point x="430" y="-35"/>
      <point x="527" y="-35" type="curve" smooth="yes"/>
      <point x="596" y="-35"/>
      <point x="658" y="-56"/>
      <point x="705" y="-108" type="curve"/>
    </contour>
  </outline>
</glyph>
<glyph name="b_da-beng" format="2">
  <advance width="801"/>
  <anchor x="720" y="32" name="bottom"/>
  <anchor x="733" y="58" name="bottom.rakaar"/>
  <anchor x="732" y="-29" name="bottom.rvocalic"/>
  <anchor x="715" y="-26" name="bottom.virama"/>
  <anchor x="389" y="583" name="top"/>
  <anchor x="567" y="583" name="topleft"/>
  <anchor x="391" y="571" name="topright"/>
  <outline>
    <contour>
      <point x="683" y="-60" type="curve"/>
      <point x="732" y="-40" type="line"/>
      <point x="707" y="34"/>
      <point x="701" y="87"/>
      <point x="701" y="151" type="curve" smooth="yes"/>
      <point x="701" y="232"/>
      <point x="725" y="323"/>
      <point x="770" y="398" type="curve"/>
      <point x="655" y="496" type="line"/>
      <point x="553" y="442"/>
      <point x="449" y="360"/>
      <point x="385" y="285" type="curve"/>
      <point x="409" y="252" type="line"/>
      <point x="409" y="550" type="line"/>
      <point x="836" y="550" type="line"/>
      <point x="794" y="622" type="line"/>
      <point x="-35" y="622" type="line"/>
      <point x="7" y="550" type="line"/>
      <point x="320" y="550" type="line"/>
      <point x="320" y="236" type="line"/>
      <point x="342" y="244" type="line"/>
      <point x="284" y="310"/>
      <point x="197" y="348"/>
      <point x="104" y="362" type="curve"/>
      <point x="126" y="319" type="line"/>
      <point x="184" y="353"/>
      <point x="278" y="400"/>
      <point x="347" y="421" type="curve"/>
      <point x="337" y="537" type="line"/>
      <point x="221" y="506"/>
      <point x="113" y="459"/>
      <point x="21" y="405" type="curve"/>
      <point x="80" y="276" type="line"/>
      <point x="209" y="264"/>
      <point x="313" y="216"/>
      <point x="401" y="127" type="curve"/>
      <point x="410" y="127" type="line"/>
      <point x="499" y="227"/>
      <point x="594" y="311"/>
      <point x="692" y="374" type="curve"/>
      <point x="655" y="399" type="line"/>
      <point x="628" y="332"/>
      <point x="616" y="263"/>
      <point x="616" y="195" type="curve" smooth="yes"/>
      <point x="616" y="100"/>
      <point x="646" y="12"/>
    </contour>
  </outline>
</glyph>
<glyph name="b_dha-beng" format="2">
  <advance width="672"/>
  <anchor x="453" y="-87" name="bottom"/>
  <anchor x="461" y="-35" name="bottom.rakaar"/>
  <anchor x="461" y="-112" name="bottom.rvocalic"/>
  <anchor x="441" y="-108" name="bottom.virama"/>
  <anchor x="441" y="583" name="top"/>
  <anchor x="443" y="571" name="topright"/>
  <outline>
    <contour>
      <point x="453" y="-145" type="line"/>
      <point x="461" y="-143" type="line"/>
      <point x="461" y="550" type="line"/>
      <point x="707" y="550" type="line"/>
      <point x="666" y="622" type="line"/>
      <point x="-35" y="622" type="line"/>
      <point x="7" y="550" type="line"/>
      <point x="372" y="550" type="line"/>
      <point x="372" y="478" type="line"/>
      <point x="382" y="526" type="line"/>
      <point x="250" y="491"/>
      <point x="125" y="436"/>
      <point x="17" y="379" type="curve"/>
      <point x="73" y="246" type="line"/>
      <point x="140" y="243"/>
      <point x="210" y="231"/>
      <point x="255" y="203" type="curve"/>
      <point x="287" y="231" type="line"/>
      <point x="236" y="284"/>
      <point x="163" y="315"/>
      <point x="104" y="324" type="curve"/>
      <point x="123" y="279" type="line"/>
      <point x="188" y="314"/>
      <point x="299" y="363"/>
      <point x="388" y="393" type="curve"/>
      <point x="372" y="429" type="line"/>
      <point x="372" y="-46" type="line"/>
      <point x="386" y="-30" type="line"/>
      <point x="330" y="61"/>
      <point x="247" y="102"/>
      <point x="163" y="124" type="curve"/>
      <point x="181" y="81" type="line"/>
      <point x="301" y="151"/>
      <point x="439" y="209"/>
      <point x="553" y="241" type="curve"/>
      <point x="534" y="279" type="line"/>
      <point x="534" y="-32" type="line"/>
      <point x="626" y="-90" type="line"/>
      <point x="627" y="285" type="line"/>
      <point x="540" y="355" type="line"/>
      <point x="393" y="316"/>
      <point x="248" y="256"/>
      <point x="82" y="166" type="curve"/>
      <point x="141" y="39" type="line"/>
      <point x="243" y="21"/>
      <point x="322" y="-17"/>
      <point x="383" y="-103" type="curve"/>
    </contour>
  </outline>
</glyph>
<glyph name="b_ja-beng" format="2">
  <advance width="994"/>
  <anchor x="902" y="-28" name="bottom"/>
  <anchor x="900" y="29" name="bottom.rakaar"/>
  <anchor x="899" y="-58" name="bottom.rvocalic"/>
  <anchor x="882" y="-55" name="bottom.virama"/>
  <anchor x="472" y="583" name="top"/>
  <anchor x="728" y="583" name="topleft"/>
  <anchor x="474" y="571" name="topright"/>
  <outline>
    <contour>
      <point x="506" y="-65" type="curve" smooth="yes"/>
      <point x="659" y="-65"/>
      <point x="740" y="18"/>
      <point x="740" y="152" type="curve" smooth="yes"/>
      <point x="740" y="250"/>
      <point x="693" y="317"/>
      <point x="640" y="357" type="curve"/>
      <point x="601" y="306"/>
      <point x="565" y="279"/>
      <point x="528" y="279" type="curve" smooth="yes"/>
      <point x="508" y="279"/>
      <point x="493" y="291"/>
      <point x="493" y="315" type="curve" smooth="yes"/>
      <point x="493" y="550" type="line"/>
      <point x="1029" y="550" type="line"/>
      <point x="986" y="622" type="line"/>
      <point x="-35" y="622" type="line"/>
      <point x="8" y="550" type="line"/>
      <point x="408" y="550" type="line"/>
      <point x="408" y="270" type="line"/>
      <point x="423" y="264" type="line"/>
      <point x="384" y="333"/>
      <point x="310" y="373"/>
      <point x="228" y="383" type="curve"/>
      <point x="244" y="342" type="line"/>
      <point x="298" y="376"/>
      <point x="380" y="412"/>
      <point x="433" y="424" type="curve"/>
      <point x="427" y="538" type="line"/>
      <point x="333" y="514"/>
      <point x="252" y="481"/>
      <point x="152" y="427" type="curve"/>
      <point x="212" y="298" type="line"/>
      <point x="304" y="291"/>
      <point x="372" y="257"/>
      <point x="424" y="207" type="curve" smooth="yes"/>
      <point x="460" y="173"/>
      <point x="489" y="155"/>
      <point x="533" y="155" type="curve" smooth="yes"/>
      <point x="591" y="155"/>
      <point x="646" y="192"/>
      <point x="694" y="256" type="curve"/>
      <point x="640" y="263" type="line"/>
      <point x="666" y="239"/>
      <point x="678" y="214"/>
      <point x="678" y="176" type="curve" smooth="yes"/>
      <point x="678" y="103"/>
      <point x="613" y="68"/>
      <point x="512" y="68" type="curve" smooth="yes"/>
      <point x="340" y="68"/>
      <point x="174" y="176"/>
      <point x="73" y="485" type="curve"/>
      <point x="18" y="469" type="line"/>
      <point x="115" y="103"/>
      <point x="296" y="-65"/>
    </contour>
    <contour>
      <point x="846" y="-89" type="curve"/>
      <point x="899" y="-69" type="line"/>
      <point x="874" y="4"/>
      <point x="868" y="61"/>
      <point x="868" y="126" type="curve" smooth="yes"/>
      <point x="868" y="225"/>
      <point x="900" y="310"/>
      <point x="959" y="397" type="curve"/>
      <point x="875" y="495" type="line"/>
      <point x="827" y="476"/>
      <point x="767" y="468"/>
      <point x="707" y="468" type="curve" smooth="yes"/>
      <point x="619" y="468"/>
      <point x="539" y="495"/>
      <point x="489" y="535" type="curve"/>
      <point x="460" y="490" type="line"/>
      <point x="532" y="411"/>
      <point x="663" y="368"/>
      <point x="769" y="368" type="curve" smooth="yes"/>
      <point x="805" y="368"/>
      <point x="833" y="372"/>
      <point x="855" y="379" type="curve"/>
      <point x="834" y="412" type="line"/>
      <point x="802" y="335"/>
      <point x="786" y="265"/>
      <point x="786" y="172" type="curve" smooth="yes"/>
      <point x="786" y="67"/>
      <point x="810" y="-11"/>
    </contour>
  </outline>
</glyph>
<glyph name="b_la-beng" format="2">
  <advance width="575"/>
  <anchor x="495" y="-79" name="bottom"/>
  <anchor x="496" y="-36" name="bottom.rakaar"/>
  <anchor x="496" y="-114" name="bottom.rvocalic"/>
  <anchor x="476" y="-109" name="bottom.virama"/>
  <anchor x="475" y="583" name="top"/>
  <anchor x="477" y="571" name="topright"/>
  <outline>
    <contour>
      <point x="487" y="-148" type="line"/>
      <point x="496" y="-145" type="line"/>
      <point x="496" y="550" type="line"/>
      <point x="610" y="550" type="line"/>
      <point x="568" y="622" type="line"/>
      <point x="-35" y="622" type="line"/>
      <point x="7" y="550" type="line"/>
      <point x="406" y="550" type="line"/>
      <point x="406" y="470" type="line"/>
      <point x="416" y="518" type="line"/>
      <point x="286" y="487"/>
      <point x="155" y="433"/>
      <point x="42" y="365" type="curve"/>
      <point x="99" y="222" type="line"/>
      <point x="224" y="204"/>
      <point x="345" y="165"/>
      <point x="408" y="91" type="curve"/>
      <point x="417" y="-22" type="line"/>
      <point x="431" y="-29" type="line"/>
      <point x="409" y="38"/>
      <point x="359" y="124"/>
      <point x="302" y="124" type="curve" smooth="yes"/>
      <point x="265" y="124"/>
      <point x="236" y="84"/>
      <point x="240" y="19" type="curve"/>
      <point x="249" y="21" type="line"/>
      <point x="240" y="84"/>
      <point x="201" y="142"/>
      <point x="137" y="142" type="curve" smooth="yes"/>
      <point x="71" y="142"/>
      <point x="32" y="91"/>
      <point x="32" y="15" type="curve" smooth="yes"/>
      <point x="32" y="-81"/>
      <point x="92" y="-131"/>
      <point x="161" y="-131" type="curve" smooth="yes"/>
      <point x="209" y="-131"/>
      <point x="234" y="-108"/>
      <point x="234" y="-68" type="curve" smooth="yes"/>
      <point x="234" y="-33"/>
      <point x="213" y="-8"/>
      <point x="177" y="-8" type="curve" smooth="yes"/>
      <point x="147" y="-8"/>
      <point x="124" y="-30"/>
      <point x="124" y="-62" type="curve" smooth="yes"/>
      <point x="124" y="-75"/>
      <point x="128" y="-88"/>
      <point x="134" y="-95" type="curve"/>
      <point x="163" y="-74" type="line"/>
      <point x="156" y="-75"/>
      <point x="148" y="-75"/>
      <point x="141" y="-75" type="curve" smooth="yes"/>
      <point x="121" y="-75"/>
      <point x="104" y="-55"/>
      <point x="104" y="-26" type="curve" smooth="yes"/>
      <point x="104" y="12"/>
      <point x="124" y="35"/>
      <point x="164" y="35" type="curve" smooth="yes"/>
      <point x="209" y="35"/>
      <point x="241" y="3"/>
      <point x="254" y="-40" type="curve"/>
      <point x="288" y="-48" type="line"/>
      <point x="288" y="-1"/>
      <point x="306" y="16"/>
      <point x="327" y="16" type="curve" smooth="yes"/>
      <point x="369" y="16"/>
      <point x="398" y="-27"/>
      <point x="434" y="-105" type="curve"/>
    </contour>
    <contour>
      <point x="406" y="133" type="line"/>
      <point x="421" y="149" type="line"/>
      <point x="346" y="264"/>
      <point x="220" y="298"/>
      <point x="126" y="320" type="curve"/>
      <point x="151" y="260" type="line"/>
      <point x="218" y="308"/>
      <point x="337" y="360"/>
      <point x="423" y="381" type="curve"/>
      <point x="406" y="418" type="line"/>
    </contour>
  </outline>
</glyph>
